SplineFontDB: 3.0
FontName: Evolventa-Regular
FullName: Evolventa
FamilyName: Evolventa
Weight: Regular
Copyright: Copyright (c) 2016 by Alex I. Kuznetsov.\n\nThis font is free software. You are allowed to distribute and/or modify it under the terms of either (or both) of the following two licenses (your choice):\n\n1) GNU General Public License version 2 (https://gnu.org/licenses/old-licenses/gpl-2.0.txt)\n2) The LaTeX Project Public License version 1.3c or (at your option) any later version (http://www.latex-project.org/lppl.txt)\n\nContains work kindly released to the open source community by URW++ Design and Development GmbH as "URW Gothic L" (version 001.005) with the following copyright notice: Copyright URW Software, Copyright 1996 by URW.\n\nOriginal URW fonts can be obtained at the Evolventa website (https://evolventa.github.io).\n
Version: 1.0
ItalicAngle: 0
UnderlinePosition: -96
UnderlineWidth: 58
Ascent: 800
Descent: 200
InvalidEm: 0
sfntRevision: 0x00010000
LayerCount: 2
Layer: 0 0 "Back" 1
Layer: 1 0 "Fore" 0
XUID: [1021 1017 285194369 11555]
StyleMap: 0x0040
FSType: 0
OS2Version: 4
OS2_WeightWidthSlopeOnly: 1
OS2_UseTypoMetrics: 1
CreationTime: 832050856
ModificationTime: 1494976064
PfmFamily: 17
TTFWeight: 400
TTFWidth: 5
LineGap: 0
VLineGap: 0
Panose: 2 11 5 2 2 2 2 2 2 4
OS2TypoAscent: 800
OS2TypoAOffset: 0
OS2TypoDescent: -200
OS2TypoDOffset: 0
OS2TypoLinegap: 330
OS2WinAscent: 1060
OS2WinAOffset: 0
OS2WinDescent: 270
OS2WinDOffset: 0
HheadAscent: 1060
HheadAOffset: 0
HheadDescent: -270
HheadDOffset: 0
OS2SubXSize: 650
OS2SubYSize: 699
OS2SubXOff: 0
OS2SubYOff: 140
OS2SupXSize: 650
OS2SupYSize: 699
OS2SupXOff: 0
OS2SupYOff: 479
OS2StrikeYSize: 49
OS2StrikeYPos: 258
OS2CapHeight: 739
OS2XHeight: 547
OS2FamilyClass: 2052
OS2Vendor: 'PfEd'
OS2CodePages: 00000005.00000000
OS2UnicodeRanges: 8000026f.5000004a.00000000.00000000

StartChar: .notdef
Encoding: 256 -1 0
Width: 761
Flags: MW
HStem: 0 63<150 210 551 611> 676 63<150 210 150 150 551 611 551 551>
VStem: 76 74<63 105 634 676> 611 74<63 105 105 105 634 676 676 676>
LayerCount: 2
Fore
SplineSet
685 0 m 1
 76 0 l 1
 76 739 l 1
 685 739 l 1
 685 0 l 1
210 63 m 1
 380 306 l 1
 551 63 l 1
 611 63 l 1
 611 105 l 1
 426 370 l 1
 611 634 l 1
 611 676 l 1
 551 676 l 1
 380 434 l 1
 210 676 l 1
 150 676 l 1
 150 634 l 1
 336 370 l 1
 150 105 l 1
 150 63 l 1
 210 63 l 1
EndSplineSet
EndChar

StartChar: exclam
Encoding: 33 33 2
Width: 295
GlyphClass: 2
Flags: MW
HStem: 0 126<111 185 111 185> 719 20G<111 185 185 185>
VStem: 111 74<0 126 0 126 197 739>
LayerCount: 2
Fore
SplineSet
111 0 m 1
 111 126 l 1
 185 126 l 1
 185 0 l 1
 111 0 l 1
111 197 m 1
 111 739 l 1
 185 739 l 1
 185 197 l 1
 111 197 l 1
EndSplineSet
EndChar

StartChar: quotedbl
Encoding: 34 34 3
Width: 309
GlyphClass: 2
Flags: MW
HStem: 513 226<74 124 74 124 187 237 74 187>
VStem: 74 50<513 739> 187 50<513 739>
LayerCount: 2
Fore
SplineSet
237 513 m 1
 187 513 l 1
 187 739 l 1
 237 739 l 1
 237 513 l 1
124 513 m 1
 74 513 l 1
 74 739 l 1
 124 739 l 1
 124 513 l 1
EndSplineSet
EndChar

StartChar: numbersign
Encoding: 35 35 4
Width: 554
GlyphClass: 2
Flags: MW
HStem: 0 21G<59 124 59 59 290 356 290 290> 237 61<5 104 5 116 181 333 5 169 411 534> 453 61<21 145 21 156 21 210 221 373 450 549> 719 20G<198 262 262 262 424 491 491 491>
LayerCount: 2
Fore
SplineSet
534 298 m 1
 534 237 l 1
 399 237 l 1
 356 0 l 1
 290 0 l 1
 333 237 l 1
 169 237 l 1
 124 0 l 1
 59 0 l 1
 104 237 l 1
 5 237 l 1
 5 298 l 1
 116 298 l 1
 145 453 l 1
 21 453 l 1
 21 514 l 1
 156 514 l 1
 198 739 l 1
 262 739 l 1
 221 514 l 1
 384 514 l 1
 424 739 l 1
 491 739 l 1
 450 514 l 1
 549 514 l 1
 549 453 l 1
 439 453 l 1
 411 298 l 1
 534 298 l 1
373 453 m 1
 210 453 l 1
 181 298 l 1
 344 298 l 1
 373 453 l 1
EndSplineSet
EndChar

StartChar: dollar
Encoding: 36 36 5
Width: 554
GlyphClass: 2
Flags: MW
HStem: -56 146<245 245 245 311> 665 145<252.5 311 245 321.5>
VStem: 100 74<530 582.5 515 597.5> 245 66<-56 29 -56 29 728 810> 405 74<185 244>
LayerCount: 2
Fore
SplineSet
245 -56 m 1
 245 29 l 1
 131 50 74 116 74 228 c 1
 144 228 l 1
 149 141 198 90 277 90 c 0
 352 90 405 146 405 224 c 0
 405 264 390 298 363 321 c 0
 343 337 320 348 270 363 c 0
 195 386 165 403 139 436 c 0
 114 466 100 508 100 552 c 0
 100 643 156 710 245 728 c 1
 245 810 l 1
 311 810 l 1
 311 728 l 1
 409 713 469 646 473 547 c 1
 403 547 l 1
 399 621 356 665 287 665 c 0
 218 665 174 619 174 546 c 0
 174 484 201 458 296 428 c 0
 367 405 397 390 424 363 c 0
 460 329 479 280 479 226 c 0
 479 120 410 39 311 29 c 1
 311 -56 l 1
 245 -56 l 1
EndSplineSet
EndChar

StartChar: percent
Encoding: 37 37 6
Width: 775
GlyphClass: 2
Flags: MW
HStem: -13 66<546.5 606 546.5 624.5> 272 66<545.5 605.5> 397 66<158 217.5 158 236.5> 683 66<157 217> 719 20G<514 588 588 588>
VStem: 13 66<542.5 603 542.5 622> 296 68<542 603.5> 401 67<132.5 192.5 132.5 211.5> 684 68<132 193>
LayerCount: 2
Fore
SplineSet
514 739 m 1xef80
 588 739 l 1
 254 0 l 1
 182 0 l 1
 514 739 l 1xef80
579 338 m 0
 673 338 752 258 752 163 c 0
 752 66 673 -13 576 -13 c 0
 480 -13 401 66 401 162 c 0
 401 261 479 338 579 338 c 0
575 272 m 0
 516 272 468 222 468 163 c 0
 468 102 517 53 576 53 c 0
 636 53 684 102 684 162 c 0
 684 224 636 272 575 272 c 0
191 749 m 0xf780
 285 749 364 669 364 573 c 0
 364 476 285 397 188 397 c 0
 92 397 13 476 13 573 c 0
 13 671 91 749 191 749 c 0xf780
186 683 m 0
 128 683 79 633 79 573 c 0
 79 512 128 463 188 463 c 0
 247 463 296 512 296 572 c 0
 296 635 248 683 186 683 c 0
EndSplineSet
EndChar

StartChar: ampersand
Encoding: 38 38 7
Width: 757
GlyphClass: 2
Flags: MW
HStem: -13 67<241.5 320.5 241.5 339> 685 67<293 352.5>
VStem: 57 73<163 242.5 163 246.5> 145 74<571 616.5 571 634> 428 70<563 616.5>
LayerCount: 2
Fore
SplineSet
602 481 m 1
 684 481 l 1
 548 220 l 1
 735 38 l 1
 684 -13 l 1
 513 153 l 1
 455 36 388 -13 290 -13 c 0
 157 -13 57 84 57 213 c 0
 57 280 86 338 141 381 c 0
 162 397 186 412 227 433 c 1
 165 498 145 536 145 588 c 0
 145 680 222 752 320 752 c 0
 422 752 498 680 498 583 c 0
 498 528 476 486 428 453 c 0
 413 441 397 433 354 411 c 1
 494 273 l 1
 602 481 l 1
458 206 m 1
 280 380 l 1
 170 327 130 280 130 205 c 0
 130 121 198 54 285 54 c 0
 356 54 404 96 458 206 c 1
300 464 m 1
 388 498 428 537 428 589 c 0
 428 644 383 685 322 685 c 0
 264 685 219 643 219 590 c 0
 219 552 242 517 300 464 c 1
EndSplineSet
EndChar

StartChar: quotesingle
Encoding: 39 39 8
Width: 198
GlyphClass: 2
Flags: MW
HStem: 513 226<74 124 74 124>
VStem: 74 50<513 739>
LayerCount: 2
Fore
SplineSet
124 513 m 1
 74 513 l 1
 74 739 l 1
 124 739 l 1
 124 513 l 1
EndSplineSet
EndChar

StartChar: parenleft
Encoding: 40 40 9
Width: 369
GlyphClass: 2
Flags: MW
HStem: 719 20G<335 335>
VStem: 57 74<260.5 349 260.5 372.5>
LayerCount: 2
Fore
SplineSet
335 739 m 1
 335 676 l 1
 276 640 238 603 202 545 c 0
 155 469 131 389 131 309 c 0
 131 212 168 109 231 29 c 0
 259 -6 288 -31 335 -60 c 1
 335 -125 l 1
 257 -97 203 -53 148 26 c 0
 87 113 57 207 57 309 c 0
 57 436 111 565 201 656 c 0
 242 698 277 719 335 739 c 1
EndSplineSet
EndChar

StartChar: parenright
Encoding: 41 41 10
Width: 369
GlyphClass: 2
Flags: MW
HStem: 719 20G<34 34>
VStem: 238 74<265.5 354>
LayerCount: 2
Fore
SplineSet
34 -125 m 1
 34 -61 l 1
 93 -26 131 11 167 70 c 0
 214 146 238 225 238 306 c 0
 238 402 201 506 138 585 c 0
 110 620 81 645 34 674 c 1
 34 739 l 1
 112 711 166 668 221 589 c 0
 282 502 312 407 312 305 c 0
 312 179 258 49 168 -42 c 0
 127 -83 92 -105 34 -125 c 1
EndSplineSet
EndChar

StartChar: asterisk
Encoding: 42 42 11
Width: 425
GlyphClass: 2
Flags: MW
HStem: 732 20G<162 162 267 267>
LayerCount: 2
Fore
SplineSet
267 752 m 1
 314 724 l 1
 257 632 l 1
 360 635 l 1
 360 583 l 1
 258 585 l 1
 313 495 l 1
 266 468 l 1
 213 559 l 1
 160 468 l 1
 112 496 l 1
 169 585 l 1
 64 583 l 1
 64 635 l 1
 169 632 l 1
 113 724 l 1
 162 752 l 1
 215 662 l 1
 267 752 l 1
EndSplineSet
EndChar

StartChar: plus
Encoding: 43 43 12
Width: 606
GlyphClass: 2
Flags: MW
HStem: 267 74<51 265 51 265 342 555> 537 20G<265 342 342 342>
VStem: 265 77<49 267 49 267 341 557>
LayerCount: 2
Fore
SplineSet
265 341 m 1
 265 557 l 1
 342 557 l 1
 342 341 l 1
 555 341 l 1
 555 267 l 1
 342 267 l 1
 342 49 l 1
 265 49 l 1
 265 267 l 1
 51 267 l 1
 51 341 l 1
 265 341 l 1
EndSplineSet
EndChar

StartChar: comma
Encoding: 44 44 13
Width: 277
GlyphClass: 2
Flags: W
LayerCount: 2
Fore
SplineSet
91 -67 m 1
 179 126 l 1
 253 126 l 1
 165 -67 l 1
 91 -67 l 1
EndSplineSet
EndChar

StartChar: hyphen
Encoding: 45 45 14
Width: 332
GlyphClass: 2
Flags: MW
HStem: 233 63<31 302 31 302>
LayerCount: 2
Fore
SplineSet
31 296 m 1
 302 296 l 1
 302 233 l 1
 31 233 l 1
 31 296 l 1
EndSplineSet
EndChar

StartChar: period
Encoding: 46 46 15
Width: 277
GlyphClass: 2
Flags: MW
HStem: 0 126<101 175 101 175>
VStem: 101 74<0 126 0 126>
LayerCount: 2
Fore
SplineSet
101 0 m 1
 101 126 l 1
 175 126 l 1
 175 0 l 1
 101 0 l 1
EndSplineSet
EndChar

StartChar: slash
Encoding: 47 47 16
Width: 437
GlyphClass: 2
Flags: MW
HStem: 719 20G<327 397 397 397>
LayerCount: 2
Fore
SplineSet
40 -128 m 1
 327 739 l 1
 397 739 l 1
 107 -128 l 1
 40 -128 l 1
EndSplineSet
EndChar

StartChar: zero
Encoding: 48 48 17
Width: 554
GlyphClass: 2
Flags: MW
HStem: -13 67<249.5 315.5 249.5 326.5> 685 67<244.5 306.5>
VStem: 30 73<269 281 281 462> 452 73<281 462 462 479>
AnchorPoint: "Anchor-0" 277 805 basechar 0
LayerCount: 2
Fore
SplineSet
30 269 m 2
 30 479 l 2
 30 569 47 627 87 674 c 0
 130 725 197 752 277 752 c 0
 368 752 442 715 486 648 c 0
 515 604 525 560 525 479 c 2
 525 269 l 2
 525 183 509 117 477 74 c 0
 435 16 370 -13 283 -13 c 0
 181 -13 105 27 63 103 c 0
 41 144 30 198 30 269 c 2
452 281 m 2
 452 462 l 2
 452 546 442 588 415 623 c 0
 384 663 335 685 278 685 c 0
 211 685 155 654 127 603 c 0
 111 573 103 529 103 462 c 2
 103 281 l 2
 103 202 114 154 138 120 c 0
 170 77 219 54 280 54 c 0
 351 54 405 84 430 138 c 0
 444 168 452 219 452 281 c 2
EndSplineSet
Substitution2: "'pnum' Proportional Numbers lookup 7 subtable" zero.fitted
EndChar

StartChar: one
Encoding: 49 49 18
Width: 554
GlyphClass: 2
Flags: MW
HStem: 0 21G<281 281 281 354> 672 67<155 281 155 354>
VStem: 281 73<0 672 672 672>
AnchorPoint: "Anchor-0" 277 805 basechar 0
LayerCount: 2
Fore
SplineSet
281 0 m 1
 281 672 l 1
 155 672 l 1
 155 739 l 1
 354 739 l 1
 354 0 l 1
 281 0 l 1
EndSplineSet
Substitution2: "'pnum' Proportional Numbers lookup 7 subtable" one.fitted
EndChar

StartChar: two
Encoding: 50 50 19
Width: 554
GlyphClass: 2
Flags: MW
HStem: 0 67<33 33 133 502> 685 67<239.5 318.5>
VStem: 432 74<509 576>
AnchorPoint: "Anchor-0" 277 805 basechar 0
LayerCount: 2
Fore
SplineSet
33 0 m 1
 33 67 l 1
 292 317 l 2
 358 380 358 380 380 407 c 0
 416 449 432 487 432 531 c 0
 432 621 365 685 272 685 c 0
 207 685 154 652 129 598 c 0
 117 572 112 544 112 500 c 1
 39 500 l 1
 39 552 42 573 55 608 c 0
 89 698 170 752 273 752 c 0
 408 752 506 658 506 527 c 0
 506 448 474 393 370 294 c 2
 133 67 l 1
 502 67 l 1
 502 0 l 1
 33 0 l 1
EndSplineSet
Substitution2: "'pnum' Proportional Numbers lookup 7 subtable" two.fitted
EndChar

StartChar: three
Encoding: 51 51 20
Width: 554
GlyphClass: 2
Flags: MW
HStem: -13 67<243 315.5 243 337.5> 685 67<233 302>
VStem: 381 74<534.5 603> 430 74<173 259>
AnchorPoint: "Anchor-0" 277 805 basechar 0
LayerCount: 2
Fore
SplineSet
155 555 m 1xe0
 82 555 l 1
 86 676 158 752 269 752 c 0
 379 752 455 675 455 565 c 0xe0
 455 504 431 459 379 423 c 1
 462 381 504 313 504 224 c 0
 504 91 402 -13 273 -13 c 0
 181 -13 102 33 62 108 c 0
 43 144 35 180 33 231 c 1
 106 231 l 1
 110 177 118 150 138 122 c 0
 168 79 216 54 270 54 c 0
 361 54 430 126 430 220 c 0xd0
 430 298 379 364 305 382 c 0
 285 386 268 387 219 388 c 1
 219 454 l 1
 248 452 249 452 255 452 c 0
 332 452 381 497 381 569 c 0
 381 637 335 685 269 685 c 0
 197 685 156 638 155 555 c 1xe0
EndSplineSet
Substitution2: "'pnum' Proportional Numbers lookup 7 subtable" three.fitted
EndChar

StartChar: four
Encoding: 52 52 21
Width: 554
GlyphClass: 2
Flags: MW
HStem: 0 21G<386 386 386 459> 135 67<97 386 12 12 459 527> 719 20G<372 459 459 459>
VStem: 386 73<0 135 0 135 202 637 637 637>
AnchorPoint: "Anchor-0" 277 805 basechar 0
LayerCount: 2
Fore
SplineSet
386 0 m 1
 386 135 l 1
 12 135 l 1
 12 202 l 1
 372 739 l 1
 459 739 l 1
 459 202 l 1
 527 202 l 1
 527 135 l 1
 459 135 l 1
 459 0 l 1
 386 0 l 1
386 202 m 1
 386 637 l 1
 97 202 l 1
 386 202 l 1
EndSplineSet
Substitution2: "'pnum' Proportional Numbers lookup 7 subtable" four.fitted
EndChar

StartChar: five
Encoding: 53 53 22
Width: 554
GlyphClass: 2
Flags: MW
HStem: -13 67<230.5 327 230 349.5> 436 67<261 327.5> 672 67<192 466 192 192>
VStem: 454 74<192 300>
AnchorPoint: "Anchor-0" 277 805 basechar 0
LayerCount: 2
Fore
SplineSet
67 375 m 1
 133 739 l 1
 466 739 l 1
 466 672 l 1
 192 672 l 1
 156 468 l 1
 201 493 239 503 283 503 c 0
 421 503 528 391 528 246 c 0
 528 100 419 -13 280 -13 c 0
 181 -13 94 43 51 134 c 0
 38 163 33 183 26 232 c 1
 98 232 l 1
 111 126 183 54 277 54 c 0
 377 54 454 138 454 246 c 0
 454 354 378 436 277 436 c 0
 219 436 169 409 124 353 c 1
 67 375 l 1
EndSplineSet
Substitution2: "'pnum' Proportional Numbers lookup 7 subtable" five.fitted
EndChar

StartChar: six
Encoding: 54 54 23
Width: 554
GlyphClass: 2
Flags: MW
HStem: -13 67<227.5 330.5 227.5 352> 436 67<277.5 329> 719 20G<296 381 381 381>
VStem: 25 74<191 281> 455 74<189.5 301.5>
AnchorPoint: "Anchor-0" 277 805 basechar 0
LayerCount: 2
Fore
SplineSet
296 739 m 1
 381 739 l 1
 207 482 l 1
 240 498 262 503 293 503 c 0
 425 503 529 391 529 249 c 0
 529 97 424 -13 280 -13 c 0
 134 -13 25 97 25 244 c 0
 25 318 42 361 113 467 c 2
 296 739 l 1
276 436 m 0
 176 436 99 354 99 246 c 0
 99 136 176 54 279 54 c 0
 382 54 455 134 455 245 c 0
 455 358 382 436 276 436 c 0
EndSplineSet
Substitution2: "'pnum' Proportional Numbers lookup 7 subtable" six.fitted
EndChar

StartChar: seven
Encoding: 55 55 24
Width: 554
GlyphClass: 2
Flags: MW
HStem: 0 21G<110 110 110 188> 672 67<64 414 64 490 64 490>
AnchorPoint: "Anchor-0" 277 805 basechar 0
LayerCount: 2
Fore
SplineSet
110 0 m 1
 414 672 l 1
 64 672 l 1
 64 739 l 1
 490 739 l 1
 490 672 l 1
 188 0 l 1
 110 0 l 1
EndSplineSet
Substitution2: "'pnum' Proportional Numbers lookup 7 subtable" seven.fitted
EndChar

StartChar: eight
Encoding: 56 56 25
Width: 554
GlyphClass: 2
Flags: MW
HStem: -13 67<231.5 325.5 231.5 347.5> 375 69<244.5 314 244.5 323.5> 685 67<240 312>
VStem: 42 74<167 259.5> 81 74<540.5 600.5 531 615.5> 399 74<530.5 601> 438 74<168.5 263>
AnchorPoint: "Anchor-0" 277 805 basechar 0
LayerCount: 2
Fore
SplineSet
167 413 m 1xf2
 141 428 130 437 117 452 c 0
 94 481 81 520 81 561 c 0
 81 670 166 752 278 752 c 0
 392 752 473 673 473 561 c 0xec
 473 488 445 441 385 413 c 1
 467 377 512 309 512 218 c 0
 512 83 415 -13 280 -13 c 0
 144 -13 42 85 42 215 c 0
 42 304 86 374 167 413 c 1xf2
275 375 m 0xf2
 182 375 116 308 116 213 c 0
 116 121 184 54 279 54 c 0
 372 54 438 121 438 216 c 0
 438 310 372 375 275 375 c 0xf2
275 685 m 0xec
 205 685 155 635 155 566 c 0
 155 496 209 444 280 444 c 0
 348 444 399 496 399 565 c 0
 399 637 349 685 275 685 c 0xec
EndSplineSet
Substitution2: "'pnum' Proportional Numbers lookup 7 subtable" eight.fitted
EndChar

StartChar: nine
Encoding: 57 57 26
Width: 554
GlyphClass: 2
Flags: MW
HStem: 0 21G<173 258 173 173> 236 67<224.5 276.5> 685 67<222 325>
VStem: 25 74<437.5 548.5 437.5 566> 455 74<458 548.5>
AnchorPoint: "Anchor-0" 277 805 basechar 0
LayerCount: 2
Fore
SplineSet
258 0 m 1
 173 0 l 1
 347 257 l 1
 314 241 292 236 261 236 c 0
 129 236 25 348 25 490 c 0
 25 642 130 752 274 752 c 0
 420 752 529 642 529 495 c 0
 529 421 512 378 441 272 c 2
 258 0 l 1
272 685 m 0
 172 685 99 604 99 493 c 0
 99 382 173 303 276 303 c 0
 378 303 455 384 455 493 c 0
 455 604 378 685 272 685 c 0
EndSplineSet
Substitution2: "'pnum' Proportional Numbers lookup 7 subtable" nine.fitted
EndChar

StartChar: colon
Encoding: 58 58 27
Width: 277
GlyphClass: 2
Flags: MW
HStem: 0 126<101 175 101 175> 381 126<101 175 101 175>
VStem: 101 74<0 126 0 126 381 507>
LayerCount: 2
Fore
SplineSet
101 0 m 1
 101 126 l 1
 175 126 l 1
 175 0 l 1
 101 0 l 1
101 381 m 1
 101 507 l 1
 175 507 l 1
 175 381 l 1
 101 381 l 1
EndSplineSet
EndChar

StartChar: semicolon
Encoding: 59 59 28
Width: 277
GlyphClass: 2
Flags: MW
HStem: 381 126<125 199 125 199>
VStem: 125 74<381 507 381 507>
LayerCount: 2
Fore
SplineSet
41 -67 m 1
 129 126 l 1
 203 126 l 1
 115 -67 l 1
 41 -67 l 1
125 381 m 1
 125 507 l 1
 199 507 l 1
 199 381 l 1
 125 381 l 1
EndSplineSet
EndChar

StartChar: less
Encoding: 60 60 29
Width: 606
GlyphClass: 2
Flags: MW
HStem: 545 20G<558 558>
LayerCount: 2
Fore
SplineSet
558 565 m 1
 558 487 l 1
 157 300 l 1
 558 115 l 1
 558 37 l 1
 49 268 l 1
 49 333 l 1
 558 565 l 1
EndSplineSet
EndChar

StartChar: equal
Encoding: 61 61 30
Width: 606
GlyphClass: 2
Flags: MW
HStem: 164 74<51 555 51 555> 362 74<51 555 51 555>
LayerCount: 2
Fore
SplineSet
555 436 m 1
 555 362 l 1
 51 362 l 1
 51 436 l 1
 555 436 l 1
555 238 m 1
 555 164 l 1
 51 164 l 1
 51 238 l 1
 555 238 l 1
EndSplineSet
EndChar

StartChar: greater
Encoding: 62 62 31
Width: 606
GlyphClass: 2
Flags: MW
HStem: 545 20G<48 48>
LayerCount: 2
Fore
SplineSet
48 37 m 1
 48 115 l 1
 450 302 l 1
 48 487 l 1
 48 565 l 1
 557 334 l 1
 557 269 l 1
 48 37 l 1
EndSplineSet
EndChar

StartChar: question
Encoding: 63 63 32
Width: 591
GlyphClass: 2
Flags: MW
HStem: 0 126<261 335 261 335> 685 67<268 343>
VStem: 261 74<0 126 0 126> 451 74<512.5 580>
LayerCount: 2
Fore
SplineSet
261 0 m 1
 261 126 l 1
 335 126 l 1
 335 0 l 1
 261 0 l 1
135 508 m 1
 65 508 l 1
 67 575 77 613 104 654 c 0
 147 717 216 752 299 752 c 0
 430 752 525 661 525 535 c 0
 525 470 501 425 435 365 c 0
 361 300 334 256 333 193 c 1
 263 193 l 1
 264 275 291 328 367 397 c 0
 434 460 451 488 451 537 c 0
 451 623 387 685 299 685 c 0
 237 685 183 655 157 604 c 0
 144 580 139 555 135 508 c 1
EndSplineSet
EndChar

StartChar: at
Encoding: 64 64 33
Width: 867
GlyphClass: 2
Flags: MW
HStem: -13 50<361 498.5 361 505.5> 139 52<566.5 587> 144 58<347 380.5> 539 54<420.5 478 401 486.5> 701 51<361.5 496 346.5 536>
VStem: 71 52<276 459.5 276 474> 219 72<266.5 354.5 266.5 368.5> 747 50<397.5 480 387.5 510>
LayerCount: 2
Fore
SplineSet
656 574 m 1x37
 563 296 l 2
 543 234 543 234 543 219 c 0
 543 202 557 191 576 191 c 0
 602 191 637 209 666 239 c 0
 718 291 747 361 747 434 c 0
 747 586 620 701 452 701 c 0
 271 701 123 551 123 368 c 0
 123 184 269 37 453 37 c 0
 544 37 624 72 687 138 c 1
 727 105 l 1
 664 32 560 -13 451 -13 c 0
 238 -13 71 155 71 367 c 0
 71 581 241 752 452 752 c 0
 540 752 626 721 689 667 c 0
 760 607 797 527 797 433 c 0
 797 342 761 259 695 198 c 0
 652 158 610 139 564 139 c 0xdf
 517 139 492 155 476 196 c 1
 439 159 404 144 357 144 c 0
 276 144 219 205 219 292 c 0
 219 445 339 593 463 593 c 0
 493 593 522 585 543 571 c 0
 559 561 567 549 578 524 c 1
 595 574 l 1
 656 574 l 1x37
463 539 m 0
 378 539 291 415 291 294 c 0
 291 239 323 202 371 202 c 0x37
 418 202 453 231 489 297 c 0
 518 351 540 422 540 462 c 0
 540 509 510 539 463 539 c 0
EndSplineSet
EndChar

StartChar: A
Encoding: 65 65 34
Width: 740
GlyphClass: 2
Flags: MW
HStem: 0 21G<11 11 11 89 648 648 648 729> 249 67<225 512 225 541 197 512> 719 20G<328 411 411 411>
AnchorPoint: "Anchor-0" 370 805 basechar 0
LayerCount: 2
Fore
SplineSet
11 0 m 1
 328 739 l 1
 411 739 l 1
 729 0 l 1
 648 0 l 1
 541 249 l 1
 197 249 l 1
 89 0 l 1
 11 0 l 1
225 316 m 1
 512 316 l 1
 370 655 l 1
 225 316 l 1
EndSplineSet
EndChar

StartChar: B
Encoding: 66 66 35
Width: 574
GlyphClass: 2
Flags: MW
HStem: 0 67<150 251 251 259> 354 67<150 238 150 240> 672 67<150 239 150 150>
VStem: 76 74<67 67 67 354 421 672> 427 75<520.5 568> 469 75<182.5 241>
AnchorPoint: "Anchor-0" 265 805 basechar 0
LayerCount: 2
Fore
SplineSet
76 0 m 1xf4
 76 739 l 1
 249 739 l 2
 339 739 394 726 436 696 c 0
 478 665 502 611 502 547 c 0xf8
 502 474 477 426 420 394 c 1
 506 358 544 303 544 212 c 0
 544 136 513 71 461 39 c 0
 414 11 358 0 259 0 c 2
 76 0 l 1xf4
150 67 m 1
 251 67 l 2
 326 67 376 75 411 94 c 0
 446 112 469 157 469 208 c 0xf4
 469 274 437 323 384 340 c 0
 351 350 314 354 238 354 c 2
 150 354 l 1
 150 67 l 1
150 421 m 1
 240 421 l 2
 307 421 339 426 370 440 c 0
 407 457 427 495 427 546 c 0xf8
 427 590 410 629 384 646 c 0
 356 665 315 672 239 672 c 2
 150 672 l 1
 150 421 l 1
EndSplineSet
EndChar

StartChar: C
Encoding: 67 67 36
Width: 813
GlyphClass: 2
Flags: MW
HStem: -13 68<345 465.5 345 507> 684 68<341.5 461.5>
VStem: 44 75<283 459 283 477.5>
AnchorPoint: "Anchor-0" 427 805 basechar 0
LayerCount: 2
Fore
SplineSet
688 194 m 1
 770 194 l 1
 696 57 582 -13 432 -13 c 0
 211 -13 44 151 44 367 c 0
 44 588 207 752 427 752 c 0
 580 752 710 674 767 547 c 1
 684 547 l 1
 655 593 634 615 599 637 c 0
 550 668 493 684 430 684 c 0
 253 684 119 548 119 370 c 0
 119 196 259 55 431 55 c 0
 500 55 567 78 618 119 c 0
 641 138 659 156 688 194 c 1
EndSplineSet
EndChar

StartChar: D
Encoding: 68 68 37
Width: 744
GlyphClass: 2
Flags: MW
HStem: 0 67<150 253 253 275> 672 67<150 250 250 253 150 150>
VStem: 76 74<67 67 67 672> 625 75<323 426.5>
AnchorPoint: "Anchor-0" 330 805 basechar 0
LayerCount: 2
Fore
SplineSet
76 0 m 1
 76 739 l 1
 250 739 l 2
 388 739 468 722 540 676 c 0
 645 610 700 503 700 367 c 0
 700 226 638 115 522 51 c 0
 458 16 382 0 275 0 c 2
 76 0 l 1
150 67 m 1
 253 67 l 2
 388 67 465 87 525 138 c 0
 589 193 625 276 625 370 c 0
 625 483 573 578 484 628 c 0
 430 659 361 672 253 672 c 2
 150 672 l 1
 150 67 l 1
EndSplineSet
EndChar

StartChar: E
Encoding: 69 69 38
Width: 536
GlyphClass: 2
Flags: MW
HStem: 0 67<150 480 150 480> 340 67<150 469 150 469> 672 67<150 480 150 150>
VStem: 76 74<67 340 407 672>
AnchorPoint: "Anchor-0" 278 805 basechar 0
LayerCount: 2
Fore
SplineSet
76 0 m 1
 76 739 l 1
 480 739 l 1
 480 672 l 1
 150 672 l 1
 150 407 l 1
 469 407 l 1
 469 340 l 1
 150 340 l 1
 150 67 l 1
 480 67 l 1
 480 0 l 1
 76 0 l 1
EndSplineSet
EndChar

StartChar: F
Encoding: 70 70 39
Width: 485
GlyphClass: 2
Flags: MW
HStem: 0 21G<76 76 76 150> 338 67<150 440 150 440> 672 67<150 451 150 150>
VStem: 76 74<0 338 405 672>
AnchorPoint: "Anchor-0" 260 805 basechar 0
LayerCount: 2
Fore
SplineSet
76 0 m 1
 76 739 l 1
 451 739 l 1
 451 672 l 1
 150 672 l 1
 150 405 l 1
 440 405 l 1
 440 338 l 1
 150 338 l 1
 150 0 l 1
 76 0 l 1
EndSplineSet
EndChar

StartChar: G
Encoding: 71 71 40
Width: 872
GlyphClass: 2
Flags: MW
HStem: -13 68<352.5 487 352.5 503> 274 67<329 742 329 831> 684 68<350.5 499>
VStem: 44 75<281 458 281 478>
AnchorPoint: "Anchor-0" 438 805 basechar 0
LayerCount: 2
Fore
SplineSet
329 341 m 1
 831 341 l 1
 826 255 791 174 728 106 c 0
 657 28 560 -13 446 -13 c 0
 219 -13 44 154 44 371 c 0
 44 585 216 752 436 752 c 0
 597 752 737 668 786 542 c 1
 703 542 l 1
 652 632 556 684 442 684 c 0
 259 684 119 547 119 369 c 0
 119 193 262 55 443 55 c 0
 531 55 610 87 668 147 c 0
 708 189 731 228 742 274 c 1
 329 274 l 1
 329 341 l 1
EndSplineSet
EndChar

StartChar: H
Encoding: 72 72 41
Width: 683
GlyphClass: 2
Flags: MW
HStem: 0 21G<76 76 76 150 533 533 533 607> 347 67<150 533 150 533> 719 20G<76 150 150 150 533 607 607 607>
VStem: 76 74<0 347 414 739> 533 74<0 347 347 347 414 739 0 739>
AnchorPoint: "Anchor-0" 341 805 basechar 0
LayerCount: 2
Fore
SplineSet
76 0 m 1
 76 739 l 1
 150 739 l 1
 150 414 l 1
 533 414 l 1
 533 739 l 1
 607 739 l 1
 607 0 l 1
 533 0 l 1
 533 347 l 1
 150 347 l 1
 150 0 l 1
 76 0 l 1
EndSplineSet
EndChar

StartChar: I
Encoding: 73 73 42
Width: 226
GlyphClass: 2
Flags: MW
HStem: 0 21G<76 76 76 150> 719 20G<76 150 150 150>
VStem: 76 74<0 739 0 739>
AnchorPoint: "Anchor-0" 113 805 basechar 0
LayerCount: 2
Fore
SplineSet
76 0 m 1
 76 739 l 1
 150 739 l 1
 150 0 l 1
 76 0 l 1
EndSplineSet
EndChar

StartChar: J
Encoding: 74 74 43
Width: 482
GlyphClass: 2
Flags: MW
HStem: -14 68<173.5 250 173.5 273> 719 20G<332 406 406 406>
VStem: 332 74<231 739>
AnchorPoint: "Anchor-0" 369 805 basechar 0
LayerCount: 2
Fore
SplineSet
406 739 m 1
 406 231 l 2
 406 72 337 -14 209 -14 c 0
 91 -14 17 57 11 175 c 1
 84 175 l 1
 89 100 137 54 210 54 c 0
 290 54 332 114 332 231 c 2
 332 739 l 1
 406 739 l 1
EndSplineSet
EndChar

StartChar: K
Encoding: 75 75 44
Width: 591
GlyphClass: 2
Flags: MW
HStem: 0 21G<76 76 76 150 492 492 492 585> 719 20G<76 150 150 150 492 585 585 585>
VStem: 76 74<0 202 314 739>
AnchorPoint: "Anchor-0" 312 805 basechar 0
LayerCount: 2
Fore
SplineSet
76 0 m 1
 76 739 l 1
 150 739 l 1
 150 314 l 1
 492 739 l 1
 585 739 l 1
 293 379 l 1
 585 0 l 1
 492 0 l 1
 246 320 l 1
 150 202 l 1
 150 0 l 1
 76 0 l 1
EndSplineSet
EndChar

StartChar: L
Encoding: 76 76 45
Width: 462
GlyphClass: 2
Flags: MW
HStem: 0 67<150 456 150 456> 719 20G<76 150 150 150>
VStem: 76 74<67 739 67 739 67 739>
AnchorPoint: "Anchor-0" 113 805 basechar 0
LayerCount: 2
Fore
SplineSet
76 0 m 1
 76 739 l 1
 150 739 l 1
 150 67 l 1
 456 67 l 1
 456 0 l 1
 76 0 l 1
EndSplineSet
EndChar

StartChar: M
Encoding: 77 77 46
Width: 919
GlyphClass: 2
Flags: MW
HStem: 0 21G<76 76 76 150 427 427 427 491 769 769 769 843> 719 20G<76 191 191 191 728 843 843 843>
VStem: 76 74<0 658 0 739> 769 74<0 658 658 658>
AnchorPoint: "Anchor-0" 460 805 basechar 0
LayerCount: 2
Fore
SplineSet
76 0 m 1
 76 739 l 1
 191 739 l 1
 460 110 l 1
 728 739 l 1
 843 739 l 1
 843 0 l 1
 769 0 l 1
 769 658 l 1
 491 0 l 1
 427 0 l 1
 150 658 l 1
 150 0 l 1
 76 0 l 1
EndSplineSet
EndChar

StartChar: N
Encoding: 78 78 47
Width: 740
GlyphClass: 2
Flags: MW
HStem: 0 21G<76 76 76 150 590 590 590 664> 719 20G<76 176 176 176 590 664 664 664>
VStem: 76 74<0 650 0 739> 590 74<0 739 126 739 0 739>
AnchorPoint: "Anchor-0" 370 805 basechar 0
LayerCount: 2
Fore
SplineSet
76 0 m 1
 76 739 l 1
 176 739 l 1
 590 126 l 1
 590 739 l 1
 664 739 l 1
 664 0 l 1
 590 0 l 1
 150 650 l 1
 150 0 l 1
 76 0 l 1
EndSplineSet
EndChar

StartChar: O
Encoding: 79 79 48
Width: 869
GlyphClass: 2
Flags: MW
HStem: -13 68<348.5 521 348.5 542> 684 68<346.5 519.5>
VStem: 44 75<283 454 283 475.5> 750 75<282.5 455.5>
AnchorPoint: "Anchor-0" 434 805 basechar 0
LayerCount: 2
Fore
SplineSet
440 752 m 0
 649 752 825 578 825 369 c 0
 825 159 649 -13 435 -13 c 0
 221 -13 44 160 44 369 c 0
 44 582 220 752 440 752 c 0
431 684 m 0
 262 684 119 539 119 369 c 0
 119 197 262 55 435 55 c 0
 607 55 750 197 750 368 c 0
 750 543 608 684 431 684 c 0
EndSplineSet
EndChar

StartChar: P
Encoding: 80 80 49
Width: 592
GlyphClass: 2
Flags: MW
HStem: 0 21G<76 76 76 150> 299 67<150 287 287 292 150 287> 672 67<150 255 150 150>
VStem: 76 74<0 299 366 672> 490 75<487 552>
AnchorPoint: "Anchor-0" 290 805 basechar 0
LayerCount: 2
Fore
SplineSet
76 0 m 1
 76 739 l 1
 280 739 l 2
 375 739 431 728 477 700 c 0
 533 667 565 600 565 515 c 0
 565 441 539 380 491 345 c 0
 446 312 392 299 292 299 c 2
 150 299 l 1
 150 0 l 1
 76 0 l 1
150 366 m 1
 287 366 l 2
 355 366 398 373 429 391 c 0
 468 412 490 458 490 516 c 0
 490 588 460 639 407 656 c 0
 374 667 328 672 255 672 c 2
 150 672 l 1
 150 366 l 1
EndSplineSet
EndChar

StartChar: Q
Encoding: 81 81 50
Width: 871
GlyphClass: 2
Flags: MW
HStem: -13 68<384.5 474.5 384.5 484> 237 68<259.5 340> 684 68<350.5 533>
VStem: 44 75<349 454 349 478.5> 764 75<327.5 459.5>
AnchorPoint: "Anchor-0" 442 805 basechar 0
LayerCount: 2
Fore
SplineSet
827 56 m 1
 827 -13 l 1
 758 -12 716 4 665 51 c 1
 602 9 525 -13 443 -13 c 0
 221 -13 44 156 44 369 c 0
 44 588 215 752 444 752 c 0
 671 752 839 590 839 371 c 0
 839 257 796 161 716 93 c 1
 753 66 781 55 812 55 c 0
 815 55 820 55 827 56 c 1
161 216 m 1
 213 119 326 55 443 55 c 0
 506 55 556 69 605 100 c 1
 498 198 403 237 277 237 c 0
 230 237 201 232 161 216 c 1
130 279 m 1
 187 298 231 305 288 305 c 0
 395 305 487 276 572 215 c 0
 601 193 629 171 663 142 c 1
 731 208 764 284 764 371 c 0
 764 548 624 684 442 684 c 0
 259 684 119 545 119 363 c 0
 119 335 122 316 130 279 c 1
EndSplineSet
EndChar

StartChar: R
Encoding: 82 82 51
Width: 607
GlyphClass: 2
Flags: MW
HStem: 0 21G<76 150 76 76 474 566 474 474> 672 67<150 254 150 150>
VStem: 76 74<0 672 0 739 0 739> 502 75<462.5 537>
AnchorPoint: "Anchor-0" 300 805 basechar 0
LayerCount: 2
Fore
SplineSet
359 276 m 1
 566 0 l 1
 474 0 l 1
 225 335 l 1
 315 335 360 339 395 349 c 0
 466 370 502 422 502 503 c 0
 502 571 474 621 424 645 c 0
 384 664 332 672 254 672 c 2
 150 672 l 1
 150 0 l 1
 76 0 l 1
 76 739 l 1
 259 739 l 2
 360 739 424 727 471 701 c 0
 540 661 577 592 577 502 c 0
 577 370 501 291 359 276 c 1
EndSplineSet
EndChar

StartChar: S
Encoding: 83 83 52
Width: 498
GlyphClass: 2
Flags: MW
HStem: -13 68<232 297.5 232 317> 684 68<212 286.5>
VStem: 46 75<538 592.5 538 611> 401 75<159.5 224.5>
AnchorPoint: "Anchor-0" 259 805 basechar 0
LayerCount: 2
Fore
SplineSet
22 207 m 1
 101 207 l 1
 106 160 116 133 138 107 c 0
 165 74 209 55 255 55 c 0
 340 55 401 117 401 202 c 0
 401 247 383 285 351 308 c 0
 326 325 294 339 236 356 c 0
 149 383 127 394 98 422 c 0
 65 453 46 502 46 553 c 0
 46 669 132 752 251 752 c 0
 372 752 455 672 458 552 c 1
 381 552 l 1
 376 632 324 684 249 684 c 0
 175 684 121 630 121 555 c 0
 121 521 135 488 156 469 c 0
 176 452 198 443 265 423 c 0
 341 400 372 386 403 364 c 0
 449 329 476 271 476 206 c 0
 476 80 381 -13 253 -13 c 0
 120 -13 29 74 22 207 c 1
EndSplineSet
EndChar

StartChar: T
Encoding: 84 84 53
Width: 426
GlyphClass: 2
Flags: MW
HStem: 0 21G<176 176 176 250> 672 67<7 176 7 419 250 250 250 419>
VStem: 176 74<0 672 0 672>
AnchorPoint: "Anchor-0" 213 805 basechar 0
LayerCount: 2
Fore
SplineSet
176 0 m 1
 176 672 l 1
 7 672 l 1
 7 739 l 1
 419 739 l 1
 419 672 l 1
 250 672 l 1
 250 0 l 1
 176 0 l 1
EndSplineSet
EndChar

StartChar: U
Encoding: 85 85 54
Width: 655
GlyphClass: 2
Flags: MW
HStem: -13 68<297 357.5 297 368.5> 719 20G<76 150 150 150 505 579 579 579>
VStem: 76 74<278 739> 505 74<278 739>
AnchorPoint: "Anchor-0" 327 805 basechar 0
LayerCount: 2
Fore
SplineSet
76 739 m 1
 150 739 l 1
 150 278 l 2
 150 211 161 160 184 125 c 0
 212 82 267 55 327 55 c 0
 388 55 443 82 471 125 c 0
 494 160 505 211 505 278 c 2
 505 739 l 1
 579 739 l 1
 579 278 l 2
 579 183 564 127 527 78 c 0
 483 20 410 -13 327 -13 c 0
 245 -13 172 20 128 78 c 0
 91 127 76 183 76 278 c 2
 76 739 l 1
EndSplineSet
EndChar

StartChar: V
Encoding: 86 86 55
Width: 702
GlyphClass: 2
Flags: MW
HStem: 0 21G<314 314 314 386> 719 20G<10 91 91 91 612 692 692 692>
AnchorPoint: "Anchor-0" 351 805 basechar 0
LayerCount: 2
Fore
SplineSet
314 0 m 1
 10 739 l 1
 91 739 l 1
 351 92 l 1
 612 739 l 1
 692 739 l 1
 386 0 l 1
 314 0 l 1
EndSplineSet
EndChar

StartChar: W
Encoding: 87 87 56
Width: 960
GlyphClass: 2
Flags: MW
HStem: 0 21G<221 221 221 317 643 643 643 738> 719 20G<10 86 86 86 445 515 515 515 874 950 950 950>
AnchorPoint: "Anchor-0" 480 805 basechar 0
LayerCount: 2
Fore
SplineSet
221 0 m 1
 10 739 l 1
 86 739 l 1
 268 96 l 1
 445 739 l 1
 515 739 l 1
 692 96 l 1
 874 739 l 1
 950 739 l 1
 738 0 l 1
 643 0 l 1
 479 606 l 1
 317 0 l 1
 221 0 l 1
EndSplineSet
EndChar

StartChar: X
Encoding: 88 88 57
Width: 609
GlyphClass: 2
Flags: MW
HStem: 0 21G<8 8 8 95 514 514 514 601> 719 20G<22 109 109 109 500 586 586 586>
AnchorPoint: "Anchor-0" 304 805 basechar 0
LayerCount: 2
Fore
SplineSet
8 0 m 1
 259 378 l 1
 22 739 l 1
 109 739 l 1
 305 443 l 1
 500 739 l 1
 586 739 l 1
 349 378 l 1
 601 0 l 1
 514 0 l 1
 305 316 l 1
 95 0 l 1
 8 0 l 1
EndSplineSet
EndChar

StartChar: Y
Encoding: 89 89 58
Width: 592
GlyphClass: 2
Flags: MW
HStem: 0 21G<258 258 258 332> 719 20G<2 84 84 84 509 590 590 590>
VStem: 258 74<0 247 0 247>
AnchorPoint: "Anchor-0" 296 805 basechar 0
LayerCount: 2
Fore
SplineSet
258 0 m 1
 258 247 l 1
 2 739 l 1
 84 739 l 1
 294 325 l 1
 509 739 l 1
 590 739 l 1
 332 247 l 1
 332 0 l 1
 258 0 l 1
EndSplineSet
EndChar

StartChar: Z
Encoding: 90 90 59
Width: 480
GlyphClass: 2
Flags: MW
HStem: 0 67<17 17 101 474> 672 67<28 380 28 463 28 463>
AnchorPoint: "Anchor-0" 249 805 basechar 0
LayerCount: 2
Fore
SplineSet
17 0 m 1
 17 67 l 1
 380 672 l 1
 28 672 l 1
 28 739 l 1
 463 739 l 1
 463 672 l 1
 101 67 l 1
 474 67 l 1
 474 0 l 1
 17 0 l 1
EndSplineSet
EndChar

StartChar: bracketleft
Encoding: 91 91 60
Width: 351
GlyphClass: 2
Flags: MW
HStem: 719 20G<313 313>
VStem: 112 70<164 177 177 448>
LayerCount: 2
Fore
SplineSet
313 -50 m 1
 313 -125 l 1
 256 -109 212 -81 175 -38 c 0
 130 13 112 70 112 164 c 2
 112 462 l 2
 112 551 136 616 190 668 c 0
 227 705 262 726 313 739 c 1
 313 664 l 1
 215 621 182 566 182 448 c 2
 182 177 l 2
 182 49 214 -6 313 -50 c 1
EndSplineSet
EndChar

StartChar: backslash
Encoding: 92 92 61
Width: 605
GlyphClass: 2
Flags: MW
HStem: 0 21G<394 464 394 394> 719 20G<84 154 154 154>
LayerCount: 2
Fore
SplineSet
464 0 m 1
 394 0 l 1
 84 739 l 1
 154 739 l 1
 464 0 l 1
EndSplineSet
EndChar

StartChar: bracketright
Encoding: 93 93 62
Width: 351
GlyphClass: 2
Flags: MW
HStem: 719 20G<38 38>
VStem: 169 70<166 438 438 450>
LayerCount: 2
Fore
SplineSet
38 664 m 1
 38 739 l 1
 95 723 139 695 176 653 c 0
 221 602 239 544 239 450 c 2
 239 153 l 2
 239 63 215 -1 161 -54 c 0
 124 -91 89 -111 38 -125 c 1
 38 -50 l 1
 136 -6 169 48 169 166 c 2
 169 438 l 2
 169 565 137 620 38 664 c 1
EndSplineSet
EndChar

StartChar: asciicircum
Encoding: 94 94 63
Width: 606
GlyphClass: 2
Flags: MW
HStem: 719 20G<261 346 346 346>
LayerCount: 2
Fore
SplineSet
588 180 m 1
 507 180 l 1
 304 660 l 1
 99 180 l 1
 18 180 l 1
 261 739 l 1
 346 739 l 1
 588 180 l 1
EndSplineSet
EndChar

StartChar: underscore
Encoding: 95 95 64
Width: 500
GlyphClass: 2
Flags: MW
HStem: -125 58<0 500 0 500>
LayerCount: 2
Fore
SplineSet
0 -67 m 1
 500 -67 l 1
 500 -125 l 1
 0 -125 l 1
 0 -67 l 1
EndSplineSet
EndChar

StartChar: grave
Encoding: 96 96 65
Width: 378
GlyphClass: 2
Flags: W
LayerCount: 2
Fore
SplineSet
106 776 m 1
 304 666 l 1
 271 610 l 1
 74 718 l 1
 106 776 l 1
EndSplineSet
EndChar

StartChar: a
Encoding: 97 97 66
Width: 683
GlyphClass: 2
Flags: MW
HStem: -13 68<274.5 382.5> 492 68<270.5 377.5 248 391> 527 20G<546 620 620 620>
VStem: 42 75<213.5 335 213.5 354> 546 74<0 96 96 96 213 337 450 547 0 547>
AnchorPoint: "Anchor-0" 351 623 basechar 0
LayerCount: 2
Fore
SplineSet
620 547 m 1xb8
 620 0 l 1
 546 0 l 1
 546 96 l 1
 488 18 429 -13 336 -13 c 0
 167 -13 42 108 42 272 c 0
 42 436 166 560 330 560 c 0xd8
 425 560 491 527 546 450 c 1
 546 547 l 1
 620 547 l 1xb8
329 492 m 0
 212 492 117 395 117 275 c 0
 117 152 214 55 335 55 c 0
 454 55 546 151 546 275 c 0
 546 399 453 492 329 492 c 0
EndSplineSet
EndChar

StartChar: b
Encoding: 98 98 67
Width: 682
GlyphClass: 2
Flags: MW
HStem: -13 68<306 410.5 288.5 433.5> 492 68<306 410> 719 20G<63 137 137 137>
VStem: 63 74<0 94 453 739> 565 75<212 338>
AnchorPoint: "Anchor-0" 331 805 basechar 0
LayerCount: 2
Fore
SplineSet
63 0 m 1
 63 739 l 1
 137 739 l 1
 137 453 l 1
 184 522 260 560 352 560 c 0
 514 560 640 435 640 274 c 0
 640 110 516 -13 351 -13 c 0
 261 -13 183 26 137 94 c 1
 137 0 l 1
 63 0 l 1
347 492 m 0
 226 492 132 396 132 273 c 0
 132 152 228 55 349 55 c 0
 472 55 565 149 565 275 c 0
 565 401 473 492 347 492 c 0
EndSplineSet
EndChar

StartChar: c
Encoding: 99 99 68
Width: 647
GlyphClass: 2
Flags: MW
HStem: -13 68<275.5 373> 492 68<273 374.5>
VStem: 42 75<212 334.5 212 354.5>
AnchorPoint: "Anchor-0" 335 623 basechar 0
LayerCount: 2
Fore
SplineSet
524 161 m 1
 608 161 l 1
 577 103 555 74 518 46 c 0
 468 7 406 -13 340 -13 c 0
 172 -13 42 112 42 275 c 0
 42 434 171 560 335 560 c 0
 459 560 563 491 607 381 c 1
 524 381 l 1
 482 453 415 492 334 492 c 0
 212 492 117 396 117 273 c 0
 117 151 214 55 337 55 c 0
 415 55 467 85 524 161 c 1
EndSplineSet
EndChar

StartChar: d
Encoding: 100 100 69
Width: 685
GlyphClass: 2
Flags: MW
HStem: -13 68<276 386> 492 68<269.5 376 250 390.5> 719 20G<548 622 622 622>
VStem: 42 75<212.5 334.5 212.5 354> 548 74<0 99 99 99 460 739 0 739>
AnchorPoint: "Anchor-0" 354 805 basechar 0
LayerCount: 2
Fore
SplineSet
622 739 m 1
 622 0 l 1
 548 0 l 1
 548 99 l 1
 492 20 432 -13 340 -13 c 0
 171 -13 42 110 42 272 c 0
 42 436 167 560 333 560 c 0
 419 560 494 525 548 460 c 1
 548 739 l 1
 622 739 l 1
328 492 m 0
 211 492 117 395 117 274 c 0
 117 151 214 55 338 55 c 0
 455 55 551 154 551 275 c 0
 551 396 453 492 328 492 c 0
EndSplineSet
EndChar

StartChar: e
Encoding: 101 101 70
Width: 650
GlyphClass: 2
Flags: MW
HStem: -13 68<272.5 370.5 272.5 390.5> 249 67<118 537 118 611 116 537> 492 68<273 378>
AnchorPoint: "Anchor-0" 329 623 basechar 0
LayerCount: 2
Fore
SplineSet
611 249 m 1
 116 249 l 1
 122 141 216 55 329 55 c 0
 412 55 489 105 520 180 c 1
 597 180 l 1
 557 65 450 -13 331 -13 c 0
 169 -13 42 114 42 276 c 0
 42 435 167 560 325 560 c 0
 433 560 530 503 578 411 c 0
 602 365 611 322 611 249 c 1
118 316 m 1
 537 316 l 1
 512 425 431 492 325 492 c 0
 221 492 138 421 118 316 c 1
EndSplineSet
EndChar

StartChar: f
Encoding: 102 102 71
Width: 314
GlyphClass: 2
Flags: MW
HStem: 0 21G<101 101 101 175> 480 67<16 101 16 101 175 311> 719 20G<240.5 311>
VStem: 101 74<0 480 0 480 547 593>
AnchorPoint: "Anchor-0" 182 805 basechar 0
LayerCount: 2
Fore
SplineSet
101 0 m 1
 101 480 l 1
 16 480 l 1
 16 547 l 1
 101 547 l 1
 101 677 170 739 311 739 c 1
 311 672 l 1
 209 672 175 639 175 547 c 1
 311 547 l 1
 311 480 l 1
 175 480 l 1
 175 0 l 1
 101 0 l 1
EndSplineSet
EndChar

StartChar: g
Encoding: 103 103 72
Width: 673
GlyphClass: 2
Flags: MW
HStem: -215 68<305.5 377.5 305.5 384.5> -13 68<267 376.5> 492 68<262.5 367.5 241 382>
VStem: 42 75<213.5 338 213.5 354> 536 74<74 98 98 111 111 111 215.5 340.5 450 547>
AnchorPoint: "Anchor-0" 331 623 basechar 0
LayerCount: 2
Fore
SplineSet
610 547 m 1
 610 98 l 2
 610 -9 596 -67 559 -117 c 0
 512 -180 432 -215 337 -215 c 0
 199 -215 102 -145 62 -17 c 1
 134 -17 l 1
 158 -60 170 -77 190 -95 c 0
 229 -130 276 -147 335 -147 c 0
 420 -147 485 -111 514 -48 c 0
 530 -14 536 20 536 74 c 2
 536 111 l 1
 493 27 426 -13 327 -13 c 0
 166 -13 42 111 42 271 c 0
 42 437 161 560 321 560 c 0
 414 560 481 526 536 450 c 1
 536 547 l 1
 610 547 l 1
320 492 m 0
 205 492 117 399 117 277 c 0
 117 150 207 55 327 55 c 0
 446 55 536 152 536 279 c 0
 536 402 444 492 320 492 c 0
EndSplineSet
EndChar

StartChar: h
Encoding: 104 104 73
Width: 610
GlyphClass: 2
Flags: MW
HStem: 0 21G<63 63 63 137 473 473 473 547> 492 68<275.5 329.5> 719 20G<63 137 137 137>
VStem: 63 74<0 300 476 739> 473 74<0 294 0 327>
AnchorPoint: "Anchor-0" 288 805 basechar 0
LayerCount: 2
Fore
SplineSet
63 0 m 1
 63 739 l 1
 137 739 l 1
 137 476 l 1
 174 530 236 560 310 560 c 0
 390 560 459 529 500 476 c 0
 532 432 547 376 547 294 c 2
 547 0 l 1
 473 0 l 1
 473 294 l 2
 473 360 461 403 433 436 c 0
 404 471 355 492 304 492 c 0
 247 492 194 465 165 421 c 0
 145 391 137 357 137 300 c 2
 137 0 l 1
 63 0 l 1
EndSplineSet
EndChar

StartChar: i
Encoding: 105 105 74
Width: 200
GlyphClass: 2
Flags: MW
HStem: 0 21G<63 63 63 137> 527 20G<63 137 137 137> 613 126<63 137 63 137>
VStem: 63 74<0 547 0 547 613 739>
AnchorPoint: "Anchor-0" 100 805 basechar 0
LayerCount: 2
Fore
SplineSet
63 0 m 1
 63 547 l 1
 137 547 l 1
 137 0 l 1
 63 0 l 1
63 613 m 1
 63 739 l 1
 137 739 l 1
 137 613 l 1
 63 613 l 1
EndSplineSet
Substitution2: "Single Substitution lookup 5 subtable" i.dotless
EndChar

StartChar: j
Encoding: 106 106 75
Width: 203
GlyphClass: 2
Flags: MW
HStem: -192 21G<-45 -45> 527 20G<66 140 140 140> 613 126<66 140 66 140>
VStem: 66 74<38 547 613 739>
AnchorPoint: "Anchor-0" 103 805 basechar 0
LayerCount: 2
Fore
SplineSet
140 547 m 1
 140 38 l 2
 140 -72 122 -118 65 -158 c 0
 33 -180 1 -190 -45 -192 c 1
 -45 -121 l 1
 38 -116 66 -76 66 38 c 2
 66 547 l 1
 140 547 l 1
66 613 m 1
 66 739 l 1
 140 739 l 1
 140 613 l 1
 66 613 l 1
EndSplineSet
Substitution2: "Single Substitution lookup 5 subtable" j.dotless
EndChar

StartChar: k
Encoding: 107 107 76
Width: 502
GlyphClass: 2
Flags: MW
HStem: 0 21G<63 63 63 137 405 405 405 497> 527 20G<392 483 483 483> 719 20G<63 137 137 137>
VStem: 63 74<0 113 215 739>
AnchorPoint: "Anchor-0" 248 805 basechar 0
LayerCount: 2
Fore
SplineSet
63 0 m 1
 63 739 l 1
 137 739 l 1
 137 215 l 1
 392 547 l 1
 483 547 l 1
 270 272 l 1
 497 0 l 1
 405 0 l 1
 223 219 l 1
 137 113 l 1
 137 0 l 1
 63 0 l 1
EndSplineSet
EndChar

StartChar: l
Encoding: 108 108 77
Width: 200
GlyphClass: 2
Flags: MW
HStem: 0 21G<63 63 63 137> 719 20G<63 137 137 137>
VStem: 63 74<0 739 0 739>
AnchorPoint: "Anchor-0" 100 805 basechar 0
LayerCount: 2
Fore
SplineSet
63 0 m 1
 63 739 l 1
 137 739 l 1
 137 0 l 1
 63 0 l 1
EndSplineSet
EndChar

StartChar: m
Encoding: 109 109 78
Width: 938
GlyphClass: 2
Flags: MW
HStem: 0 21G<63 63 63 137 432 432 432 506 801 801 801 875> 492 68<256.5 306 629.5 679> 527 20G<63 137 137 137>
VStem: 63 74<0 319 484 547> 432 74<0 317 0 319 0 348.5> 801 74<0 317 317 325 0 345.5>
CounterMasks: 1 1c
AnchorPoint: "Anchor-0" 469 623 basechar 0
LayerCount: 2
Fore
SplineSet
63 0 m 1xdc
 63 547 l 1
 137 547 l 1xbc
 137 484 l 1
 180 539 222 560 291 560 c 0
 374 560 427 529 470 455 c 1
 516 528 575 560 659 560 c 0
 733 560 796 531 834 479 c 0
 863 440 875 394 875 325 c 2
 875 0 l 1
 801 0 l 1
 801 317 l 2
 801 374 790 415 768 443 c 0
 744 474 702 492 656 492 c 0
 603 492 555 467 529 426 c 0
 513 400 506 367 506 317 c 2
 506 0 l 1
 432 0 l 1
 432 319 l 2
 432 378 421 416 395 445 c 0
 368 475 328 492 284 492 c 0
 192 492 137 428 137 319 c 2
 137 0 l 1
 63 0 l 1xdc
EndSplineSet
EndChar

StartChar: n
Encoding: 110 110 79
Width: 610
GlyphClass: 2
Flags: MW
HStem: 0 21G<63 63 63 137 473 473 473 547> 492 68<277 330.5> 527 20G<63 137 137 137>
VStem: 63 74<0 301 476 547> 473 74<0 287 0 324>
AnchorPoint: "Anchor-0" 305 623 basechar 0
LayerCount: 2
Fore
SplineSet
63 0 m 1xd8
 63 547 l 1
 137 547 l 1xb8
 137 476 l 1
 183 533 241 560 313 560 c 0
 390 560 456 530 499 475 c 0
 534 428 547 379 547 287 c 2
 547 0 l 1
 473 0 l 1
 473 287 l 2
 473 361 462 402 434 436 c 0
 404 472 357 492 304 492 c 0
 244 492 192 466 163 422 c 0
 144 392 137 360 137 301 c 2
 137 0 l 1
 63 0 l 1xd8
EndSplineSet
EndChar

StartChar: o
Encoding: 111 111 80
Width: 655
GlyphClass: 2
Flags: MW
HStem: -13 68<270 392 270 414.5> 492 68<266 388>
VStem: 42 75<209.5 335 209.5 356> 538 75<208 335.5>
AnchorPoint: "Anchor-0" 327 623 basechar 0
LayerCount: 2
Fore
SplineSet
332 560 m 0
 493 560 613 437 613 272 c 0
 613 108 495 -13 334 -13 c 0
 167 -13 42 109 42 273 c 0
 42 439 164 560 332 560 c 0
326 492 m 0
 206 492 117 398 117 272 c 0
 117 147 208 55 332 55 c 0
 452 55 538 145 538 271 c 0
 538 400 450 492 326 492 c 0
EndSplineSet
EndChar

StartChar: p
Encoding: 112 112 81
Width: 682
GlyphClass: 2
Flags: MW
HStem: -192 21G<63 137 63 63> -13 68<304.5 410.5 287.5 432> 492 68<305 409.5>
VStem: 63 74<-192 94 453 547> 565 75<209.5 335.5>
AnchorPoint: "Anchor-0" 335 623 basechar 0
LayerCount: 2
Fore
SplineSet
63 547 m 1
 137 547 l 1
 137 453 l 1
 183 523 258 560 352 560 c 0
 515 560 640 436 640 273 c 0
 640 112 514 -13 350 -13 c 0
 259 -13 185 24 137 94 c 1
 137 -192 l 1
 63 -192 l 1
 63 547 l 1
346 492 m 0
 226 492 132 396 132 273 c 0
 132 150 226 55 349 55 c 0
 472 55 565 148 565 271 c 0
 565 400 473 492 346 492 c 0
EndSplineSet
EndChar

StartChar: q
Encoding: 113 113 82
Width: 682
GlyphClass: 2
Flags: MW
HStem: -192 21G<545 619 545 545> -13 68<271.5 377.5> 492 68<270 377 248.5 393.5>
VStem: 42 75<210 334.5 210 354.5> 545 74<-192 94 94 94 453 547 -192 547>
AnchorPoint: "Anchor-0" 342 623 basechar 0
LayerCount: 2
Fore
SplineSet
619 547 m 1
 619 -192 l 1
 545 -192 l 1
 545 94 l 1
 497 24 423 -13 332 -13 c 0
 168 -13 42 112 42 273 c 0
 42 436 167 560 330 560 c 0
 424 560 499 523 545 453 c 1
 545 547 l 1
 619 547 l 1
331 492 m 0
 209 492 117 397 117 272 c 0
 117 148 210 55 333 55 c 0
 456 55 550 150 550 273 c 0
 550 398 456 492 331 492 c 0
EndSplineSet
EndChar

StartChar: r
Encoding: 114 114 83
Width: 301
GlyphClass: 2
Flags: MW
HStem: 0 21G<63 63 63 137> 527 20G<63 137 137 137> 540 20G<292 292>
VStem: 63 74<0 319 469 547>
AnchorPoint: "Anchor-0" 174 623 basechar 0
LayerCount: 2
Fore
SplineSet
63 0 m 1xb0
 63 547 l 1
 137 547 l 1xd0
 137 469 l 1
 166 529 213 556 292 560 c 1
 292 487 l 1
 189 477 137 421 137 319 c 2
 137 0 l 1
 63 0 l 1xb0
EndSplineSet
EndChar

StartChar: s
Encoding: 115 115 84
Width: 388
GlyphClass: 2
Flags: MW
HStem: -13 68<163 221 163 243.5> 492 68<170 216>
VStem: 38 75<397 435 397 450.5> 286 75<122.5 175>
AnchorPoint: "Anchor-0" 194 623 basechar 0
LayerCount: 2
Fore
SplineSet
18 161 m 1
 91 161 l 1
 95 93 132 55 194 55 c 0
 248 55 286 95 286 150 c 0
 286 200 266 220 180 255 c 0
 103 287 102 287 79 308 c 0
 52 333 38 366 38 406 c 0
 38 495 103 560 193 560 c 0
 281 560 344 500 347 412 c 1
 272 412 l 1
 268 464 240 492 192 492 c 0
 148 492 113 457 113 413 c 0
 113 381 129 358 164 340 c 0
 180 333 184 331 266 297 c 0
 330 270 361 224 361 157 c 0
 361 57 293 -13 194 -13 c 0
 88 -13 19 55 18 161 c 1
EndSplineSet
EndChar

StartChar: t
Encoding: 116 116 85
Width: 339
GlyphClass: 2
Flags: MW
HStem: 0 21G<130 130 130 204> 480 67<12 130 12 130 204 327> 719 20G<130 204 204 204>
VStem: 130 74<0 480 0 480 547 739>
AnchorPoint: "Anchor-0" 170 805 basechar 0
LayerCount: 2
Fore
SplineSet
130 0 m 1
 130 480 l 1
 12 480 l 1
 12 547 l 1
 130 547 l 1
 130 739 l 1
 204 739 l 1
 204 547 l 1
 327 547 l 1
 327 480 l 1
 204 480 l 1
 204 0 l 1
 130 0 l 1
EndSplineSet
EndChar

StartChar: u
Encoding: 117 117 86
Width: 608
GlyphClass: 2
Flags: MW
HStem: -13 68<270.5 329 270.5 337.5> 527 20G<63 137 137 137 471 545 545 545>
VStem: 63 74<252 547> 471 74<0 85 85 85 266 547 0 547>
AnchorPoint: "Anchor-0" 304 623 basechar 0
LayerCount: 2
Fore
SplineSet
545 547 m 1
 545 0 l 1
 471 0 l 1
 471 85 l 1
 434 17 380 -13 295 -13 c 0
 210 -13 143 19 103 79 c 0
 75 119 63 173 63 252 c 2
 63 547 l 1
 137 547 l 1
 137 252 l 2
 137 194 146 149 165 120 c 0
 191 79 241 55 300 55 c 0
 358 55 407 79 438 123 c 0
 461 157 471 199 471 266 c 2
 471 547 l 1
 545 547 l 1
EndSplineSet
EndChar

StartChar: v
Encoding: 118 118 87
Width: 554
GlyphClass: 2
Flags: MW
HStem: 0 21G<238 238 238 316> 527 20G<8 83 83 83 471 546 546 546>
AnchorPoint: "Anchor-0" 277 623 basechar 0
LayerCount: 2
Fore
SplineSet
238 0 m 1
 8 547 l 1
 83 547 l 1
 275 87 l 1
 471 547 l 1
 546 547 l 1
 316 0 l 1
 238 0 l 1
EndSplineSet
EndChar

StartChar: w
Encoding: 119 119 88
Width: 831
GlyphClass: 2
Flags: MW
HStem: 0 21G<216 216 216 296 533 533 533 612> 527 20G<7 81 81 81 752 824 824 824>
AnchorPoint: "Anchor-0" 415 623 basechar 0
LayerCount: 2
Fore
SplineSet
216 0 m 1
 7 547 l 1
 81 547 l 1
 255 89 l 1
 384 480 l 1
 445 480 l 1
 574 89 l 1
 752 547 l 1
 824 547 l 1
 612 0 l 1
 533 0 l 1
 414 363 l 1
 296 0 l 1
 216 0 l 1
EndSplineSet
EndChar

StartChar: x
Encoding: 120 120 89
Width: 480
GlyphClass: 2
Flags: MW
HStem: 0 21G<8 8 8 92 387 387 387 472> 527 20G<8 92 92 92 387 472 472 472>
AnchorPoint: "Anchor-0" 240 623 basechar 0
LayerCount: 2
Fore
SplineSet
8 0 m 1
 198 279 l 1
 8 547 l 1
 92 547 l 1
 240 336 l 1
 387 547 l 1
 472 547 l 1
 281 279 l 1
 472 0 l 1
 387 0 l 1
 240 219 l 1
 92 0 l 1
 8 0 l 1
EndSplineSet
EndChar

StartChar: y
Encoding: 121 121 90
Width: 536
GlyphClass: 2
Flags: MW
HStem: -192 21G<132 132 132 211> 527 20G<9 90 90 90 448 527 527 527>
AnchorPoint: "Anchor-0" 265 623 basechar 0
LayerCount: 2
Fore
SplineSet
132 -192 m 1
 221 18 l 1
 9 547 l 1
 90 547 l 1
 263 111 l 1
 448 547 l 1
 527 547 l 1
 211 -192 l 1
 132 -192 l 1
EndSplineSet
EndChar

StartChar: z
Encoding: 122 122 91
Width: 425
GlyphClass: 2
Flags: MW
HStem: 0 67<10 10 97 415> 480 67<20 312 20 396>
AnchorPoint: "Anchor-0" 212 623 basechar 0
LayerCount: 2
Fore
SplineSet
10 0 m 1
 10 67 l 1
 312 480 l 1
 20 480 l 1
 20 547 l 1
 396 547 l 1
 396 484 l 1
 97 67 l 1
 415 67 l 1
 415 0 l 1
 10 0 l 1
EndSplineSet
EndChar

StartChar: braceleft
Encoding: 123 123 92
Width: 351
GlyphClass: 2
Flags: MW
HStem: 719 20G<292 292>
VStem: 137 77<13 182 430 431 431 600 600 601>
LayerCount: 2
Fore
SplineSet
125 306 m 1
 143 300 l 2
 197 279 214 251 214 182 c 2
 214 12 l 2
 214 -39 228 -53 281 -58 c 2
 292 -59 l 1
 292 -126 l 1
 225 -125 207 -121 183 -105 c 0
 152 -85 137 -47 137 13 c 2
 137 183 l 2
 137 245 123 260 58 272 c 1
 58 341 l 1
 123 352 137 368 137 430 c 2
 137 600 l 2
 137 660 152 698 183 718 c 0
 207 734 225 737 292 739 c 1
 292 672 l 1
 252 668 246 667 237 662 c 0
 222 654 214 631 214 601 c 2
 214 431 l 2
 214 362 197 333 143 313 c 0
 137 311 131 309 125 306 c 1
EndSplineSet
EndChar

StartChar: bar
Encoding: 124 124 93
Width: 672
GlyphClass: 2
Flags: MW
HStem: 0 21G<304 368 304 304> 719 20G<304 368 368 368>
VStem: 304 64<0 739 0 739>
LayerCount: 2
Fore
SplineSet
368 739 m 1
 368 0 l 1
 304 0 l 1
 304 739 l 1
 368 739 l 1
EndSplineSet
EndChar

StartChar: braceright
Encoding: 125 125 94
Width: 348
GlyphClass: 2
Flags: MW
HStem: 719 20G<59 59>
VStem: 137 77<12 13 13 182 182 183 431 600>
LayerCount: 2
Fore
SplineSet
226 306 m 1
 208 313 l 2
 154 334 137 362 137 431 c 2
 137 601 l 2
 137 624 131 645 122 656 c 0
 114 665 102 668 70 671 c 2
 59 672 l 1
 59 739 l 1
 137 737 162 730 187 702 c 0
 204 683 214 646 214 600 c 2
 214 430 l 2
 214 368 227 352 290 341 c 1
 290 272 l 1
 227 261 214 245 214 183 c 2
 214 13 l 2
 214 -40 202 -78 178 -98 c 0
 153 -119 131 -125 59 -126 c 1
 59 -59 l 1
 70 -58 l 2
 106 -55 118 -51 126 -38 c 0
 133 -27 137 -8 137 12 c 2
 137 182 l 2
 137 251 154 279 208 300 c 2
 226 306 l 1
EndSplineSet
EndChar

StartChar: asciitilde
Encoding: 126 126 95
Width: 606
GlyphClass: 2
Flags: MW
HStem: 231 77<406 432 406 440.5> 300 77<181 204>
LayerCount: 2
Fore
SplineSet
511 390 m 1x80
 555 343 l 1
 521 275 466 231 415 231 c 0x80
 392 231 366 238 322 257 c 2
 267 279 l 2
 224 297 214 300 194 300 c 0
 168 300 145 287 128 265 c 0
 117 250 112 242 93 210 c 1
 51 257 l 1
 99 343 138 377 194 377 c 0x40
 215 377 241 371 271 358 c 2
 336 331 l 2
 380 313 396 308 416 308 c 0
 448 308 477 332 511 390 c 1x80
EndSplineSet
EndChar

StartChar: afii10023
Encoding: 161 1025 97
Width: 536
GlyphClass: 2
Flags: MW
HStem: 0 67<150 480 150 480> 340 67<150 469 150 469> 672 67<150 480 150 150> 805 126<168 242 168 242 168 315 315 389>
VStem: 76 74<67 340 407 672>
AnchorPoint: "Anchor-0" 278 987 basechar 0
LayerCount: 2
Fore
SplineSet
76 0 m 1
 76 739 l 1
 480 739 l 1
 480 672 l 1
 150 672 l 1
 150 407 l 1
 469 407 l 1
 469 340 l 1
 150 340 l 1
 150 67 l 1
 480 67 l 1
 480 0 l 1
 76 0 l 1
168 931 m 1
 242 931 l 1
 242 805 l 1
 168 805 l 1
 168 931 l 1
315 931 m 1
 389 931 l 1
 389 805 l 1
 315 805 l 1
 315 931 l 1
EndSplineSet
EndChar

StartChar: afii10051
Encoding: 162 1026 98
Width: 670
GlyphClass: 2
Flags: MW
HStem: -13 67<352 433 352 460> 0 21G<176 250 176 176> 373 67<250 392 250 397> 672 67<7 176 7 439 250 250 250 439>
VStem: 176 74<0 373 0 440 440 672> 570 75<158 252>
AnchorPoint: "Anchor-0" 220 805 basechar 0
LayerCount: 2
Fore
SplineSet
352 54 m 1xbc
 514 54 570 92 570 224 c 0
 570 280 546 327 509 348 c 0
 479 366 452 373 392 373 c 2
 250 373 l 1
 250 0 l 1
 176 0 l 1x7c
 176 672 l 1
 7 672 l 1
 7 739 l 1
 439 739 l 1
 439 672 l 1
 250 672 l 1
 250 440 l 1
 397 440 l 2
 489 440 527 426 571 394 c 0
 618 360 645 297 645 224 c 0
 645 50 568 -13 352 -13 c 1
 352 54 l 1xbc
EndSplineSet
EndChar

StartChar: afii10052
Encoding: 163 1027 99
Width: 444
GlyphClass: 2
Flags: MW
HStem: 0 21G<76 150 76 76> 672 67<150 437 150 150>
VStem: 76 74<0 672 0 739 0 739>
AnchorPoint: "Anchor-0" 258 987 basechar 0
LayerCount: 2
Fore
SplineSet
160 848 m 1
 353 964 l 1
 387 906 l 1
 194 792 l 1
 160 848 l 1
437 672 m 1
 150 672 l 1
 150 0 l 1
 76 0 l 1
 76 739 l 1
 437 739 l 1
 437 672 l 1
EndSplineSet
EndChar

StartChar: afii10053
Encoding: 164 1028 100
Width: 813
GlyphClass: 2
Flags: MW
HStem: -13 68<349.5 490.5 349.5 507> 343 67<121 589 121 589 120 589> 684 68<348.5 491>
VStem: 44 76<343 343 343 477.5>
AnchorPoint: "Anchor-0" 428 805 basechar 0
LayerCount: 2
Fore
SplineSet
688 194 m 1
 770 194 l 1
 696 57 582 -13 432 -13 c 0
 211 -13 44 151 44 367 c 0
 44 588 207 752 427 752 c 0
 580 752 710 674 767 547 c 1
 684 547 l 1
 631 631 552 684 430 684 c 0
 267 684 140 568 121 410 c 1
 589 410 l 1
 589 343 l 1
 120 343 l 1
 134 182 268 55 431 55 c 0
 550 55 628 115 688 194 c 1
EndSplineSet
EndChar

StartChar: afii10054
Encoding: 165 1029 101
Width: 498
GlyphClass: 2
Flags: MW
HStem: -13 68<232 297.5 232 317> 684 68<212 286.5>
VStem: 46 75<538 592.5 538 611> 401 75<159.5 224.5>
AnchorPoint: "Anchor-0" 259 805 basechar 0
LayerCount: 2
Fore
SplineSet
22 207 m 1
 101 207 l 1
 106 160 116 133 138 107 c 0
 165 74 209 55 255 55 c 0
 340 55 401 117 401 202 c 0
 401 247 383 285 351 308 c 0
 326 325 294 339 236 356 c 0
 149 383 127 394 98 422 c 0
 65 453 46 502 46 553 c 0
 46 669 132 752 251 752 c 0
 372 752 455 672 458 552 c 1
 381 552 l 1
 376 632 324 684 249 684 c 0
 175 684 121 630 121 555 c 0
 121 521 135 488 156 469 c 0
 176 452 198 443 265 423 c 0
 341 400 372 386 403 364 c 0
 449 329 476 271 476 206 c 0
 476 80 381 -13 253 -13 c 0
 120 -13 29 74 22 207 c 1
EndSplineSet
EndChar

StartChar: afii10055
Encoding: 166 1030 102
Width: 226
GlyphClass: 2
Flags: MW
HStem: 0 21G<76 76 76 150> 719 20G<76 150 150 150>
VStem: 76 74<0 739 0 739>
AnchorPoint: "Anchor-0" 113 805 basechar 0
LayerCount: 2
Fore
SplineSet
76 0 m 1
 76 739 l 1
 150 739 l 1
 150 0 l 1
 76 0 l 1
EndSplineSet
EndChar

StartChar: afii10056
Encoding: 167 1031 103
Width: 226
GlyphClass: 2
Flags: MW
HStem: 0 21G<77 77 77 151> 719 20G<77 151 151 151> 805 126<3 77 3 77 3 150 150 224>
VStem: 3 74<805 931> 77 74<0 739 0 739 0 805 0 931> 150 74<805 931 805 931>
AnchorPoint: "Anchor-0" 113 987 basechar 0
LayerCount: 2
Fore
SplineSet
77 0 m 1xe8
 77 739 l 1
 151 739 l 1
 151 0 l 1
 77 0 l 1xe8
3 931 m 1xf0
 77 931 l 1
 77 805 l 1
 3 805 l 1
 3 931 l 1xf0
150 931 m 1xe4
 224 931 l 1
 224 805 l 1
 150 805 l 1
 150 931 l 1xe4
EndSplineSet
EndChar

StartChar: afii10057
Encoding: 168 1032 104
Width: 482
GlyphClass: 2
Flags: MW
HStem: -14 68<173.5 250 173.5 273> 719 20G<332 406 406 406>
VStem: 332 74<231 739>
AnchorPoint: "Anchor-0" 369 805 basechar 0
LayerCount: 2
Fore
SplineSet
406 739 m 1
 406 231 l 2
 406 72 337 -14 209 -14 c 0
 91 -14 17 57 11 175 c 1
 84 175 l 1
 89 100 137 54 210 54 c 0
 290 54 332 114 332 231 c 2
 332 739 l 1
 406 739 l 1
EndSplineSet
EndChar

StartChar: afii10058
Encoding: 169 1033 105
Width: 1057
GlyphClass: 2
Flags: MW
HStem: 0 67<617 722 722 747> 358 67<617 759 617 754> 719 20G<522 617 617 617>
VStem: 543 74<67 358 67 425 425 644 644 644> 957 75<181 242.5>
AnchorPoint: "Anchor-0" 570 805 basechar 0
LayerCount: 2
Fore
SplineSet
617 358 m 1
 617 67 l 1
 722 67 l 2
 795 67 841 72 874 82 c 0
 927 98 957 147 957 215 c 0
 957 270 935 314 896 334 c 0
 865 351 822 358 754 358 c 2
 617 358 l 1
543 644 m 1
 99 0 l 1
 11 0 l 1
 522 739 l 1
 617 739 l 1
 617 425 l 1
 759 425 l 2
 859 425 913 413 958 381 c 0
 1006 347 1032 287 1032 216 c 0
 1032 134 1000 70 944 38 c 0
 898 11 842 0 747 0 c 2
 543 0 l 1
 543 644 l 1
EndSplineSet
EndChar

StartChar: afii10059
Encoding: 170 1034 106
Width: 1017
GlyphClass: 2
Flags: MW
HStem: 0 67<577 682 682 707> 358 67<150 503 150 503 577 714> 719 20G<76 150 150 150 503 577 577 577>
VStem: 76 74<0 358 0 425 425 739> 503 74<67 358 67 358 67 358 425 739> 917 75<181 242.5>
AnchorPoint: "Anchor-0" 510 805 basechar 0
LayerCount: 2
Fore
SplineSet
577 358 m 1
 577 67 l 1
 682 67 l 2
 755 67 801 72 834 82 c 0
 887 98 917 147 917 215 c 0
 917 270 895 314 856 334 c 0
 825 351 782 358 714 358 c 2
 577 358 l 1
503 358 m 1
 150 358 l 1
 150 0 l 1
 76 0 l 1
 76 739 l 1
 150 739 l 1
 150 425 l 1
 503 425 l 1
 503 739 l 1
 577 739 l 1
 577 425 l 1
 719 425 l 2
 819 425 873 413 918 381 c 0
 966 347 992 287 992 216 c 0
 992 134 960 70 904 38 c 0
 858 11 802 0 707 0 c 2
 503 0 l 1
 503 358 l 1
EndSplineSet
EndChar

StartChar: afii10060
Encoding: 171 1035 107
Width: 705
GlyphClass: 2
Flags: MW
HStem: 0 21G<176 250 176 176 559 633 559 559> 375 67<361 402.5> 672 67<7 176 7 439 250 250 250 439>
VStem: 176 74<0 371 0 438 438 672> 559 74<0 226>
AnchorPoint: "Anchor-0" 220 805 basechar 0
LayerCount: 2
Fore
SplineSet
633 0 m 1
 559 0 l 1
 559 226 l 2
 559 282 534 329 497 350 c 0
 467 368 425 375 380 375 c 0
 334 375 300 374 250 371 c 1
 250 0 l 1
 176 0 l 1
 176 672 l 1
 7 672 l 1
 7 739 l 1
 439 739 l 1
 439 672 l 1
 250 672 l 1
 250 438 l 1
 299 440 337 442 385 442 c 0
 453 442 515 428 559 396 c 0
 606 362 633 299 633 226 c 2
 633 0 l 1
EndSplineSet
EndChar

StartChar: afii10061
Encoding: 172 1036 108
Width: 591
GlyphClass: 2
Flags: MW
HStem: 0 21G<76 150 76 76 485 585 485 485> 719 20G<76 150 150 150 487 585 585 585>
VStem: 76 74<0 344 0 400 400 739>
AnchorPoint: "Anchor-0" 312 987 basechar 0
LayerCount: 2
Fore
SplineSet
214 848 m 1
 407 964 l 1
 441 906 l 1
 248 792 l 1
 214 848 l 1
485 0 m 1
 150 344 l 1
 150 0 l 1
 76 0 l 1
 76 739 l 1
 150 739 l 1
 150 400 l 1
 487 739 l 1
 585 739 l 1
 220 373 l 1
 585 0 l 1
 485 0 l 1
EndSplineSet
EndChar

StartChar: uni00AD
Encoding: 173 173 109
Width: 332
GlyphClass: 2
Flags: MW
HStem: 233 63<31 302 31 302>
LayerCount: 2
Fore
SplineSet
31 296 m 1
 302 296 l 1
 302 233 l 1
 31 233 l 1
 31 296 l 1
EndSplineSet
EndChar

StartChar: afii10062
Encoding: 174 1038 110
Width: 564
GlyphClass: 2
Flags: MW
HStem: 0 21G<159 237 159 159> 719 20G<10 88 88 88 476 554 554 554> 796 46<253 311 253 326>
VStem: 115 75<899.5 931> 374 75<899.5 931>
AnchorPoint: "Anchor-0" 282 987 basechar 0
LayerCount: 2
Fore
SplineSet
115 931 m 1
 190 931 l 1
 190 868 224 842 282 842 c 0
 340 842 374 868 374 931 c 1
 449 931 l 1
 433 836 370 796 282 796 c 0
 194 796 131 836 115 931 c 1
554 739 m 1
 237 0 l 1
 159 0 l 1
 243 196 l 1
 10 739 l 1
 88 739 l 1
 282 287 l 1
 476 739 l 1
 554 739 l 1
EndSplineSet
EndChar

StartChar: afii10145
Encoding: 175 1039 111
Width: 668
GlyphClass: 2
Flags: MW
HStem: 0 67<150 293 375 518 150 592 375 375> 719 20G<76 150 150 150 518 592 592 592>
VStem: 76 74<67 739 67 739 67 739> 308 52<-136 -136> 518 74<67 739 0 739>
CounterMasks: 1 38
AnchorPoint: "Anchor-0" 334 805 basechar 0
LayerCount: 2
Fore
SplineSet
518 739 m 1
 592 739 l 1
 592 0 l 1
 375 0 l 1
 360 -136 l 1
 308 -136 l 1
 293 0 l 1
 76 0 l 1
 76 739 l 1
 150 739 l 1
 150 67 l 1
 518 67 l 1
 518 739 l 1
EndSplineSet
EndChar

StartChar: afii10017
Encoding: 176 1040 112
Width: 740
GlyphClass: 2
Flags: MW
HStem: 0 21G<11 11 11 89 648 648 648 729> 249 67<225 512 225 541 197 512> 719 20G<328 411 411 411>
AnchorPoint: "Anchor-0" 370 805 basechar 0
LayerCount: 2
Fore
SplineSet
11 0 m 1
 328 739 l 1
 411 739 l 1
 729 0 l 1
 648 0 l 1
 541 249 l 1
 197 249 l 1
 89 0 l 1
 11 0 l 1
225 316 m 1
 512 316 l 1
 370 655 l 1
 225 316 l 1
EndSplineSet
EndChar

StartChar: afii10018
Encoding: 177 1041 113
Width: 585
GlyphClass: 2
Flags: MW
HStem: 0 67<150 252 252 277> 365 67<150 289 150 283> 672 67<150 150 150 509>
VStem: 76 74<67 365 67 432 432 672> 480 75<184 247>
AnchorPoint: "Anchor-0" 284 805 basechar 0
LayerCount: 2
Fore
SplineSet
150 365 m 1
 150 67 l 1
 252 67 l 2
 323 67 367 72 399 83 c 0
 450 100 480 149 480 219 c 0
 480 275 459 321 421 341 c 0
 391 359 349 365 283 365 c 2
 150 365 l 1
150 672 m 1
 150 432 l 1
 289 432 l 2
 387 432 439 419 483 387 c 0
 530 353 555 293 555 220 c 0
 555 137 524 72 469 39 c 0
 424 11 370 0 277 0 c 2
 76 0 l 1
 76 739 l 1
 509 739 l 1
 509 672 l 1
 150 672 l 1
EndSplineSet
EndChar

StartChar: afii10019
Encoding: 178 1042 114
Width: 574
GlyphClass: 2
Flags: MW
HStem: 0 67<150 251 251 259> 354 67<150 238 150 240> 672 67<150 239 150 150>
VStem: 76 74<67 67 67 354 421 672> 427 75<520.5 568> 469 75<182.5 241>
AnchorPoint: "Anchor-0" 265 805 basechar 0
LayerCount: 2
Fore
SplineSet
76 0 m 1xf4
 76 739 l 1
 249 739 l 2
 339 739 394 726 436 696 c 0
 478 665 502 611 502 547 c 0xf8
 502 474 477 426 420 394 c 1
 506 358 544 303 544 212 c 0
 544 136 513 71 461 39 c 0
 414 11 358 0 259 0 c 2
 76 0 l 1xf4
150 67 m 1
 251 67 l 2
 326 67 376 75 411 94 c 0
 446 112 469 157 469 208 c 0xf4
 469 274 437 323 384 340 c 0
 351 350 314 354 238 354 c 2
 150 354 l 1
 150 67 l 1
150 421 m 1
 240 421 l 2
 307 421 339 426 370 440 c 0
 407 457 427 495 427 546 c 0xf8
 427 590 410 629 384 646 c 0
 356 665 315 672 239 672 c 2
 150 672 l 1
 150 421 l 1
EndSplineSet
EndChar

StartChar: afii10020
Encoding: 179 1043 115
Width: 444
GlyphClass: 2
Flags: MW
HStem: 0 21G<76 150 76 76> 672 67<150 437 150 150>
VStem: 76 74<0 672 0 739 0 739>
AnchorPoint: "Anchor-0" 258 805 basechar 0
LayerCount: 2
Fore
SplineSet
437 672 m 1
 150 672 l 1
 150 0 l 1
 76 0 l 1
 76 739 l 1
 437 739 l 1
 437 672 l 1
EndSplineSet
EndChar

StartChar: afii10021
Encoding: 180 1044 116
Width: 848
GlyphClass: 2
Flags: MW
HStem: 0 67<173 675 18 98> 719 20G<382 466 466 466>
VStem: 18 52<-136 67> 778 52<-136 67>
AnchorPoint: "Anchor-0" 424 805 basechar 0
LayerCount: 2
Fore
SplineSet
173 67 m 1
 675 67 l 1
 424 655 l 1
 173 67 l 1
830 67 m 1
 830 -136 l 1
 778 -136 l 1
 750 0 l 1
 98 0 l 1
 70 -136 l 1
 18 -136 l 1
 18 67 l 1
 94 67 l 1
 382 739 l 1
 466 739 l 1
 754 67 l 1
 830 67 l 1
EndSplineSet
Substitution2: "'locl' Localized Forms in Cyrillic lookup 1 subtable" uni0414.loclBGR
Substitution2: "'locl' Localized Forms in Cyrillic lookup 0 subtable" uni0414.loclBGR
EndChar

StartChar: afii10022
Encoding: 181 1045 117
Width: 536
GlyphClass: 2
Flags: MW
HStem: 0 67<150 480 150 480> 340 67<150 469 150 469> 672 67<150 480 150 150>
VStem: 76 74<67 340 407 672>
AnchorPoint: "Anchor-0" 278 805 basechar 0
LayerCount: 2
Fore
SplineSet
76 0 m 1
 76 739 l 1
 480 739 l 1
 480 672 l 1
 150 672 l 1
 150 407 l 1
 469 407 l 1
 469 340 l 1
 150 340 l 1
 150 67 l 1
 480 67 l 1
 480 0 l 1
 76 0 l 1
EndSplineSet
EndChar

StartChar: afii10024
Encoding: 182 1046 118
Width: 830
GlyphClass: 2
Flags: MW
HStem: 0 21G<6 99 6 6 378 452 378 378 731 731 731 824> 719 20G<6 98 98 98 378 452 452 452 732 824 824 824>
VStem: 378 74<0 350 394 739>
AnchorPoint: "Anchor-0" 415 805 basechar 0
LayerCount: 2
Fore
SplineSet
452 0 m 1
 378 0 l 1
 378 350 l 1
 99 0 l 1
 6 0 l 1
 305 373 l 1
 6 739 l 1
 98 739 l 1
 378 394 l 1
 378 739 l 1
 452 739 l 1
 452 394 l 1
 732 739 l 1
 824 739 l 1
 525 373 l 1
 824 0 l 1
 731 0 l 1
 452 350 l 1
 452 0 l 1
EndSplineSet
Substitution2: "'locl' Localized Forms in Cyrillic lookup 0 subtable" uni0416.loclBGR
EndChar

StartChar: afii10025
Encoding: 183 1047 119
Width: 518
GlyphClass: 2
Flags: MW
HStem: -13 70<208 294 208 315> 683 69<214.5 283.5>
AnchorPoint: "Anchor-0" 248 805 basechar 0
LayerCount: 2
Fore
SplineSet
208 434 m 1
 312 434 373 477 373 556 c 0
 373 625 318 683 249 683 c 0
 180 683 125 625 125 556 c 1
 48 556 l 1
 48 662 138 752 249 752 c 0
 360 752 450 664 450 558 c 0
 450 466 380 418 328 406 c 1
 394 393 484 321 484 211 c 0
 484 88 379 -13 251 -13 c 0
 123 -13 18 90 18 213 c 1
 97 213 l 1
 97 127 165 57 251 57 c 0
 337 57 405 127 405 213 c 0
 405 326 312 367 208 367 c 1
 208 434 l 1
EndSplineSet
EndChar

StartChar: afii10026
Encoding: 184 1048 120
Width: 740
GlyphClass: 2
Flags: MW
HStem: 0 21G<76 150 76 76 590 664 590 590> 719 20G<76 150 150 150 590 664 664 664>
VStem: 76 74<110 739> 590 74<0 629 629 629 0 739>
AnchorPoint: "Anchor-0" 370 805 basechar 0
LayerCount: 2
Fore
SplineSet
590 739 m 1
 664 739 l 1
 664 0 l 1
 590 0 l 1
 590 629 l 1
 150 0 l 1
 76 0 l 1
 76 739 l 1
 150 739 l 1
 150 110 l 1
 590 739 l 1
EndSplineSet
EndChar

StartChar: afii10027
Encoding: 185 1049 121
Width: 740
GlyphClass: 2
Flags: MW
HStem: 0 21G<76 150 76 76 590 664 590 590> 719 20G<76 150 150 150 590 664 664 664> 796 46<341 399 341 414>
VStem: 76 74<110 739> 203 75<899.5 931> 462 75<899.5 931> 590 74<0 629 629 629 0 739>
AnchorPoint: "Anchor-0" 370 987 basechar 0
LayerCount: 2
Fore
SplineSet
203 931 m 1
 278 931 l 1
 278 868 312 842 370 842 c 0
 428 842 462 868 462 931 c 1
 537 931 l 1
 521 836 458 796 370 796 c 0
 282 796 219 836 203 931 c 1
590 739 m 1
 664 739 l 1
 664 0 l 1
 590 0 l 1
 590 629 l 1
 150 0 l 1
 76 0 l 1
 76 739 l 1
 150 739 l 1
 150 110 l 1
 590 739 l 1
EndSplineSet
EndChar

StartChar: afii10028
Encoding: 186 1050 122
Width: 591
GlyphClass: 2
Flags: MW
HStem: 0 21G<76 150 76 76 485 585 485 485> 719 20G<76 150 150 150 487 585 585 585>
VStem: 76 74<0 344 0 400 400 739>
AnchorPoint: "Anchor-0" 312 805 basechar 0
LayerCount: 2
Fore
SplineSet
485 0 m 1
 150 344 l 1
 150 0 l 1
 76 0 l 1
 76 739 l 1
 150 739 l 1
 150 400 l 1
 487 739 l 1
 585 739 l 1
 220 373 l 1
 585 0 l 1
 485 0 l 1
EndSplineSet
Substitution2: "'locl' Localized Forms in Cyrillic lookup 0 subtable" uni041A.loclBGR
EndChar

StartChar: afii10029
Encoding: 187 1051 123
Width: 740
GlyphClass: 2
Flags: MW
HStem: 0 21G<11 91 11 11 649 729 649 649> 719 20G<329 411 411 411>
AnchorPoint: "Anchor-0" 370 805 basechar 0
LayerCount: 2
Fore
SplineSet
649 0 m 1
 370 655 l 1
 91 0 l 1
 11 0 l 1
 329 739 l 1
 411 739 l 1
 729 0 l 1
 649 0 l 1
EndSplineSet
Substitution2: "'locl' Localized Forms in Cyrillic lookup 1 subtable" uni041B.loclBGR
Substitution2: "'locl' Localized Forms in Cyrillic lookup 0 subtable" uni041B.loclBGR
EndChar

StartChar: afii10030
Encoding: 188 1052 124
Width: 919
GlyphClass: 2
Flags: MW
HStem: 0 21G<76 76 76 150 427 427 427 491 769 769 769 843> 719 20G<76 191 191 191 728 843 843 843>
VStem: 76 74<0 658 0 739> 769 74<0 658 658 658>
AnchorPoint: "Anchor-0" 460 805 basechar 0
LayerCount: 2
Fore
SplineSet
76 0 m 1
 76 739 l 1
 191 739 l 1
 460 110 l 1
 728 739 l 1
 843 739 l 1
 843 0 l 1
 769 0 l 1
 769 658 l 1
 491 0 l 1
 427 0 l 1
 150 658 l 1
 150 0 l 1
 76 0 l 1
EndSplineSet
EndChar

StartChar: afii10031
Encoding: 189 1053 125
Width: 683
GlyphClass: 2
Flags: MW
HStem: 0 21G<76 76 76 150 533 533 533 607> 347 67<150 533 150 533> 719 20G<76 150 150 150 533 607 607 607>
VStem: 76 74<0 347 414 739> 533 74<0 347 347 347 414 739 0 739>
AnchorPoint: "Anchor-0" 341 805 basechar 0
LayerCount: 2
Fore
SplineSet
76 0 m 1
 76 739 l 1
 150 739 l 1
 150 414 l 1
 533 414 l 1
 533 739 l 1
 607 739 l 1
 607 0 l 1
 533 0 l 1
 533 347 l 1
 150 347 l 1
 150 0 l 1
 76 0 l 1
EndSplineSet
EndChar

StartChar: afii10032
Encoding: 190 1054 126
Width: 869
GlyphClass: 2
Flags: MW
HStem: -13 68<348.5 521 348.5 542> 684 68<346.5 519.5>
VStem: 44 75<283 454 283 475.5> 750 75<282.5 455.5>
AnchorPoint: "Anchor-0" 434 805 basechar 0
LayerCount: 2
Fore
SplineSet
440 752 m 0
 649 752 825 578 825 369 c 0
 825 159 649 -13 435 -13 c 0
 221 -13 44 160 44 369 c 0
 44 582 220 752 440 752 c 0
431 684 m 0
 262 684 119 539 119 369 c 0
 119 197 262 55 435 55 c 0
 607 55 750 197 750 368 c 0
 750 543 608 684 431 684 c 0
EndSplineSet
EndChar

StartChar: afii10033
Encoding: 191 1055 127
Width: 669
GlyphClass: 2
Flags: MW
HStem: 0 21G<76 150 76 76 519 519 519 593> 672 67<150 519 150 150>
VStem: 76 74<0 672> 519 74<0 672 672 672>
AnchorPoint: "Anchor-0" 335 805 basechar 0
LayerCount: 2
Fore
SplineSet
150 0 m 1
 76 0 l 1
 76 739 l 1
 593 739 l 1
 593 0 l 1
 519 0 l 1
 519 672 l 1
 150 672 l 1
 150 0 l 1
EndSplineSet
EndChar

StartChar: afii10034
Encoding: 192 1056 128
Width: 592
GlyphClass: 2
Flags: MW
HStem: 0 21G<76 76 76 150> 299 67<150 287 287 292 150 287> 672 67<150 255 150 150>
VStem: 76 74<0 299 366 672> 490 75<487 552>
AnchorPoint: "Anchor-0" 290 805 basechar 0
LayerCount: 2
Fore
SplineSet
76 0 m 1
 76 739 l 1
 280 739 l 2
 375 739 431 728 477 700 c 0
 533 667 565 600 565 515 c 0
 565 441 539 380 491 345 c 0
 446 312 392 299 292 299 c 2
 150 299 l 1
 150 0 l 1
 76 0 l 1
150 366 m 1
 287 366 l 2
 355 366 398 373 429 391 c 0
 468 412 490 458 490 516 c 0
 490 588 460 639 407 656 c 0
 374 667 328 672 255 672 c 2
 150 672 l 1
 150 366 l 1
EndSplineSet
EndChar

StartChar: afii10035
Encoding: 193 1057 129
Width: 813
GlyphClass: 2
Flags: MW
HStem: -13 68<345 465.5 345 507> 684 68<341.5 461.5>
VStem: 44 75<283 459 283 477.5>
AnchorPoint: "Anchor-0" 427 805 basechar 0
LayerCount: 2
Fore
SplineSet
688 194 m 1
 770 194 l 1
 696 57 582 -13 432 -13 c 0
 211 -13 44 151 44 367 c 0
 44 588 207 752 427 752 c 0
 580 752 710 674 767 547 c 1
 684 547 l 1
 655 593 634 615 599 637 c 0
 550 668 493 684 430 684 c 0
 253 684 119 548 119 370 c 0
 119 196 259 55 431 55 c 0
 500 55 567 78 618 119 c 0
 641 138 659 156 688 194 c 1
EndSplineSet
EndChar

StartChar: afii10036
Encoding: 194 1058 130
Width: 426
GlyphClass: 2
Flags: MW
HStem: 0 21G<176 176 176 250> 672 67<7 176 7 419 250 250 250 419>
VStem: 176 74<0 672 0 672>
AnchorPoint: "Anchor-0" 213 805 basechar 0
LayerCount: 2
Fore
SplineSet
176 0 m 1
 176 672 l 1
 7 672 l 1
 7 739 l 1
 419 739 l 1
 419 672 l 1
 250 672 l 1
 250 0 l 1
 176 0 l 1
EndSplineSet
EndChar

StartChar: afii10037
Encoding: 195 1059 131
Width: 564
GlyphClass: 2
Flags: MW
HStem: 0 21G<159 237 159 159> 719 20G<10 88 88 88 476 554 554 554>
AnchorPoint: "Anchor-0" 282 805 basechar 0
LayerCount: 2
Fore
SplineSet
554 739 m 1
 237 0 l 1
 159 0 l 1
 243 196 l 1
 10 739 l 1
 88 739 l 1
 282 287 l 1
 476 739 l 1
 554 739 l 1
EndSplineSet
EndChar

StartChar: afii10038
Encoding: 196 1060 132
Width: 812
GlyphClass: 2
Flags: MW
HStem: 0 21G<369 443 369 369> 54 68<369 369> 631 68<369 369> 719 20G<369 443 443 443>
VStem: 36 75<309.5 439.5 309.5 457.5> 369 74<0 54 0 54 122 631 699 739> 701 75<309.5 439.5>
CounterMasks: 1 0e
AnchorPoint: "Anchor-0" 406 805 basechar 0
LayerCount: 2
Fore
SplineSet
443 699 m 1
 644 683 776 539 776 376 c 0
 776 204 647 69 443 54 c 1
 443 0 l 1
 369 0 l 1
 369 54 l 1
 165 69 36 204 36 376 c 0
 36 539 168 683 369 699 c 1
 369 739 l 1
 443 739 l 1
 443 699 l 1
443 122 m 1
 604 137 701 243 701 376 c 0
 701 503 602 616 443 631 c 1
 443 122 l 1
369 631 m 1
 210 616 111 503 111 376 c 0
 111 243 208 137 369 122 c 1
 369 631 l 1
EndSplineSet
EndChar

StartChar: afii10039
Encoding: 197 1061 133
Width: 609
GlyphClass: 2
Flags: MW
HStem: 0 21G<8 8 8 95 514 514 514 601> 719 20G<22 109 109 109 500 586 586 586>
AnchorPoint: "Anchor-0" 304 805 basechar 0
LayerCount: 2
Fore
SplineSet
8 0 m 1
 259 378 l 1
 22 739 l 1
 109 739 l 1
 305 443 l 1
 500 739 l 1
 586 739 l 1
 349 378 l 1
 601 0 l 1
 514 0 l 1
 305 316 l 1
 95 0 l 1
 8 0 l 1
EndSplineSet
EndChar

StartChar: afii10040
Encoding: 198 1062 134
Width: 706
GlyphClass: 2
Flags: MW
HStem: 0 67<150 509 583 600> 719 20G<76 150 150 150 509 583 583 583>
VStem: 76 74<67 739 67 739 67 739> 509 74<67 739 67 739> 628 52<-136 67>
AnchorPoint: "Anchor-0" 330 805 basechar 0
LayerCount: 2
Fore
SplineSet
509 739 m 1
 583 739 l 1
 583 67 l 1
 680 67 l 1
 680 -136 l 1
 628 -136 l 1
 600 0 l 1
 76 0 l 1
 76 739 l 1
 150 739 l 1
 150 67 l 1
 509 67 l 1
 509 739 l 1
EndSplineSet
EndChar

StartChar: afii10041
Encoding: 199 1063 135
Width: 595
GlyphClass: 2
Flags: MW
HStem: 0 21G<445 519 445 445> 290 67<276 331.5> 719 20G<43 118 118 118 445 519 519 519>
VStem: 43 75<510 739> 445 74<0 301 301 301 368 739 0 739>
AnchorPoint: "Anchor-0" 290 805 basechar 0
LayerCount: 2
Fore
SplineSet
43 739 m 1
 118 739 l 1
 118 510 l 2
 118 453 134 405 172 384 c 0
 203 366 242 357 310 357 c 0
 357 357 399 362 445 368 c 1
 445 739 l 1
 519 739 l 1
 519 0 l 1
 445 0 l 1
 445 301 l 1
 399 295 358 290 305 290 c 0
 231 290 155 305 110 338 c 0
 62 373 43 437 43 510 c 2
 43 739 l 1
EndSplineSet
EndChar

StartChar: afii10042
Encoding: 200 1064 136
Width: 896
GlyphClass: 2
Flags: MW
HStem: 0 67<150 411 485 746> 719 20G<76 150 150 150 411 485 485 485 746 820 820 820>
VStem: 76 74<67 739 67 739 67 739> 411 74<67 739 67 739> 746 74<67 739>
CounterMasks: 1 38
AnchorPoint: "Anchor-0" 448 805 basechar 0
LayerCount: 2
Fore
SplineSet
820 0 m 1
 76 0 l 1
 76 739 l 1
 150 739 l 1
 150 67 l 1
 411 67 l 1
 411 739 l 1
 485 739 l 1
 485 67 l 1
 746 67 l 1
 746 739 l 1
 820 739 l 1
 820 0 l 1
EndSplineSet
EndChar

StartChar: afii10043
Encoding: 201 1065 137
Width: 943
GlyphClass: 2
Flags: MW
HStem: 0 67<150 411 485 746 820 837> 719 20G<76 150 150 150 411 485 485 485 746 820 820 820>
VStem: 76 74<67 739 67 739 67 739> 411 74<67 739 67 739> 746 74<67 739 67 739>
CounterMasks: 1 38
AnchorPoint: "Anchor-0" 448 805 basechar 0
LayerCount: 2
Fore
SplineSet
746 739 m 1
 820 739 l 1
 820 67 l 1
 917 67 l 1
 917 -136 l 1
 865 -136 l 1
 837 0 l 1
 76 0 l 1
 76 739 l 1
 150 739 l 1
 150 67 l 1
 411 67 l 1
 411 739 l 1
 485 739 l 1
 485 67 l 1
 746 67 l 1
 746 739 l 1
EndSplineSet
EndChar

StartChar: afii10044
Encoding: 202 1066 138
Width: 757
GlyphClass: 2
Flags: MW
HStem: 0 67<317 422 422 447> 358 67<317 459 317 454> 672 67<7 243 7 317>
VStem: 243 74<67 358 67 425 425 672 672 672> 657 75<181 242.5>
AnchorPoint: "Anchor-0" 280 805 basechar 0
LayerCount: 2
Fore
SplineSet
317 358 m 1
 317 67 l 1
 422 67 l 2
 495 67 541 72 574 82 c 0
 627 98 657 147 657 215 c 0
 657 270 635 314 596 334 c 0
 565 351 522 358 454 358 c 2
 317 358 l 1
317 739 m 1
 317 425 l 1
 459 425 l 2
 559 425 613 413 658 381 c 0
 706 347 732 287 732 216 c 0
 732 134 700 70 644 38 c 0
 598 11 542 0 447 0 c 2
 243 0 l 1
 243 672 l 1
 7 672 l 1
 7 739 l 1
 317 739 l 1
EndSplineSet
EndChar

StartChar: afii10045
Encoding: 203 1067 139
Width: 811
GlyphClass: 2
Flags: MW
HStem: 0 67<150 255 255 280> 358 67<150 292 150 287> 719 20G<76 150 150 150 661 735 735 735>
VStem: 76 74<67 358 425 739> 490 75<181 242.5> 661 74<0 739 0 739>
AnchorPoint: "Anchor-0" 405 805 basechar 0
LayerCount: 2
Fore
SplineSet
661 0 m 1
 661 739 l 1
 735 739 l 1
 735 0 l 1
 661 0 l 1
76 739 m 1
 150 739 l 1
 150 425 l 1
 292 425 l 2
 392 425 446 413 491 381 c 0
 539 347 565 287 565 216 c 0
 565 134 533 70 477 38 c 0
 431 11 375 0 280 0 c 2
 76 0 l 1
 76 739 l 1
150 358 m 1
 150 67 l 1
 255 67 l 2
 328 67 374 72 407 82 c 0
 460 98 490 147 490 215 c 0
 490 270 468 314 429 334 c 0
 398 351 355 358 287 358 c 2
 150 358 l 1
EndSplineSet
EndChar

StartChar: afii10046
Encoding: 204 1068 140
Width: 590
GlyphClass: 2
Flags: MW
HStem: 0 67<150 255 255 280> 358 67<150 292 150 287> 719 20G<76 150 150 150>
VStem: 76 74<67 358 425 739> 490 75<181 242.5>
AnchorPoint: "Anchor-0" 113 805 basechar 0
LayerCount: 2
Fore
SplineSet
76 739 m 1
 150 739 l 1
 150 425 l 1
 292 425 l 2
 392 425 446 413 491 381 c 0
 539 347 565 287 565 216 c 0
 565 134 533 70 477 38 c 0
 431 11 375 0 280 0 c 2
 76 0 l 1
 76 739 l 1
150 358 m 1
 150 67 l 1
 255 67 l 2
 328 67 374 72 407 82 c 0
 460 98 490 147 490 215 c 0
 490 270 468 314 429 334 c 0
 398 351 355 358 287 358 c 2
 150 358 l 1
EndSplineSet
EndChar

StartChar: afii10047
Encoding: 205 1069 141
Width: 813
GlyphClass: 2
Flags: MW
HStem: -13 68<322.5 463.5 322.5 491.5> 343 67<224 692 224 693 224 692> 684 68<322 464.5>
VStem: 693 76<343 343>
AnchorPoint: "Anchor-0" 386 805 basechar 0
LayerCount: 2
Fore
SplineSet
125 194 m 1
 185 115 263 55 382 55 c 0
 545 55 679 182 693 343 c 1
 224 343 l 1
 224 410 l 1
 692 410 l 1
 673 568 546 684 383 684 c 0
 261 684 182 631 129 547 c 1
 46 547 l 1
 103 674 233 752 386 752 c 0
 606 752 769 588 769 367 c 0
 769 151 602 -13 381 -13 c 0
 231 -13 117 57 43 194 c 1
 125 194 l 1
EndSplineSet
EndChar

StartChar: afii10048
Encoding: 206 1070 142
Width: 1093
GlyphClass: 2
Flags: MW
HStem: -19 67<560 741 560 762> 0 21G<76 150 76 76> 347 67<150 253 150 254> 691 67<561.5 741> 719 20G<76 150 150 150>
VStem: 76 74<0 347 0 414 414 739> 253 74<347 347> 974 75<280 455>
AnchorPoint: "Anchor-0" 590 809 basechar 0
LayerCount: 2
Fore
SplineSet
651 691 m 0xb7
 472 691 327 544 327 372 c 0
 327 194 469 48 651 48 c 0
 831 48 974 193 974 367 c 0
 974 543 831 691 651 691 c 0xb7
651 758 m 0
 873 758 1049 583 1049 369 c 0
 1049 157 873 -19 651 -19 c 0xb7
 435 -19 267 138 253 347 c 1
 150 347 l 1
 150 0 l 1
 76 0 l 1
 76 739 l 1
 150 739 l 1x6f
 150 414 l 1
 254 414 l 1
 275 607 445 758 651 758 c 0
EndSplineSet
EndChar

StartChar: afii10049
Encoding: 207 1071 143
Width: 607
GlyphClass: 2
Flags: MW
HStem: 0 21G<25 112 25 25 457 531 457 457> 309 67<324 457 324 457 317 457> 672 67<330 355 355 457>
VStem: 52 75<493 556 493 561.5> 457 74<0 309 309 309 376 672 672 672>
AnchorPoint: "Anchor-0" 326 805 basechar 0
LayerCount: 2
Fore
SplineSet
457 376 m 1
 457 672 l 1
 355 672 l 2
 284 672 240 668 208 657 c 0
 157 641 127 591 127 521 c 0
 127 465 148 420 186 400 c 0
 216 383 258 376 324 376 c 2
 457 376 l 1
531 0 m 1
 457 0 l 1
 457 309 l 1
 317 309 l 1
 112 0 l 1
 25 0 l 1
 234 314 l 1
 186 320 153 333 124 354 c 0
 77 388 52 448 52 520 c 0
 52 603 83 669 138 701 c 0
 183 728 237 739 330 739 c 2
 531 739 l 1
 531 0 l 1
EndSplineSet
Substitution2: "'locl' Localized Forms in Cyrillic lookup 0 subtable" uni042F.loclBGR
EndChar

StartChar: afii10065
Encoding: 208 1072 144
Width: 683
GlyphClass: 2
Flags: MW
HStem: -13 68<274.5 382.5> 492 68<270.5 377.5 248 391> 527 20G<546 620 620 620>
VStem: 42 75<213.5 335 213.5 354> 546 74<0 96 96 96 213 337 450 547 0 547>
AnchorPoint: "Anchor-0" 351 623 basechar 0
LayerCount: 2
Fore
SplineSet
620 547 m 1xb8
 620 0 l 1
 546 0 l 1
 546 96 l 1
 488 18 429 -13 336 -13 c 0
 167 -13 42 108 42 272 c 0
 42 436 166 560 330 560 c 0xd8
 425 560 491 527 546 450 c 1
 546 547 l 1
 620 547 l 1xb8
329 492 m 0
 212 492 117 395 117 275 c 0
 117 152 214 55 335 55 c 0
 454 55 546 151 546 275 c 0
 546 399 453 492 329 492 c 0
EndSplineSet
EndChar

StartChar: afii10066
Encoding: 209 1073 145
Width: 668
GlyphClass: 2
Flags: MW
HStem: -13 68<304.5 396.5 272.5 419.5> 492 68<275 397.5>
VStem: 49 55<418 418 418 526.5> 551 75<213 337.5>
AnchorPoint: "Anchor-0" 342 819 basechar 0
LayerCount: 2
Fore
SplineSet
588 720 m 1
 361 699 l 2
 193 683 107 583 104 418 c 1
 107 417 l 1
 137 491 207 560 338 560 c 0
 500 560 626 435 626 274 c 0
 626 110 502 -13 337 -13 c 0
 272 -13 218 5 175 35 c 0
 64 112 49 211 49 415 c 0
 49 638 147 749 355 768 c 2
 588 788 l 1
 588 720 l 1
335 55 m 0
 458 55 551 150 551 276 c 0
 551 399 459 492 336 492 c 0
 214 492 123 397 123 276 c 0
 123 151 210 55 335 55 c 0
EndSplineSet
Substitution2: "'ss02' Style Set 2 lookup 4 subtable" uni0431.serbian
Substitution2: "'locl' Localized Forms in Cyrillic lookup 0 subtable" uni0431.loclBGR
EndChar

StartChar: afii10067
Encoding: 210 1074 146
Width: 535
GlyphClass: 2
Flags: MW
HStem: 0 67<137 278 278 297> 254 67<137 270 137 270 270 278> 480 67<137 270 137 137>
VStem: 63 74<67 254 67 321 321 480> 400 71<374.5 431.5> 424 75<128 192 116.5 198>
AnchorPoint: "Anchor-0" 250 623 basechar 0
LayerCount: 2
Fore
SplineSet
137 254 m 1xf4
 137 67 l 1
 278 67 l 2
 360 67 424 93 424 163 c 0
 424 233 360 254 278 254 c 2
 137 254 l 1xf4
471 403 m 0xf8
 471 344 425 306 397 294 c 1
 468 268 499 221 499 163 c 0xf4
 499 70 417 0 297 0 c 2
 63 0 l 1
 63 547 l 1
 282 547 l 2
 398 547 471 495 471 403 c 0xf8
400 403 m 0xf8
 400 460 346 480 270 480 c 2
 137 480 l 1
 137 321 l 1
 270 321 l 2
 346 321 400 346 400 403 c 0xf8
EndSplineSet
Substitution2: "'locl' Localized Forms in Cyrillic lookup 1 subtable" uni0432.loclBGR
Substitution2: "'locl' Localized Forms in Cyrillic lookup 0 subtable" uni0432.loclBGR
EndChar

StartChar: afii10068
Encoding: 211 1075 147
Width: 355
GlyphClass: 2
Flags: MW
HStem: 0 21G<63 137 63 63> 480 67<137 343 137 137>
VStem: 63 74<0 480 0 547 0 547>
AnchorPoint: "Anchor-0" 205 623 basechar 0
LayerCount: 2
Fore
SplineSet
343 547 m 1
 343 480 l 1
 137 480 l 1
 137 0 l 1
 63 0 l 1
 63 547 l 1
 343 547 l 1
EndSplineSet
Substitution2: "'locl' Localized Forms in Cyrillic lookup 1 subtable" uni0433.loclBGR
Substitution2: "'locl' Localized Forms in Cyrillic lookup 0 subtable" uni0433.loclBGR
EndChar

StartChar: afii10069
Encoding: 212 1076 148
Width: 670
GlyphClass: 2
Flags: MW
HStem: 0 67<166 504 17 95> 527 20G<293 377 377 377>
VStem: 17 51<-126 67> 602 51<-126 67>
AnchorPoint: "Anchor-0" 335 623 basechar 0
LayerCount: 2
Fore
SplineSet
575 0 m 1
 95 0 l 1
 68 -126 l 1
 17 -126 l 1
 17 67 l 1
 88 67 l 1
 293 547 l 1
 377 547 l 1
 582 67 l 1
 653 67 l 1
 653 -126 l 1
 602 -126 l 1
 575 0 l 1
504 67 m 1
 335 463 l 1
 166 67 l 1
 504 67 l 1
EndSplineSet
Substitution2: "'locl' Localized Forms in Cyrillic lookup 1 subtable" uni0434.loclBGR
Substitution2: "'locl' Localized Forms in Cyrillic lookup 0 subtable" uni0434.loclBGR
EndChar

StartChar: afii10070
Encoding: 213 1077 149
Width: 650
GlyphClass: 2
Flags: MW
HStem: -13 68<272.5 370.5 272.5 390.5> 249 67<118 537 118 611 116 537> 492 68<273 378>
AnchorPoint: "Anchor-0" 329 623 basechar 0
LayerCount: 2
Fore
SplineSet
611 249 m 1
 116 249 l 1
 122 141 216 55 329 55 c 0
 412 55 489 105 520 180 c 1
 597 180 l 1
 557 65 450 -13 331 -13 c 0
 169 -13 42 114 42 276 c 0
 42 435 167 560 325 560 c 0
 433 560 530 503 578 411 c 0
 602 365 611 322 611 249 c 1
118 316 m 1
 537 316 l 1
 512 425 431 492 325 492 c 0
 221 492 138 421 118 316 c 1
EndSplineSet
EndChar

StartChar: afii10072
Encoding: 214 1078 150
Width: 702
GlyphClass: 2
Flags: MW
HStem: 0 21G<5 98 5 5 314 388 314 314 604 697 604 604> 527 20G<5 98 98 98 314 388 388 388 604 697 697 697>
VStem: 314 74<0 262 0 262 299 547>
AnchorPoint: "Anchor-0" 351 623 basechar 0
LayerCount: 2
Fore
SplineSet
314 547 m 1
 388 547 l 1
 388 299 l 1
 604 547 l 1
 697 547 l 1
 463 281 l 1
 697 0 l 1
 604 0 l 1
 388 262 l 1
 388 0 l 1
 314 0 l 1
 314 262 l 1
 98 0 l 1
 5 0 l 1
 239 281 l 1
 5 547 l 1
 98 547 l 1
 314 299 l 1
 314 547 l 1
EndSplineSet
Substitution2: "'locl' Localized Forms in Cyrillic lookup 1 subtable" uni0436.loclBGR
Substitution2: "'locl' Localized Forms in Cyrillic lookup 0 subtable" uni0436.loclBGR
EndChar

StartChar: afii10073
Encoding: 215 1079 151
Width: 480
GlyphClass: 2
Flags: MW
HStem: -13 68<202.5 275.5 202.5 297> 258 61<196 245.5 196 257.5> 491 69<209.5 266.5>
VStem: 36 75<158 158> 63 75<409 409> 340 75<383 431.5> 369 75<129.5 185>
AnchorPoint: "Anchor-0" 240 623 basechar 0
LayerCount: 2
Fore
SplineSet
196 258 m 1xf2
 196 319 l 1
 295 319 340 355 340 409 c 0
 340 454 295 491 238 491 c 0
 181 491 142 454 138 409 c 1
 63 409 l 1
 67 494 141 560 239 560 c 0
 337 560 415 494 415 409 c 0xec
 415 357 380 308 327 292 c 1
 389 275 444 232 444 158 c 0
 444 63 354 -13 240 -13 c 0
 126 -13 40 63 36 158 c 1
 111 158 l 1
 115 101 166 55 239 55 c 0
 312 55 369 101 369 158 c 0
 369 212 319 258 196 258 c 1xf2
EndSplineSet
Substitution2: "'locl' Localized Forms in Cyrillic lookup 1 subtable" uni0437.loclBGR
Substitution2: "'locl' Localized Forms in Cyrillic lookup 0 subtable" uni0437.loclBGR
EndChar

StartChar: afii10074
Encoding: 216 1080 152
Width: 607
GlyphClass: 2
Flags: MW
HStem: 0 21G<63 137 63 63 470 544 470 470> 527 20G<63 137 137 137 470 544 544 544>
VStem: 63 74<105 547> 470 74<0 442 442 442 0 547>
AnchorPoint: "Anchor-0" 304 623 basechar 0
LayerCount: 2
Fore
SplineSet
470 547 m 1
 544 547 l 1
 544 0 l 1
 470 0 l 1
 470 442 l 1
 137 0 l 1
 63 0 l 1
 63 547 l 1
 137 547 l 1
 137 105 l 1
 470 547 l 1
EndSplineSet
Substitution2: "'locl' Localized Forms in Cyrillic lookup 1 subtable" uni0438.loclBGR
Substitution2: "'locl' Localized Forms in Cyrillic lookup 0 subtable" uni0438.loclBGR
EndChar

StartChar: afii10075
Encoding: 217 1081 153
Width: 607
GlyphClass: 2
Flags: MW
HStem: 0 21G<63 137 63 63 470 544 470 470> 527 20G<63 137 137 137 470 544 544 544> 616 46<278.5 327.5 278.5 343> 726 20G<151 225 225 225 381 455 455 455>
VStem: 63 74<105 547> 151 74<717 746> 381 74<717 746> 470 74<0 442 442 442 0 547>
AnchorPoint: "Anchor-0" 304 805 basechar 0
LayerCount: 2
Fore
SplineSet
151 746 m 1
 225 746 l 1
 225 688 254 662 303 662 c 0
 352 662 381 688 381 746 c 1
 455 746 l 1
 440 656 383 616 303 616 c 0
 223 616 166 656 151 746 c 1
470 547 m 1
 544 547 l 1
 544 0 l 1
 470 0 l 1
 470 442 l 1
 137 0 l 1
 63 0 l 1
 63 547 l 1
 137 547 l 1
 137 105 l 1
 470 547 l 1
EndSplineSet
Substitution2: "'locl' Localized Forms in Cyrillic lookup 1 subtable" uni0439.loclBGR
Substitution2: "'locl' Localized Forms in Cyrillic lookup 0 subtable" uni0439.loclBGR
EndChar

StartChar: afii10076
Encoding: 218 1082 154
Width: 488
GlyphClass: 2
Flags: MW
HStem: 0 21G<63 137 63 63 386 483 386 386> 527 20G<63 137 137 137 387 483 483 483>
VStem: 63 74<0 258 303 547>
AnchorPoint: "Anchor-0" 262 623 basechar 0
LayerCount: 2
Fore
SplineSet
63 547 m 1
 137 547 l 1
 137 303 l 1
 387 547 l 1
 483 547 l 1
 210 282 l 1
 483 0 l 1
 386 0 l 1
 137 258 l 1
 137 0 l 1
 63 0 l 1
 63 547 l 1
EndSplineSet
Substitution2: "'locl' Localized Forms in Cyrillic lookup 1 subtable" uni043A.loclBGR
Substitution2: "'locl' Localized Forms in Cyrillic lookup 0 subtable" uni043A.loclBGR
EndChar

StartChar: afii10077
Encoding: 219 1083 155
Width: 563
GlyphClass: 2
Flags: MW
HStem: 0 21G<5 83 5 5 480 558 480 480> 527 20G<240 323 323 323>
AnchorPoint: "Anchor-0" 282 623 basechar 0
LayerCount: 2
Fore
SplineSet
558 0 m 1
 480 0 l 1
 282 463 l 1
 83 0 l 1
 5 0 l 1
 240 547 l 1
 323 547 l 1
 558 0 l 1
EndSplineSet
Substitution2: "'locl' Localized Forms in Cyrillic lookup 1 subtable" uni043B.loclBGR
Substitution2: "'locl' Localized Forms in Cyrillic lookup 0 subtable" uni043B.loclBGR
EndChar

StartChar: afii10078
Encoding: 220 1084 156
Width: 738
GlyphClass: 2
Flags: MW
HStem: 0 21G<63 63 63 137 337 337 337 401 601 601 601 675> 527 20G<63 178 178 178 560 675 675 675>
VStem: 63 74<0 466 0 547> 601 74<0 466 466 466>
AnchorPoint: "Anchor-0" 369 623 basechar 0
LayerCount: 2
Fore
SplineSet
63 0 m 1
 63 547 l 1
 178 547 l 1
 369 103 l 1
 560 547 l 1
 675 547 l 1
 675 0 l 1
 601 0 l 1
 601 466 l 1
 401 0 l 1
 337 0 l 1
 137 466 l 1
 137 0 l 1
 63 0 l 1
EndSplineSet
EndChar

StartChar: afii10079
Encoding: 221 1085 157
Width: 602
GlyphClass: 2
Flags: MW
HStem: 0 21G<63 137 63 63 465 539 465 465> 245 67<137 465 137 465> 527 20G<63 137 137 137 465 539 539 539>
VStem: 63 74<0 245 0 312 312 547> 465 74<0 245 245 245 312 547>
AnchorPoint: "Anchor-0" 301 623 basechar 0
LayerCount: 2
Fore
SplineSet
539 0 m 1
 465 0 l 1
 465 245 l 1
 137 245 l 1
 137 0 l 1
 63 0 l 1
 63 547 l 1
 137 547 l 1
 137 312 l 1
 465 312 l 1
 465 547 l 1
 539 547 l 1
 539 0 l 1
EndSplineSet
EndChar

StartChar: afii10080
Encoding: 222 1086 158
Width: 655
GlyphClass: 2
Flags: MW
HStem: -13 68<270 392 270 414.5> 492 68<266 388>
VStem: 42 75<209.5 335 209.5 356> 538 75<208 335.5>
AnchorPoint: "Anchor-0" 327 623 basechar 0
LayerCount: 2
Fore
SplineSet
332 560 m 0
 493 560 613 437 613 272 c 0
 613 108 495 -13 334 -13 c 0
 167 -13 42 109 42 273 c 0
 42 439 164 560 332 560 c 0
326 492 m 0
 206 492 117 398 117 272 c 0
 117 147 208 55 332 55 c 0
 452 55 538 145 538 271 c 0
 538 400 450 492 326 492 c 0
EndSplineSet
EndChar

StartChar: afii10081
Encoding: 223 1087 159
Width: 597
GlyphClass: 2
Flags: MW
HStem: 0 21G<63 137 63 63 460 534 460 460> 480 67<137 460 137 137>
VStem: 63 74<0 480 0 547 0 547> 460 74<0 480 480 480>
AnchorPoint: "Anchor-0" 299 623 basechar 0
LayerCount: 2
Fore
SplineSet
534 0 m 1
 460 0 l 1
 460 480 l 1
 137 480 l 1
 137 0 l 1
 63 0 l 1
 63 547 l 1
 534 547 l 1
 534 0 l 1
EndSplineSet
Substitution2: "'locl' Localized Forms in Cyrillic lookup 1 subtable" uni043F.loclBGR
Substitution2: "'locl' Localized Forms in Cyrillic lookup 0 subtable" uni043F.loclBGR
EndChar

StartChar: afii10082
Encoding: 224 1088 160
Width: 682
GlyphClass: 2
Flags: MW
HStem: -192 21G<63 137 63 63> -13 68<304.5 410.5 287.5 432> 492 68<305 409.5>
VStem: 63 74<-192 94 453 547> 565 75<209.5 335.5>
AnchorPoint: "Anchor-0" 335 623 basechar 0
LayerCount: 2
Fore
SplineSet
63 547 m 1
 137 547 l 1
 137 453 l 1
 183 523 258 560 352 560 c 0
 515 560 640 436 640 273 c 0
 640 112 514 -13 350 -13 c 0
 259 -13 185 24 137 94 c 1
 137 -192 l 1
 63 -192 l 1
 63 547 l 1
346 492 m 0
 226 492 132 396 132 273 c 0
 132 150 226 55 349 55 c 0
 472 55 565 148 565 271 c 0
 565 400 473 492 346 492 c 0
EndSplineSet
EndChar

StartChar: afii10083
Encoding: 225 1089 161
Width: 647
GlyphClass: 2
Flags: MW
HStem: -13 68<275.5 373> 492 68<273 374.5>
VStem: 42 75<212 334.5 212 354.5>
AnchorPoint: "Anchor-0" 335 623 basechar 0
LayerCount: 2
Fore
SplineSet
524 161 m 1
 608 161 l 1
 577 103 555 74 518 46 c 0
 468 7 406 -13 340 -13 c 0
 172 -13 42 112 42 275 c 0
 42 434 171 560 335 560 c 0
 459 560 563 491 607 381 c 1
 524 381 l 1
 482 453 415 492 334 492 c 0
 212 492 117 396 117 273 c 0
 117 151 214 55 337 55 c 0
 415 55 467 85 524 161 c 1
EndSplineSet
EndChar

StartChar: afii10084
Encoding: 226 1090 162
Width: 384
GlyphClass: 2
Flags: MW
HStem: 0 21G<156 230 156 156> 480 67<12 156 12 372 230 372 230 230>
VStem: 156 74<0 480 0 480>
AnchorPoint: "Anchor-0" 192 623 basechar 0
LayerCount: 2
Fore
SplineSet
372 480 m 1
 230 480 l 1
 230 0 l 1
 156 0 l 1
 156 480 l 1
 12 480 l 1
 12 547 l 1
 372 547 l 1
 372 480 l 1
EndSplineSet
Substitution2: "'locl' Localized Forms in Cyrillic lookup 1 subtable" uni0442.loclBGR
Substitution2: "'locl' Localized Forms in Cyrillic lookup 0 subtable" uni0442.loclBGR
EndChar

StartChar: afii10085
Encoding: 227 1091 163
Width: 536
GlyphClass: 2
Flags: MW
HStem: -192 21G<132 132 132 211> 527 20G<9 90 90 90 448 527 527 527>
AnchorPoint: "Anchor-0" 268 623 basechar 0
LayerCount: 2
Fore
SplineSet
132 -192 m 1
 221 18 l 1
 9 547 l 1
 90 547 l 1
 263 111 l 1
 448 547 l 1
 527 547 l 1
 211 -192 l 1
 132 -192 l 1
EndSplineSet
EndChar

StartChar: afii10086
Encoding: 228 1092 164
Width: 784
GlyphClass: 2
Flags: MW
HStem: -192 21G<355 429 355 355> -12 68<355 355> 491 68<355 355> 719 20G<355 429 429 429>
VStem: 40 75<205.5 340.5 205.5 360> 355 74<-192 -12 -192 -12 56 491 559 739> 669 75<205.5 340.5>
CounterMasks: 1 0e
AnchorPoint: "Anchor-0" 392 805 basechar 0
LayerCount: 2
Fore
SplineSet
355 739 m 1
 429 739 l 1
 429 559 l 1
 652 549 744 447 744 273 c 0
 744 99 652 -2 429 -12 c 1
 429 -192 l 1
 355 -192 l 1
 355 -12 l 1
 132 -2 40 99 40 273 c 0
 40 447 132 549 355 559 c 1
 355 739 l 1
355 491 m 1
 182 482 115 408 115 273 c 0
 115 138 182 65 355 56 c 1
 355 491 l 1
429 56 m 1
 602 65 669 138 669 273 c 0
 669 408 602 482 429 491 c 1
 429 56 l 1
EndSplineSet
EndChar

StartChar: afii10087
Encoding: 229 1093 165
Width: 480
GlyphClass: 2
Flags: MW
HStem: 0 21G<8 8 8 92 387 387 387 472> 527 20G<8 92 92 92 387 472 472 472>
AnchorPoint: "Anchor-0" 240 623 basechar 0
LayerCount: 2
Fore
SplineSet
8 0 m 1
 198 279 l 1
 8 547 l 1
 92 547 l 1
 240 336 l 1
 387 547 l 1
 472 547 l 1
 281 279 l 1
 472 0 l 1
 387 0 l 1
 240 219 l 1
 92 0 l 1
 8 0 l 1
EndSplineSet
EndChar

StartChar: afii10088
Encoding: 230 1094 166
Width: 622
GlyphClass: 2
Flags: MW
HStem: 0 67<137 450 524 535> 527 20G<63 137 137 137 450 524 524 524>
VStem: 63 74<67 547 67 547 67 547> 450 74<67 547 67 547> 562 51<-126 67>
AnchorPoint: "Anchor-0" 293 623 basechar 0
LayerCount: 2
Fore
SplineSet
524 547 m 1
 524 67 l 1
 613 67 l 1
 613 -126 l 1
 562 -126 l 1
 535 0 l 1
 63 0 l 1
 63 547 l 1
 137 547 l 1
 137 67 l 1
 450 67 l 1
 450 547 l 1
 524 547 l 1
EndSplineSet
Substitution2: "'locl' Localized Forms in Cyrillic lookup 1 subtable" uni0446.loclBGR
Substitution2: "'locl' Localized Forms in Cyrillic lookup 0 subtable" uni0446.loclBGR
EndChar

StartChar: afii10089
Encoding: 231 1095 167
Width: 523
GlyphClass: 2
Flags: MW
HStem: 0 21G<386 460 386 386> 208 67<212 246.5> 527 20G<45 119 119 119 386 460 460 460>
VStem: 45 74<381 547> 386 74<0 218 218 218 284 547 0 547>
AnchorPoint: "Anchor-0" 250 623 basechar 0
LayerCount: 2
Fore
SplineSet
460 547 m 1
 460 0 l 1
 386 0 l 1
 386 218 l 1
 336 212 279 208 214 208 c 0
 180 208 134 220 108 239 c 0
 65 269 45 318 45 381 c 2
 45 547 l 1
 119 547 l 1
 119 381 l 2
 119 297 151 275 273 275 c 0
 314 275 342 278 386 284 c 1
 386 547 l 1
 460 547 l 1
EndSplineSet
EndChar

StartChar: afii10090
Encoding: 232 1096 168
Width: 802
GlyphClass: 2
Flags: MW
HStem: 0 67<137 364 438 665> 527 20G<63 137 137 137 364 438 438 438 665 739 739 739>
VStem: 63 74<67 547 67 547 67 547> 364 74<67 547 67 547> 665 74<67 547>
CounterMasks: 1 38
AnchorPoint: "Anchor-0" 401 623 basechar 0
LayerCount: 2
Fore
SplineSet
739 0 m 1
 63 0 l 1
 63 547 l 1
 137 547 l 1
 137 67 l 1
 364 67 l 1
 364 547 l 1
 438 547 l 1
 438 67 l 1
 665 67 l 1
 665 547 l 1
 739 547 l 1
 739 0 l 1
EndSplineSet
Substitution2: "'locl' Localized Forms in Cyrillic lookup 1 subtable" uni0448.loclBGR
Substitution2: "'locl' Localized Forms in Cyrillic lookup 0 subtable" uni0448.loclBGR
EndChar

StartChar: afii10091
Encoding: 233 1097 169
Width: 837
GlyphClass: 2
Flags: MW
HStem: 0 67<137 364 438 665 739 750> 527 20G<63 137 137 137 364 438 438 438 665 739 739 739>
VStem: 63 74<67 547 67 547 67 547> 364 74<67 547 67 547> 665 74<67 547 67 547>
CounterMasks: 1 38
AnchorPoint: "Anchor-0" 401 623 basechar 0
LayerCount: 2
Fore
SplineSet
739 547 m 1
 739 67 l 1
 828 67 l 1
 828 -126 l 1
 777 -126 l 1
 750 0 l 1
 63 0 l 1
 63 547 l 1
 137 547 l 1
 137 67 l 1
 364 67 l 1
 364 547 l 1
 438 547 l 1
 438 67 l 1
 665 67 l 1
 665 547 l 1
 739 547 l 1
EndSplineSet
Substitution2: "'locl' Localized Forms in Cyrillic lookup 1 subtable" uni0449.loclBGR
Substitution2: "'locl' Localized Forms in Cyrillic lookup 0 subtable" uni0449.loclBGR
EndChar

StartChar: afii10092
Encoding: 234 1098 170
Width: 631
GlyphClass: 2
Flags: MW
HStem: 0 67<259 401 401 420> 261 67<259 420 259 401> 480 67<12 185 12 259>
VStem: 185 74<67 261 328 480 480 480> 533 75<132.5 195.5>
AnchorPoint: "Anchor-0" 222 623 basechar 0
LayerCount: 2
Fore
SplineSet
420 328 m 2
 535 328 608 258 608 164 c 0
 608 70 535 0 420 0 c 2
 185 0 l 1
 185 480 l 1
 12 480 l 1
 12 547 l 1
 259 547 l 1
 259 328 l 1
 420 328 l 2
259 261 m 1
 259 67 l 1
 401 67 l 2
 491 67 533 101 533 164 c 0
 533 227 491 261 401 261 c 2
 259 261 l 1
EndSplineSet
Substitution2: "'locl' Localized Forms in Cyrillic lookup 1 subtable" uni044A.loclBGR
Substitution2: "'locl' Localized Forms in Cyrillic lookup 0 subtable" uni044A.loclBGR
EndChar

StartChar: afii10093
Encoding: 235 1099 171
Width: 679
GlyphClass: 2
Flags: MW
HStem: 0 67<137 269 269 288> 261 67<137 288 137 269> 527 20G<63 137 137 137 542 616 616 616>
VStem: 63 74<67 261 67 328 328 547> 401 75<132.5 195.5> 542 74<0 547 0 547>
AnchorPoint: "Anchor-0" 340 623 basechar 0
LayerCount: 2
Fore
SplineSet
137 261 m 1
 137 67 l 1
 269 67 l 2
 359 67 401 101 401 164 c 0
 401 227 359 261 269 261 c 2
 137 261 l 1
288 328 m 2
 403 328 476 258 476 164 c 0
 476 70 403 0 288 0 c 2
 63 0 l 1
 63 547 l 1
 137 547 l 1
 137 328 l 1
 288 328 l 2
616 547 m 1
 616 0 l 1
 542 0 l 1
 542 547 l 1
 616 547 l 1
EndSplineSet
Substitution2: "'locl' Localized Forms in Cyrillic lookup 1 subtable" uni044B.loclBGR
Substitution2: "'locl' Localized Forms in Cyrillic lookup 0 subtable" uni044B.loclBGR
EndChar

StartChar: afii10094
Encoding: 236 1100 172
Width: 509
GlyphClass: 2
Flags: MW
HStem: 0 67<137 279 279 298> 261 67<137 298 137 279> 527 20G<63 137 137 137>
VStem: 63 74<67 261 67 328 328 547> 411 75<132.5 195.5>
AnchorPoint: "Anchor-0" 100 623 basechar 0
LayerCount: 2
Fore
SplineSet
137 261 m 1
 137 67 l 1
 279 67 l 2
 369 67 411 101 411 164 c 0
 411 227 369 261 279 261 c 2
 137 261 l 1
298 328 m 2
 413 328 486 258 486 164 c 0
 486 70 413 0 298 0 c 2
 63 0 l 1
 63 547 l 1
 137 547 l 1
 137 328 l 1
 298 328 l 2
EndSplineSet
Substitution2: "'locl' Localized Forms in Cyrillic lookup 1 subtable" uni044C.loclBGR
Substitution2: "'locl' Localized Forms in Cyrillic lookup 0 subtable" uni044C.loclBGR
EndChar

StartChar: afii10095
Encoding: 237 1101 173
Width: 644
GlyphClass: 2
Flags: MW
HStem: -13 68<268 363.5 268 388> 243 67<199 524 199 525 199 524> 492 68<269.5 364.5>
VStem: 525 77<243 243>
AnchorPoint: "Anchor-0" 307 623 basechar 0
LayerCount: 2
Fore
SplineSet
124 155 m 1
 164 95 229 55 307 55 c 0
 420 55 511 136 525 243 c 1
 199 243 l 1
 199 310 l 1
 524 310 l 1
 507 415 419 492 310 492 c 0
 229 492 166 455 124 387 c 1
 39 387 l 1
 86 494 185 560 309 560 c 0
 473 560 602 434 602 275 c 0
 602 112 472 -13 304 -13 c 0
 178 -13 90 56 39 155 c 1
 124 155 l 1
EndSplineSet
EndChar

StartChar: afii10096
Encoding: 238 1102 174
Width: 857
GlyphClass: 2
Flags: MW
HStem: -17 68<463 589.5 463 612> 0 21G<63 137 63 63> 245 67<137 232 137 232> 496 68<461.5 586> 527 20G<63 137 137 137>
VStem: 63 74<0 245 0 312 312 547> 232 74<245 245 312 312> 739 76<207 335.5>
AnchorPoint: "Anchor-0" 474 627 basechar 0
LayerCount: 2
Fore
SplineSet
524 496 m 0xb7
 399 496 306 402 306 275 c 0
 306 144 398 51 528 51 c 0
 651 51 739 143 739 271 c 0
 739 400 648 496 524 496 c 0xb7
524 564 m 0
 692 564 815 441 815 272 c 0
 815 106 694 -17 530 -17 c 0xb7
 366 -17 247 93 232 245 c 1
 137 245 l 1
 137 0 l 1
 63 0 l 1
 63 547 l 1
 137 547 l 1x6f
 137 312 l 1
 232 312 l 1
 249 457 370 564 524 564 c 0
EndSplineSet
Substitution2: "'locl' Localized Forms in Cyrillic lookup 1 subtable" uni044E.loclBGR
Substitution2: "'locl' Localized Forms in Cyrillic lookup 0 subtable" uni044E.loclBGR
EndChar

StartChar: afii10097
Encoding: 239 1103 175
Width: 505
GlyphClass: 2
Flags: MW
HStem: 0 21G<9 93 9 9 368 368 368 442> 221 67<247 247 247 368> 480 67<222 241 241 368>
VStem: 34 75<353 415 353 430.5> 368 74<0 221 221 221 288 480 480 480>
AnchorPoint: "Anchor-0" 261 623 basechar 0
LayerCount: 2
Fore
SplineSet
368 288 m 1
 368 480 l 1
 241 480 l 2
 151 480 109 446 109 384 c 0
 109 322 151 288 241 288 c 2
 368 288 l 1
247 221 m 1
 93 0 l 1
 9 0 l 1
 167 227 l 1
 84 246 34 307 34 384 c 0
 34 477 107 547 222 547 c 2
 442 547 l 1
 442 0 l 1
 368 0 l 1
 368 221 l 1
 247 221 l 1
EndSplineSet
Substitution2: "'locl' Localized Forms in Cyrillic lookup 0 subtable" uni044F.loclBGR
EndChar

StartChar: afii61352
Encoding: 240 8470 176
Width: 1053
GlyphClass: 2
Flags: MW
HStem: 0 21G<76 76 76 150 548 548 548 622> 316 67<683 988 683 988> 442 63<812 860 812 877> 682 63<810 858>
VStem: 76 74<0 640 0 739> 548 74<0 739 136 739 0 739> 683 67<569.5 618.5 569.5 635> 921 67<568.5 617.5>
LayerCount: 2
Fore
SplineSet
837 745 m 0
 919 745 988 675 988 594 c 0
 988 511 919 442 835 442 c 0
 752 442 683 510 683 593 c 0
 683 677 752 745 837 745 c 0
834 682 m 0
 786 682 750 643 750 594 c 0
 750 545 788 505 836 505 c 0
 884 505 921 544 921 593 c 0
 921 642 882 682 834 682 c 0
683 383 m 1
 988 383 l 1
 988 316 l 1
 683 316 l 1
 683 383 l 1
76 0 m 1
 76 739 l 1
 176 739 l 1
 548 136 l 1
 548 739 l 1
 622 739 l 1
 622 0 l 1
 548 0 l 1
 150 640 l 1
 150 0 l 1
 76 0 l 1
EndSplineSet
EndChar

StartChar: afii10071
Encoding: 241 1105 177
Width: 650
GlyphClass: 2
Flags: MW
HStem: -13 68<272.5 370.5 272.5 390.5> 249 67<118 537 118 611 116 537> 492 68<273 378> 623 126<219 293 219 293 219 366 366 440>
VStem: 42 74<249 249 249 355.5>
AnchorPoint: "Anchor-0" 329 805 basechar 0
LayerCount: 2
Fore
SplineSet
611 249 m 1
 116 249 l 1
 122 141 216 55 329 55 c 0
 412 55 489 105 520 180 c 1
 597 180 l 1
 557 65 450 -13 331 -13 c 0
 169 -13 42 114 42 276 c 0
 42 435 167 560 325 560 c 0
 433 560 530 503 578 411 c 0
 602 365 611 322 611 249 c 1
118 316 m 1
 537 316 l 1
 512 425 431 492 325 492 c 0
 221 492 138 421 118 316 c 1
219 749 m 1
 293 749 l 1
 293 623 l 1
 219 623 l 1
 219 749 l 1
366 749 m 1
 440 749 l 1
 440 623 l 1
 366 623 l 1
 366 749 l 1
EndSplineSet
EndChar

StartChar: afii10099
Encoding: 242 1106 178
Width: 662
GlyphClass: 2
Flags: MW
HStem: -181 67<414 465 414 490> 0 21G<135 209 135 135 525 525 599 599> 412 68<337.5 391.5> 574 67<12 135 12 135 209 396> 719 20G<135 209 209 209>
VStem: 135 74<0 220 396 574 641 739> 525 74<0 214>
AnchorPoint: "Anchor-0" 345 805 basechar 0
LayerCount: 2
Fore
SplineSet
414 -181 m 1
 414 -114 l 1
 516 -114 525 -35 525 0 c 2
 525 214 l 2
 525 280 513 323 485 356 c 0
 456 391 417 412 366 412 c 0
 309 412 266 385 237 341 c 0
 217 311 209 277 209 220 c 2
 209 0 l 1
 135 0 l 1
 135 574 l 1
 12 574 l 1
 12 641 l 1
 135 641 l 1
 135 739 l 1
 209 739 l 1
 209 641 l 1
 396 641 l 1
 396 574 l 1
 209 574 l 1
 209 396 l 1
 246 450 298 480 372 480 c 0
 452 480 511 449 552 396 c 0
 584 352 599 296 599 214 c 2
 599 0 l 2
 599 -60 566 -181 414 -181 c 1
EndSplineSet
EndChar

StartChar: afii10100
Encoding: 243 1107 179
Width: 355
GlyphClass: 2
Flags: MW
HStem: 0 21G<63 137 63 63> 480 67<137 343 137 137>
VStem: 63 74<0 480 0 547 0 547>
AnchorPoint: "Anchor-0" 205 805 basechar 0
LayerCount: 2
Fore
SplineSet
107 666 m 1
 300 782 l 1
 334 724 l 1
 141 610 l 1
 107 666 l 1
343 547 m 1
 343 480 l 1
 137 480 l 1
 137 0 l 1
 63 0 l 1
 63 547 l 1
 343 547 l 1
EndSplineSet
EndChar

StartChar: afii10101
Encoding: 244 1108 180
Width: 644
GlyphClass: 2
Flags: MW
HStem: -13 68<280.5 376 280.5 403> 243 67<120 445 120 445 119 445> 492 68<279.5 374.5>
VStem: 42 77<243 243 243 354.5>
AnchorPoint: "Anchor-0" 335 623 basechar 0
LayerCount: 2
Fore
SplineSet
520 155 m 1
 605 155 l 1
 554 56 466 -13 340 -13 c 0
 172 -13 42 112 42 275 c 0
 42 434 171 560 335 560 c 0
 459 560 558 494 605 387 c 1
 520 387 l 1
 478 455 415 492 334 492 c 0
 225 492 137 415 120 310 c 1
 445 310 l 1
 445 243 l 1
 119 243 l 1
 133 136 224 55 337 55 c 0
 415 55 480 95 520 155 c 1
EndSplineSet
EndChar

StartChar: afii10102
Encoding: 245 1109 181
Width: 388
GlyphClass: 2
Flags: MW
HStem: -13 68<163 221 163 243.5> 492 68<170 216>
VStem: 38 75<397 435 397 450.5> 286 75<122.5 175>
AnchorPoint: "Anchor-0" 194 623 basechar 0
LayerCount: 2
Fore
SplineSet
18 161 m 1
 91 161 l 1
 95 93 132 55 194 55 c 0
 248 55 286 95 286 150 c 0
 286 200 266 220 180 255 c 0
 103 287 102 287 79 308 c 0
 52 333 38 366 38 406 c 0
 38 495 103 560 193 560 c 0
 281 560 344 500 347 412 c 1
 272 412 l 1
 268 464 240 492 192 492 c 0
 148 492 113 457 113 413 c 0
 113 381 129 358 164 340 c 0
 180 333 184 331 266 297 c 0
 330 270 361 224 361 157 c 0
 361 57 293 -13 194 -13 c 0
 88 -13 19 55 18 161 c 1
EndSplineSet
EndChar

StartChar: afii10103
Encoding: 246 1110 182
Width: 200
GlyphClass: 2
Flags: MW
HStem: 0 21G<63 63 63 137> 527 20G<63 137 137 137> 613 126<63 137 63 137>
VStem: 63 74<0 547 0 547 613 739>
AnchorPoint: "Anchor-0" 100 805 basechar 0
LayerCount: 2
Fore
SplineSet
63 0 m 1
 63 547 l 1
 137 547 l 1
 137 0 l 1
 63 0 l 1
63 613 m 1
 63 739 l 1
 137 739 l 1
 137 613 l 1
 63 613 l 1
EndSplineSet
Substitution2: "Single Substitution lookup 5 subtable" uni0456.dotless
EndChar

StartChar: afii10104
Encoding: 247 1111 183
Width: 200
GlyphClass: 2
Flags: MW
HStem: 0 21G<64 64 64 138> 527 20G<64 138 138 138> 623 126<-10 64 -10 64 -10 137 137 211>
VStem: -10 74<623 749> 64 74<0 547 0 547> 137 74<623 749 623 749>
AnchorPoint: "Anchor-0" 100 805 basechar 0
LayerCount: 2
Fore
SplineSet
-10 749 m 1xf0
 64 749 l 1
 64 623 l 1
 -10 623 l 1
 -10 749 l 1xf0
137 749 m 1xe4
 211 749 l 1
 211 623 l 1
 137 623 l 1
 137 749 l 1xe4
64 0 m 1xe8
 64 547 l 1
 138 547 l 1
 138 0 l 1
 64 0 l 1xe8
EndSplineSet
EndChar

StartChar: afii10105
Encoding: 248 1112 184
Width: 203
GlyphClass: 2
Flags: MW
HStem: -192 21G<-45 -45> 527 20G<66 140 140 140> 613 126<66 140 66 140>
VStem: 66 74<38 547 613 739>
AnchorPoint: "Anchor-0" 103 805 basechar 0
LayerCount: 2
Fore
SplineSet
140 547 m 1
 140 38 l 2
 140 -72 122 -118 65 -158 c 0
 33 -180 1 -190 -45 -192 c 1
 -45 -121 l 1
 38 -116 66 -76 66 38 c 2
 66 547 l 1
 140 547 l 1
66 613 m 1
 66 739 l 1
 140 739 l 1
 140 613 l 1
 66 613 l 1
EndSplineSet
Substitution2: "Single Substitution lookup 5 subtable" uni0458.dotless
EndChar

StartChar: afii10106
Encoding: 249 1113 185
Width: 850
GlyphClass: 2
Flags: MW
HStem: 0 67<478 620 620 639> 261 67<478 639 478 620> 527 20G<383 478 478 478>
VStem: 404 74<67 261 328 452 452 452> 752 75<132.5 195.5>
AnchorPoint: "Anchor-0" 437 623 basechar 0
LayerCount: 2
Fore
SplineSet
639 328 m 2
 754 328 827 258 827 164 c 0
 827 70 754 0 639 0 c 2
 404 0 l 1
 404 452 l 1
 92 0 l 1
 5 0 l 1
 383 547 l 1
 478 547 l 1
 478 328 l 1
 639 328 l 2
478 261 m 1
 478 67 l 1
 620 67 l 2
 710 67 752 101 752 164 c 0
 752 227 710 261 620 261 c 2
 478 261 l 1
EndSplineSet
EndChar

StartChar: afii10107
Encoding: 250 1114 186
Width: 881
GlyphClass: 2
Flags: MW
HStem: 0 67<509 651 651 670> 261 67<137 435 137 435 509 651> 527 20G<63 137 137 137 435 509 509 509>
VStem: 63 74<0 261 0 328 328 547> 435 74<67 261 67 261 67 261 328 547> 783 75<132.5 195.5>
AnchorPoint: "Anchor-0" 460 623 basechar 0
LayerCount: 2
Fore
SplineSet
670 328 m 2
 785 328 858 258 858 164 c 0
 858 70 785 0 670 0 c 2
 435 0 l 1
 435 261 l 1
 137 261 l 1
 137 0 l 1
 63 0 l 1
 63 547 l 1
 137 547 l 1
 137 328 l 1
 435 328 l 1
 435 547 l 1
 509 547 l 1
 509 328 l 1
 670 328 l 2
509 261 m 1
 509 67 l 1
 651 67 l 2
 741 67 783 101 783 164 c 0
 783 227 741 261 651 261 c 2
 509 261 l 1
EndSplineSet
EndChar

StartChar: afii10108
Encoding: 251 1115 187
Width: 662
GlyphClass: 2
Flags: MW
HStem: 0 21G<135 209 135 135 525 599 525 525> 412 68<337.5 391.5> 574 67<12 135 12 135 209 396> 719 20G<135 209 209 209>
VStem: 135 74<0 220 396 574 641 739> 525 74<0 214 0 247>
AnchorPoint: "Anchor-0" 345 805 basechar 0
LayerCount: 2
Fore
SplineSet
135 574 m 1
 12 574 l 1
 12 641 l 1
 135 641 l 1
 135 739 l 1
 209 739 l 1
 209 641 l 1
 396 641 l 1
 396 574 l 1
 209 574 l 1
 209 396 l 1
 246 450 298 480 372 480 c 0
 452 480 511 449 552 396 c 0
 584 352 599 296 599 214 c 2
 599 0 l 1
 525 0 l 1
 525 214 l 2
 525 280 513 323 485 356 c 0
 456 391 417 412 366 412 c 0
 309 412 266 385 237 341 c 0
 217 311 209 277 209 220 c 2
 209 0 l 1
 135 0 l 1
 135 574 l 1
EndSplineSet
EndChar

StartChar: afii10109
Encoding: 252 1116 188
Width: 488
GlyphClass: 2
Flags: MW
HStem: 0 21G<63 137 63 63 386 483 386 386> 527 20G<63 137 137 137 387 483 483 483>
VStem: 63 74<0 258 303 547>
AnchorPoint: "Anchor-0" 262 805 basechar 0
LayerCount: 2
Fore
SplineSet
164 666 m 1
 357 782 l 1
 391 724 l 1
 198 610 l 1
 164 666 l 1
63 547 m 1
 137 547 l 1
 137 303 l 1
 387 547 l 1
 483 547 l 1
 210 282 l 1
 483 0 l 1
 386 0 l 1
 137 258 l 1
 137 0 l 1
 63 0 l 1
 63 547 l 1
EndSplineSet
EndChar

StartChar: section
Encoding: 253 167 189
Width: 615
GlyphClass: 2
Flags: MW
HStem: -141 67<274 347 274 367> 685 67<276.5 336.5>
VStem: 87 68<334.5 370 334.5 370> 135 68<572.5 618.5 572.5 636> 433 68<4 55> 461 68<262 298.5>
LayerCount: 2
Fore
SplineSet
483 606 m 1xd0
 412 606 l 1
 401 659 366 685 307 685 c 0
 246 685 203 646 203 591 c 0
 203 554 224 524 262 505 c 2
 420 431 l 2
 493 396 529 350 529 289 c 0xd4
 529 234 502 183 453 146 c 1
 487 111 501 78 501 37 c 0
 501 -65 421 -141 313 -141 c 0
 196 -141 110 -56 106 64 c 1
 174 64 l 1
 180 -19 235 -74 313 -74 c 0
 381 -74 433 -27 433 35 c 0
 433 75 406 104 339 137 c 2
 196 207 l 2
 114 248 87 280 87 339 c 0xe8
 87 401 115 450 173 491 c 1
 146 521 135 548 135 589 c 0
 135 683 208 752 307 752 c 0
 404 752 476 692 483 606 c 1xd0
400 365 m 2
 212 454 l 1
 177 430 155 390 155 350 c 0xe0
 155 319 172 296 209 278 c 2
 407 182 l 1
 440 206 461 244 461 280 c 0
 461 317 441 346 400 365 c 2
EndSplineSet
EndChar

StartChar: afii10110
Encoding: 254 1118 190
Width: 536
GlyphClass: 2
Flags: MW
HStem: -192 21G<132 132 132 211> 527 20G<9 90 90 90 448 527 527 527> 616 46<243.5 292.5 243.5 308> 726 20G<116 190 190 190 346 420 420 420>
VStem: 116 74<717 746> 346 74<717 746>
AnchorPoint: "Anchor-0" 268 805 basechar 0
LayerCount: 2
Fore
SplineSet
116 746 m 1
 190 746 l 1
 190 688 219 662 268 662 c 0
 317 662 346 688 346 746 c 1
 420 746 l 1
 405 656 348 616 268 616 c 0
 188 616 131 656 116 746 c 1
132 -192 m 1
 221 18 l 1
 9 547 l 1
 90 547 l 1
 263 111 l 1
 448 547 l 1
 527 547 l 1
 211 -192 l 1
 132 -192 l 1
EndSplineSet
EndChar

StartChar: afii10193
Encoding: 255 1119 191
Width: 588
GlyphClass: 2
Flags: MW
HStem: 0 67<137 254 334 451 137 525 334 334> 527 20G<63 137 137 137 451 525 525 525>
VStem: 63 74<67 547 67 547 67 547> 269 50<-131 -131> 451 74<67 547 0 547>
CounterMasks: 1 38
AnchorPoint: "Anchor-0" 294 623 basechar 0
LayerCount: 2
Fore
SplineSet
525 547 m 1
 525 0 l 1
 334 0 l 1
 319 -131 l 1
 269 -131 l 1
 254 0 l 1
 63 0 l 1
 63 547 l 1
 137 547 l 1
 137 67 l 1
 451 67 l 1
 451 547 l 1
 525 547 l 1
EndSplineSet
EndChar

StartChar: Adieresis
Encoding: 257 196 192
Width: 740
GlyphClass: 2
Flags: MW
HStem: 0 21G<11 11 11 89 648 648 648 729> 249 67<225 512 225 541 197 512> 719 20G<328 411 411 411> 805 126<260 334 260 334 260 407 407 481>
AnchorPoint: "Anchor-0" 370 987 basechar 0
LayerCount: 2
Fore
SplineSet
11 0 m 1
 328 739 l 1
 411 739 l 1
 729 0 l 1
 648 0 l 1
 541 249 l 1
 197 249 l 1
 89 0 l 1
 11 0 l 1
225 316 m 1
 512 316 l 1
 370 655 l 1
 225 316 l 1
260 931 m 1
 334 931 l 1
 334 805 l 1
 260 805 l 1
 260 931 l 1
407 931 m 1
 481 931 l 1
 481 805 l 1
 407 805 l 1
 407 931 l 1
EndSplineSet
EndChar

StartChar: Aacute
Encoding: 258 193 193
Width: 740
GlyphClass: 2
Flags: MW
HStem: 0 21G<11 11 11 89 648 648 648 729> 249 67<225 512 225 541 197 512> 719 20G<328 411 411 411>
AnchorPoint: "Anchor-0" 370 987 basechar 0
LayerCount: 2
Fore
SplineSet
11 0 m 1
 328 739 l 1
 411 739 l 1
 729 0 l 1
 648 0 l 1
 541 249 l 1
 197 249 l 1
 89 0 l 1
 11 0 l 1
225 316 m 1
 512 316 l 1
 370 655 l 1
 225 316 l 1
290 848 m 1
 483 964 l 1
 517 906 l 1
 324 792 l 1
 290 848 l 1
EndSplineSet
EndChar

StartChar: Agrave
Encoding: 259 192 194
Width: 740
GlyphClass: 2
Flags: MW
HStem: 0 21G<11 11 11 89 648 648 648 729> 249 67<225 512 225 541 197 512> 719 20G<328 411 411 411>
AnchorPoint: "Anchor-0" 370 987 basechar 0
LayerCount: 2
Fore
SplineSet
11 0 m 1
 328 739 l 1
 411 739 l 1
 729 0 l 1
 648 0 l 1
 541 249 l 1
 197 249 l 1
 89 0 l 1
 11 0 l 1
225 316 m 1
 512 316 l 1
 370 655 l 1
 225 316 l 1
254 958 m 1
 452 848 l 1
 419 792 l 1
 222 900 l 1
 254 958 l 1
EndSplineSet
EndChar

StartChar: Acircumflex
Encoding: 260 194 195
Width: 740
GlyphClass: 2
Flags: MW
HStem: 0 21G<11 11 11 89 648 648 648 729> 249 67<225 512 225 541 197 512> 719 20G<328 411 411 411>
AnchorPoint: "Anchor-0" 370 987 basechar 0
LayerCount: 2
Fore
SplineSet
11 0 m 1
 328 739 l 1
 411 739 l 1
 729 0 l 1
 648 0 l 1
 541 249 l 1
 197 249 l 1
 89 0 l 1
 11 0 l 1
225 316 m 1
 512 316 l 1
 370 655 l 1
 225 316 l 1
193 805 m 1
 338 931 l 1
 404 931 l 1
 547 805 l 1
 458 805 l 1
 372 879 l 1
 284 805 l 1
 193 805 l 1
EndSplineSet
EndChar

StartChar: Atilde
Encoding: 261 195 196
Width: 740
GlyphClass: 2
Flags: MW
HStem: 0 21G<11 11 11 89 648 648 648 729> 249 67<225 512 225 541 197 512> 719 20G<328 411 411 411> 815 64<423.5 437.5 423.5 443.5> 847 63<311.5 326.5>
AnchorPoint: "Anchor-0" 370 987 basechar 0
LayerCount: 2
Fore
SplineSet
11 0 m 1xe0
 328 739 l 1
 411 739 l 1
 729 0 l 1
 648 0 l 1
 541 249 l 1
 197 249 l 1
 89 0 l 1
 11 0 l 1xe0
225 316 m 1
 512 316 l 1
 370 655 l 1
 225 316 l 1
485 910 m 1xe8
 518 864 l 1
 502 838 460 815 427 815 c 0xf0
 412 815 395 821 361 837 c 0
 346 843 332 847 321 847 c 0xe8
 302 847 294 843 268 821 c 2
 261 815 l 1xf0
 228 861 l 1
 251 892 285 910 321 910 c 0xe8
 339 910 349 907 380 893 c 0
 397 886 419 879 428 879 c 0xf0
 447 879 464 888 485 910 c 1xe8
EndSplineSet
EndChar

StartChar: Aring
Encoding: 262 197 197
Width: 740
GlyphClass: 2
Flags: MW
HStem: 0 21G<11 11 11 89 648 648 648 729> 249 67<225 512 225 541 197 512> 719 20G<328 411 411 411> 792 41<356 384 356 395.5> 935 41<355.5 383.5>
AnchorPoint: "Anchor-0" 370 1002 basechar 0
LayerCount: 2
Fore
SplineSet
11 0 m 1
 328 739 l 1
 411 739 l 1
 729 0 l 1
 648 0 l 1
 541 249 l 1
 197 249 l 1
 89 0 l 1
 11 0 l 1
225 316 m 1
 512 316 l 1
 370 655 l 1
 225 316 l 1
371 976 m 0
 421 976 462 934 462 884 c 0
 462 833 421 792 370 792 c 0
 319 792 278 833 278 883 c 0
 278 935 319 976 371 976 c 0
369 935 m 0
 342 935 319 912 319 883 c 0
 319 855 342 833 370 833 c 0
 398 833 421 856 421 883 c 0
 421 912 398 935 369 935 c 0
EndSplineSet
EndChar

StartChar: Edieresis
Encoding: 263 203 198
Width: 536
GlyphClass: 2
Flags: MW
HStem: 0 67<150 480 150 480> 340 67<150 469 150 469> 672 67<150 480 150 150> 805 126<168 242 168 242 168 315 315 389>
VStem: 76 74<67 340 407 672>
AnchorPoint: "Anchor-0" 278 987 basechar 0
LayerCount: 2
Fore
SplineSet
76 0 m 1
 76 739 l 1
 480 739 l 1
 480 672 l 1
 150 672 l 1
 150 407 l 1
 469 407 l 1
 469 340 l 1
 150 340 l 1
 150 67 l 1
 480 67 l 1
 480 0 l 1
 76 0 l 1
168 931 m 1
 242 931 l 1
 242 805 l 1
 168 805 l 1
 168 931 l 1
315 931 m 1
 389 931 l 1
 389 805 l 1
 315 805 l 1
 315 931 l 1
EndSplineSet
EndChar

StartChar: Eacute
Encoding: 264 201 199
Width: 536
GlyphClass: 2
Flags: MW
HStem: 0 67<150 480 150 480> 340 67<150 469 150 469> 672 67<150 480 150 150>
VStem: 76 74<67 340 407 672>
AnchorPoint: "Anchor-0" 278 987 basechar 0
LayerCount: 2
Fore
SplineSet
76 0 m 1
 76 739 l 1
 480 739 l 1
 480 672 l 1
 150 672 l 1
 150 407 l 1
 469 407 l 1
 469 340 l 1
 150 340 l 1
 150 67 l 1
 480 67 l 1
 480 0 l 1
 76 0 l 1
198 848 m 1
 391 964 l 1
 425 906 l 1
 232 792 l 1
 198 848 l 1
EndSplineSet
EndChar

StartChar: Egrave
Encoding: 265 200 200
Width: 536
GlyphClass: 2
Flags: MW
HStem: 0 67<150 480 150 480> 340 67<150 469 150 469> 672 67<150 480 150 150>
VStem: 76 74<67 340 407 672>
AnchorPoint: "Anchor-0" 278 987 basechar 0
LayerCount: 2
Fore
SplineSet
76 0 m 1
 76 739 l 1
 480 739 l 1
 480 672 l 1
 150 672 l 1
 150 407 l 1
 469 407 l 1
 469 340 l 1
 150 340 l 1
 150 67 l 1
 480 67 l 1
 480 0 l 1
 76 0 l 1
162 958 m 1
 360 848 l 1
 327 792 l 1
 130 900 l 1
 162 958 l 1
EndSplineSet
EndChar

StartChar: Ecircumflex
Encoding: 266 202 201
Width: 536
GlyphClass: 2
Flags: MW
HStem: 0 67<150 480 150 480> 340 67<150 469 150 469> 672 67<150 480 150 150>
VStem: 76 74<67 340 407 672>
AnchorPoint: "Anchor-0" 278 987 basechar 0
LayerCount: 2
Fore
SplineSet
76 0 m 1
 76 739 l 1
 480 739 l 1
 480 672 l 1
 150 672 l 1
 150 407 l 1
 469 407 l 1
 469 340 l 1
 150 340 l 1
 150 67 l 1
 480 67 l 1
 480 0 l 1
 76 0 l 1
101 805 m 1
 246 931 l 1
 312 931 l 1
 455 805 l 1
 366 805 l 1
 280 879 l 1
 192 805 l 1
 101 805 l 1
EndSplineSet
EndChar

StartChar: Idieresis
Encoding: 267 207 202
Width: 226
GlyphClass: 2
Flags: MW
HStem: 0 21G<77 77 77 151> 719 20G<77 151 151 151> 805 126<3 77 3 77 3 150 150 224>
VStem: 3 74<805 931> 77 74<0 739 0 739 0 805 0 931> 150 74<805 931 805 931>
AnchorPoint: "Anchor-0" 113 987 basechar 0
LayerCount: 2
Fore
SplineSet
77 0 m 1xe8
 77 739 l 1
 151 739 l 1
 151 0 l 1
 77 0 l 1xe8
3 931 m 1xf0
 77 931 l 1
 77 805 l 1
 3 805 l 1
 3 931 l 1xf0
150 931 m 1xe4
 224 931 l 1
 224 805 l 1
 150 805 l 1
 150 931 l 1xe4
EndSplineSet
EndChar

StartChar: Iacute
Encoding: 268 205 203
Width: 226
GlyphClass: 2
Flags: MW
HStem: 0 21G<76 76 76 150> 719 20G<76 150 150 150>
VStem: 76 74<0 739 0 739>
AnchorPoint: "Anchor-0" 113 987 basechar 0
LayerCount: 2
Fore
SplineSet
76 0 m 1
 76 739 l 1
 150 739 l 1
 150 0 l 1
 76 0 l 1
-1 848 m 1
 192 964 l 1
 226 906 l 1
 33 792 l 1
 -1 848 l 1
EndSplineSet
EndChar

StartChar: Igrave
Encoding: 269 204 204
Width: 226
GlyphClass: 2
Flags: MW
HStem: 0 21G<76 76 76 150> 719 20G<76 150 150 150>
VStem: 76 74<0 739 0 739>
AnchorPoint: "Anchor-0" 113 987 basechar 0
LayerCount: 2
Fore
SplineSet
76 0 m 1
 76 739 l 1
 150 739 l 1
 150 0 l 1
 76 0 l 1
30 958 m 1
 228 848 l 1
 195 792 l 1
 -2 900 l 1
 30 958 l 1
EndSplineSet
EndChar

StartChar: Icircumflex
Encoding: 270 206 205
Width: 226
GlyphClass: 2
Flags: MW
HStem: 0 21G<76 76 76 150> 719 20G<76 150 150 150>
VStem: 76 74<0 739 0 739>
AnchorPoint: "Anchor-0" 113 987 basechar 0
LayerCount: 2
Fore
SplineSet
76 0 m 1
 76 739 l 1
 150 739 l 1
 150 0 l 1
 76 0 l 1
-64 805 m 1
 81 931 l 1
 147 931 l 1
 290 805 l 1
 201 805 l 1
 115 879 l 1
 27 805 l 1
 -64 805 l 1
EndSplineSet
EndChar

StartChar: Ntilde
Encoding: 271 209 206
Width: 740
GlyphClass: 2
Flags: MW
HStem: 0 21G<76 76 76 150 590 590 590 664> 719 20G<76 176 176 176 590 664 664 664> 815 64<427.5 441.5 427.5 447.5> 847 63<315.5 330.5>
VStem: 76 74<0 650 0 739> 590 74<0 739 126 739 0 739>
AnchorPoint: "Anchor-0" 370 987 basechar 0
LayerCount: 2
Fore
SplineSet
76 0 m 1xcc
 76 739 l 1
 176 739 l 1
 590 126 l 1
 590 739 l 1
 664 739 l 1
 664 0 l 1
 590 0 l 1
 150 650 l 1
 150 0 l 1
 76 0 l 1xcc
489 910 m 1xdc
 522 864 l 1
 506 838 464 815 431 815 c 0xec
 416 815 399 821 365 837 c 0
 350 843 336 847 325 847 c 0xdc
 306 847 298 843 272 821 c 2
 265 815 l 1xec
 232 861 l 1
 255 892 289 910 325 910 c 0xdc
 343 910 353 907 384 893 c 0
 401 886 423 879 432 879 c 0xec
 451 879 468 888 489 910 c 1xdc
EndSplineSet
EndChar

StartChar: Odieresis
Encoding: 272 214 207
Width: 869
GlyphClass: 2
Flags: MW
HStem: -13 68<348.5 521 348.5 542> 684 68<346.5 519.5> 805 126<324 398 324 398 324 471 471 545>
VStem: 44 75<283 454 283 475.5> 750 75<282.5 455.5>
AnchorPoint: "Anchor-0" 434 987 basechar 0
LayerCount: 2
Fore
SplineSet
440 752 m 0
 649 752 825 578 825 369 c 0
 825 159 649 -13 435 -13 c 0
 221 -13 44 160 44 369 c 0
 44 582 220 752 440 752 c 0
431 684 m 0
 262 684 119 539 119 369 c 0
 119 197 262 55 435 55 c 0
 607 55 750 197 750 368 c 0
 750 543 608 684 431 684 c 0
324 931 m 1
 398 931 l 1
 398 805 l 1
 324 805 l 1
 324 931 l 1
471 931 m 1
 545 931 l 1
 545 805 l 1
 471 805 l 1
 471 931 l 1
EndSplineSet
EndChar

StartChar: Oacute
Encoding: 273 211 208
Width: 869
GlyphClass: 2
Flags: MW
HStem: -13 68<348.5 521 348.5 542> 684 68<346.5 519.5>
VStem: 44 75<283 454 283 475.5> 750 75<282.5 455.5>
AnchorPoint: "Anchor-0" 434 987 basechar 0
LayerCount: 2
Fore
SplineSet
440 752 m 0
 649 752 825 578 825 369 c 0
 825 159 649 -13 435 -13 c 0
 221 -13 44 160 44 369 c 0
 44 582 220 752 440 752 c 0
431 684 m 0
 262 684 119 539 119 369 c 0
 119 197 262 55 435 55 c 0
 607 55 750 197 750 368 c 0
 750 543 608 684 431 684 c 0
354 848 m 1
 547 964 l 1
 581 906 l 1
 388 792 l 1
 354 848 l 1
EndSplineSet
EndChar

StartChar: Ograve
Encoding: 274 210 209
Width: 869
GlyphClass: 2
Flags: MW
HStem: -13 68<348.5 521 348.5 542> 684 68<346.5 519.5>
VStem: 44 75<283 454 283 475.5> 750 75<282.5 455.5>
AnchorPoint: "Anchor-0" 434 987 basechar 0
LayerCount: 2
Fore
SplineSet
440 752 m 0
 649 752 825 578 825 369 c 0
 825 159 649 -13 435 -13 c 0
 221 -13 44 160 44 369 c 0
 44 582 220 752 440 752 c 0
431 684 m 0
 262 684 119 539 119 369 c 0
 119 197 262 55 435 55 c 0
 607 55 750 197 750 368 c 0
 750 543 608 684 431 684 c 0
318 958 m 1
 516 848 l 1
 483 792 l 1
 286 900 l 1
 318 958 l 1
EndSplineSet
EndChar

StartChar: Ocircumflex
Encoding: 275 212 210
Width: 869
GlyphClass: 2
Flags: MW
HStem: -13 68<348.5 521 348.5 542> 684 68<346.5 519.5>
VStem: 44 75<283 454 283 475.5> 750 75<282.5 455.5>
AnchorPoint: "Anchor-0" 434 987 basechar 0
LayerCount: 2
Fore
SplineSet
440 752 m 0
 649 752 825 578 825 369 c 0
 825 159 649 -13 435 -13 c 0
 221 -13 44 160 44 369 c 0
 44 582 220 752 440 752 c 0
431 684 m 0
 262 684 119 539 119 369 c 0
 119 197 262 55 435 55 c 0
 607 55 750 197 750 368 c 0
 750 543 608 684 431 684 c 0
257 805 m 1
 402 931 l 1
 468 931 l 1
 611 805 l 1
 522 805 l 1
 436 879 l 1
 348 805 l 1
 257 805 l 1
EndSplineSet
EndChar

StartChar: Otilde
Encoding: 276 213 211
Width: 869
GlyphClass: 2
Flags: MW
HStem: -13 68<348.5 521 348.5 542> 684 68<346.5 519.5> 815 64<495.5 509.5 495.5 515.5> 847 63<383.5 398.5>
VStem: 44 75<283 454 283 475.5> 750 75<282.5 455.5>
AnchorPoint: "Anchor-0" 434 987 basechar 0
LayerCount: 2
Fore
SplineSet
440 752 m 0xcc
 649 752 825 578 825 369 c 0
 825 159 649 -13 435 -13 c 0
 221 -13 44 160 44 369 c 0
 44 582 220 752 440 752 c 0xcc
431 684 m 0
 262 684 119 539 119 369 c 0
 119 197 262 55 435 55 c 0
 607 55 750 197 750 368 c 0
 750 543 608 684 431 684 c 0
557 910 m 1x20
 590 864 l 1
 574 838 532 815 499 815 c 0x20
 484 815 467 821 433 837 c 0
 418 843 404 847 393 847 c 0
 374 847 366 843 340 821 c 2
 333 815 l 1
 300 861 l 1
 323 892 357 910 393 910 c 0x10
 411 910 421 907 452 893 c 0
 469 886 491 879 500 879 c 0
 519 879 536 888 557 910 c 1x20
EndSplineSet
EndChar

StartChar: Scaron
Encoding: 277 352 212
Width: 498
GlyphClass: 2
Flags: MW
HStem: -13 68<232 297.5 232 317> 684 68<212 286.5>
VStem: 46 75<538 592.5 538 611> 401 75<159.5 224.5>
AnchorPoint: "Anchor-0" 259 987 basechar 0
LayerCount: 2
Fore
SplineSet
22 207 m 1
 101 207 l 1
 106 160 116 133 138 107 c 0
 165 74 209 55 255 55 c 0
 340 55 401 117 401 202 c 0
 401 247 383 285 351 308 c 0
 326 325 294 339 236 356 c 0
 149 383 127 394 98 422 c 0
 65 453 46 502 46 553 c 0
 46 669 132 752 251 752 c 0
 372 752 455 672 458 552 c 1
 381 552 l 1
 376 632 324 684 249 684 c 0
 175 684 121 630 121 555 c 0
 121 521 135 488 156 469 c 0
 176 452 198 443 265 423 c 0
 341 400 372 386 403 364 c 0
 449 329 476 271 476 206 c 0
 476 80 381 -13 253 -13 c 0
 120 -13 29 74 22 207 c 1
436 931 m 1
 291 805 l 1
 225 805 l 1
 82 931 l 1
 171 931 l 1
 257 857 l 1
 345 931 l 1
 436 931 l 1
EndSplineSet
EndChar

StartChar: Udieresis
Encoding: 278 220 213
Width: 655
GlyphClass: 2
Flags: MW
HStem: -13 68<297 357.5 297 368.5> 719 20G<76 150 150 150 505 579 579 579> 805 126<217 291 217 291 217 364 364 438>
VStem: 76 74<278 739> 505 74<278 739>
AnchorPoint: "Anchor-0" 327 987 basechar 0
LayerCount: 2
Fore
SplineSet
76 739 m 1
 150 739 l 1
 150 278 l 2
 150 211 161 160 184 125 c 0
 212 82 267 55 327 55 c 0
 388 55 443 82 471 125 c 0
 494 160 505 211 505 278 c 2
 505 739 l 1
 579 739 l 1
 579 278 l 2
 579 183 564 127 527 78 c 0
 483 20 410 -13 327 -13 c 0
 245 -13 172 20 128 78 c 0
 91 127 76 183 76 278 c 2
 76 739 l 1
217 931 m 1
 291 931 l 1
 291 805 l 1
 217 805 l 1
 217 931 l 1
364 931 m 1
 438 931 l 1
 438 805 l 1
 364 805 l 1
 364 931 l 1
EndSplineSet
EndChar

StartChar: Uacute
Encoding: 279 218 214
Width: 655
GlyphClass: 2
Flags: MW
HStem: -13 68<297 357.5 297 368.5> 719 20G<76 150 150 150 505 579 579 579>
VStem: 76 74<278 739> 505 74<278 739>
AnchorPoint: "Anchor-0" 327 987 basechar 0
LayerCount: 2
Fore
SplineSet
76 739 m 1
 150 739 l 1
 150 278 l 2
 150 211 161 160 184 125 c 0
 212 82 267 55 327 55 c 0
 388 55 443 82 471 125 c 0
 494 160 505 211 505 278 c 2
 505 739 l 1
 579 739 l 1
 579 278 l 2
 579 183 564 127 527 78 c 0
 483 20 410 -13 327 -13 c 0
 245 -13 172 20 128 78 c 0
 91 127 76 183 76 278 c 2
 76 739 l 1
247 848 m 1
 440 964 l 1
 474 906 l 1
 281 792 l 1
 247 848 l 1
EndSplineSet
EndChar

StartChar: Ugrave
Encoding: 280 217 215
Width: 655
GlyphClass: 2
Flags: MW
HStem: -13 68<297 357.5 297 368.5> 719 20G<76 150 150 150 505 579 579 579>
VStem: 76 74<278 739> 505 74<278 739>
AnchorPoint: "Anchor-0" 327 987 basechar 0
LayerCount: 2
Fore
SplineSet
76 739 m 1
 150 739 l 1
 150 278 l 2
 150 211 161 160 184 125 c 0
 212 82 267 55 327 55 c 0
 388 55 443 82 471 125 c 0
 494 160 505 211 505 278 c 2
 505 739 l 1
 579 739 l 1
 579 278 l 2
 579 183 564 127 527 78 c 0
 483 20 410 -13 327 -13 c 0
 245 -13 172 20 128 78 c 0
 91 127 76 183 76 278 c 2
 76 739 l 1
211 958 m 1
 409 848 l 1
 376 792 l 1
 179 900 l 1
 211 958 l 1
EndSplineSet
EndChar

StartChar: Ucircumflex
Encoding: 281 219 216
Width: 655
GlyphClass: 2
Flags: MW
HStem: -13 68<297 357.5 297 368.5> 719 20G<76 150 150 150 505 579 579 579>
VStem: 76 74<278 739> 505 74<278 739>
AnchorPoint: "Anchor-0" 327 987 basechar 0
LayerCount: 2
Fore
SplineSet
76 739 m 1
 150 739 l 1
 150 278 l 2
 150 211 161 160 184 125 c 0
 212 82 267 55 327 55 c 0
 388 55 443 82 471 125 c 0
 494 160 505 211 505 278 c 2
 505 739 l 1
 579 739 l 1
 579 278 l 2
 579 183 564 127 527 78 c 0
 483 20 410 -13 327 -13 c 0
 245 -13 172 20 128 78 c 0
 91 127 76 183 76 278 c 2
 76 739 l 1
150 805 m 1
 295 931 l 1
 361 931 l 1
 504 805 l 1
 415 805 l 1
 329 879 l 1
 241 805 l 1
 150 805 l 1
EndSplineSet
EndChar

StartChar: Yacute
Encoding: 282 221 217
Width: 592
GlyphClass: 2
Flags: MW
HStem: 0 21G<258 258 258 332> 719 20G<2 84 84 84 509 590 590 590>
VStem: 258 74<0 247 0 247>
AnchorPoint: "Anchor-0" 296 987 basechar 0
LayerCount: 2
Fore
SplineSet
258 0 m 1
 258 247 l 1
 2 739 l 1
 84 739 l 1
 294 325 l 1
 509 739 l 1
 590 739 l 1
 332 247 l 1
 332 0 l 1
 258 0 l 1
216 848 m 1
 409 964 l 1
 443 906 l 1
 250 792 l 1
 216 848 l 1
EndSplineSet
EndChar

StartChar: Zcaron
Encoding: 283 381 218
Width: 480
GlyphClass: 2
Flags: MW
HStem: 0 67<17 17 101 474> 672 67<28 380 28 463 28 463>
AnchorPoint: "Anchor-0" 249 987 basechar 0
LayerCount: 2
Fore
SplineSet
17 0 m 1
 17 67 l 1
 380 672 l 1
 28 672 l 1
 28 739 l 1
 463 739 l 1
 463 672 l 1
 101 67 l 1
 474 67 l 1
 474 0 l 1
 17 0 l 1
426 931 m 1
 281 805 l 1
 215 805 l 1
 72 931 l 1
 161 931 l 1
 247 857 l 1
 335 931 l 1
 426 931 l 1
EndSplineSet
EndChar

StartChar: Ydieresis
Encoding: 284 376 219
Width: 592
GlyphClass: 2
Flags: MW
HStem: 0 21G<258 258 258 332> 719 20G<2 84 84 84 509 590 590 590> 805 126<186 260 186 260 186 333 333 407>
VStem: 258 74<0 247 0 247>
AnchorPoint: "Anchor-0" 296 987 basechar 0
LayerCount: 2
Fore
SplineSet
258 0 m 1
 258 247 l 1
 2 739 l 1
 84 739 l 1
 294 325 l 1
 509 739 l 1
 590 739 l 1
 332 247 l 1
 332 0 l 1
 258 0 l 1
186 931 m 1
 260 931 l 1
 260 805 l 1
 186 805 l 1
 186 931 l 1
333 931 m 1
 407 931 l 1
 407 805 l 1
 333 805 l 1
 333 931 l 1
EndSplineSet
EndChar

StartChar: adieresis
Encoding: 285 228 220
Width: 683
GlyphClass: 2
Flags: MW
HStem: -13 68<274.5 382.5> 492 68<270.5 377.5 248 391> 527 20G<546 620 620 620> 623 126<241 315 241 315 241 388 388 462>
VStem: 42 75<213.5 335 213.5 354> 546 74<0 96 96 96 213 337 450 547 0 547>
AnchorPoint: "Anchor-0" 351 805 basechar 0
LayerCount: 2
Fore
SplineSet
620 547 m 1xbc
 620 0 l 1
 546 0 l 1
 546 96 l 1
 488 18 429 -13 336 -13 c 0
 167 -13 42 108 42 272 c 0
 42 436 166 560 330 560 c 0xdc
 425 560 491 527 546 450 c 1
 546 547 l 1
 620 547 l 1xbc
329 492 m 0
 212 492 117 395 117 275 c 0
 117 152 214 55 335 55 c 0
 454 55 546 151 546 275 c 0
 546 399 453 492 329 492 c 0
241 749 m 1
 315 749 l 1
 315 623 l 1
 241 623 l 1
 241 749 l 1
388 749 m 1
 462 749 l 1
 462 623 l 1
 388 623 l 1
 388 749 l 1
EndSplineSet
EndChar

StartChar: aacute
Encoding: 286 225 221
Width: 683
GlyphClass: 2
Flags: MW
HStem: -13 68<274.5 382.5> 492 68<270.5 377.5 248 391> 527 20G<546 620 620 620>
VStem: 42 75<213.5 335 213.5 354> 546 74<0 96 96 96 213 337 450 547 0 547>
AnchorPoint: "Anchor-0" 351 805 basechar 0
LayerCount: 2
Fore
SplineSet
620 547 m 1xb8
 620 0 l 1
 546 0 l 1
 546 96 l 1
 488 18 429 -13 336 -13 c 0
 167 -13 42 108 42 272 c 0
 42 436 166 560 330 560 c 0xd8
 425 560 491 527 546 450 c 1
 546 547 l 1
 620 547 l 1xb8
329 492 m 0
 212 492 117 395 117 275 c 0
 117 152 214 55 335 55 c 0
 454 55 546 151 546 275 c 0
 546 399 453 492 329 492 c 0
271 666 m 1
 464 782 l 1
 498 724 l 1
 305 610 l 1
 271 666 l 1
EndSplineSet
EndChar

StartChar: agrave
Encoding: 287 224 222
Width: 683
GlyphClass: 2
Flags: MW
HStem: -13 68<274.5 382.5> 492 68<270.5 377.5 248 391> 527 20G<546 620 620 620>
VStem: 42 75<213.5 335 213.5 354> 546 74<0 96 96 96 213 337 450 547 0 547>
AnchorPoint: "Anchor-0" 351 805 basechar 0
LayerCount: 2
Fore
SplineSet
620 547 m 1xb8
 620 0 l 1
 546 0 l 1
 546 96 l 1
 488 18 429 -13 336 -13 c 0
 167 -13 42 108 42 272 c 0
 42 436 166 560 330 560 c 0xd8
 425 560 491 527 546 450 c 1
 546 547 l 1
 620 547 l 1xb8
329 492 m 0
 212 492 117 395 117 275 c 0
 117 152 214 55 335 55 c 0
 454 55 546 151 546 275 c 0
 546 399 453 492 329 492 c 0
235 776 m 1
 433 666 l 1
 400 610 l 1
 203 718 l 1
 235 776 l 1
EndSplineSet
EndChar

StartChar: acircumflex
Encoding: 288 226 223
Width: 683
GlyphClass: 2
Flags: MW
HStem: -13 68<274.5 382.5> 492 68<270.5 377.5 248 391> 527 20G<546 620 620 620> 729 20G<319 385 385 385>
VStem: 42 75<213.5 335 213.5 354> 546 74<0 96 96 96 213 337 450 547 0 547>
AnchorPoint: "Anchor-0" 351 805 basechar 0
LayerCount: 2
Fore
SplineSet
620 547 m 1xbc
 620 0 l 1
 546 0 l 1
 546 96 l 1
 488 18 429 -13 336 -13 c 0
 167 -13 42 108 42 272 c 0
 42 436 166 560 330 560 c 0xdc
 425 560 491 527 546 450 c 1
 546 547 l 1
 620 547 l 1xbc
329 492 m 0
 212 492 117 395 117 275 c 0
 117 152 214 55 335 55 c 0
 454 55 546 151 546 275 c 0
 546 399 453 492 329 492 c 0
174 623 m 1
 319 749 l 1
 385 749 l 1
 528 623 l 1
 439 623 l 1
 353 697 l 1
 265 623 l 1
 174 623 l 1
EndSplineSet
EndChar

StartChar: atilde
Encoding: 289 227 224
Width: 683
GlyphClass: 2
Flags: MW
HStem: -13 68<274.5 382.5> 492 68<270.5 377.5 248 391> 527 20G<546 620 620 620> 633 64<401.5 415.5 401.5 421.5> 665 63<289.5 304.5>
VStem: 42 75<213.5 335 213.5 354> 546 74<0 96 96 96 213 337 450 547 0 547>
AnchorPoint: "Anchor-0" 351 805 basechar 0
LayerCount: 2
Fore
SplineSet
620 547 m 1xa6
 620 0 l 1
 546 0 l 1
 546 96 l 1
 488 18 429 -13 336 -13 c 0
 167 -13 42 108 42 272 c 0
 42 436 166 560 330 560 c 0xc6
 425 560 491 527 546 450 c 1
 546 547 l 1
 620 547 l 1xa6
329 492 m 0
 212 492 117 395 117 275 c 0
 117 152 214 55 335 55 c 0
 454 55 546 151 546 275 c 0
 546 399 453 492 329 492 c 0
463 728 m 1x8e
 496 682 l 1
 480 656 438 633 405 633 c 0x96
 390 633 373 639 339 655 c 0
 324 661 310 665 299 665 c 0x8e
 280 665 272 661 246 639 c 2
 239 633 l 1x96
 206 679 l 1
 229 710 263 728 299 728 c 0x8e
 317 728 327 725 358 711 c 0
 375 704 397 697 406 697 c 0x96
 425 697 442 706 463 728 c 1x8e
EndSplineSet
EndChar

StartChar: aring
Encoding: 290 229 225
Width: 683
GlyphClass: 2
Flags: MW
HStem: -13 68<274.5 382.5> 492 68<270.5 377.5 248 391> 527 20G<546 620 620 620> 610 41<337 365 337 376.5> 753 41<336.5 364.5>
VStem: 42 75<213.5 335 213.5 354> 546 74<0 96 96 96 213 337 450 547 0 547>
AnchorPoint: "Anchor-0" 351 820 basechar 0
LayerCount: 2
Fore
SplineSet
620 547 m 1xbe
 620 0 l 1
 546 0 l 1
 546 96 l 1
 488 18 429 -13 336 -13 c 0
 167 -13 42 108 42 272 c 0
 42 436 166 560 330 560 c 0xde
 425 560 491 527 546 450 c 1
 546 547 l 1
 620 547 l 1xbe
329 492 m 0
 212 492 117 395 117 275 c 0
 117 152 214 55 335 55 c 0
 454 55 546 151 546 275 c 0
 546 399 453 492 329 492 c 0
352 794 m 0
 402 794 443 752 443 702 c 0
 443 651 402 610 351 610 c 0
 300 610 259 651 259 701 c 0
 259 753 300 794 352 794 c 0
350 753 m 0
 323 753 300 730 300 701 c 0
 300 673 323 651 351 651 c 0
 379 651 402 674 402 701 c 0
 402 730 379 753 350 753 c 0
EndSplineSet
EndChar

StartChar: edieresis
Encoding: 291 235 226
Width: 650
GlyphClass: 2
Flags: MW
HStem: -13 68<272.5 370.5 272.5 390.5> 249 67<118 537 118 611 116 537> 492 68<273 378> 623 126<219 293 219 293 219 366 366 440>
VStem: 42 74<249 249 249 355.5>
AnchorPoint: "Anchor-0" 329 805 basechar 0
LayerCount: 2
Fore
SplineSet
611 249 m 1
 116 249 l 1
 122 141 216 55 329 55 c 0
 412 55 489 105 520 180 c 1
 597 180 l 1
 557 65 450 -13 331 -13 c 0
 169 -13 42 114 42 276 c 0
 42 435 167 560 325 560 c 0
 433 560 530 503 578 411 c 0
 602 365 611 322 611 249 c 1
118 316 m 1
 537 316 l 1
 512 425 431 492 325 492 c 0
 221 492 138 421 118 316 c 1
219 749 m 1
 293 749 l 1
 293 623 l 1
 219 623 l 1
 219 749 l 1
366 749 m 1
 440 749 l 1
 440 623 l 1
 366 623 l 1
 366 749 l 1
EndSplineSet
EndChar

StartChar: eacute
Encoding: 292 233 227
Width: 650
GlyphClass: 2
Flags: MW
HStem: -13 68<272.5 370.5 272.5 390.5> 249 67<118 537 118 611 116 537> 492 68<273 378>
AnchorPoint: "Anchor-0" 329 805 basechar 0
LayerCount: 2
Fore
SplineSet
611 249 m 1
 116 249 l 1
 122 141 216 55 329 55 c 0
 412 55 489 105 520 180 c 1
 597 180 l 1
 557 65 450 -13 331 -13 c 0
 169 -13 42 114 42 276 c 0
 42 435 167 560 325 560 c 0
 433 560 530 503 578 411 c 0
 602 365 611 322 611 249 c 1
118 316 m 1
 537 316 l 1
 512 425 431 492 325 492 c 0
 221 492 138 421 118 316 c 1
246 666 m 1
 439 782 l 1
 473 724 l 1
 280 610 l 1
 246 666 l 1
EndSplineSet
EndChar

StartChar: egrave
Encoding: 293 232 228
Width: 650
GlyphClass: 2
Flags: MW
HStem: -13 68<272.5 370.5 272.5 390.5> 249 67<118 537 118 611 116 537> 492 68<273 378>
AnchorPoint: "Anchor-0" 329 805 basechar 0
LayerCount: 2
Fore
SplineSet
611 249 m 1
 116 249 l 1
 122 141 216 55 329 55 c 0
 412 55 489 105 520 180 c 1
 597 180 l 1
 557 65 450 -13 331 -13 c 0
 169 -13 42 114 42 276 c 0
 42 435 167 560 325 560 c 0
 433 560 530 503 578 411 c 0
 602 365 611 322 611 249 c 1
118 316 m 1
 537 316 l 1
 512 425 431 492 325 492 c 0
 221 492 138 421 118 316 c 1
214 776 m 1
 412 666 l 1
 379 610 l 1
 182 718 l 1
 214 776 l 1
EndSplineSet
EndChar

StartChar: ecircumflex
Encoding: 294 234 229
Width: 650
GlyphClass: 2
Flags: MW
HStem: -13 68<272.5 370.5 272.5 390.5> 249 67<118 537 118 611 116 537> 492 68<273 378> 729 20G<298 364 364 364>
AnchorPoint: "Anchor-0" 329 805 basechar 0
LayerCount: 2
Fore
SplineSet
611 249 m 1
 116 249 l 1
 122 141 216 55 329 55 c 0
 412 55 489 105 520 180 c 1
 597 180 l 1
 557 65 450 -13 331 -13 c 0
 169 -13 42 114 42 276 c 0
 42 435 167 560 325 560 c 0
 433 560 530 503 578 411 c 0
 602 365 611 322 611 249 c 1
118 316 m 1
 537 316 l 1
 512 425 431 492 325 492 c 0
 221 492 138 421 118 316 c 1
153 623 m 1
 298 749 l 1
 364 749 l 1
 507 623 l 1
 418 623 l 1
 332 697 l 1
 244 623 l 1
 153 623 l 1
EndSplineSet
EndChar

StartChar: idieresis
Encoding: 295 239 230
Width: 200
GlyphClass: 2
Flags: MW
HStem: 0 21G<64 64 64 138> 527 20G<64 138 138 138> 623 126<-10 64 -10 64 -10 137 137 211>
VStem: -10 74<623 749> 64 74<0 547 0 547> 137 74<623 749 623 749>
AnchorPoint: "Anchor-0" 100 805 basechar 0
LayerCount: 2
Fore
SplineSet
-10 749 m 1xf0
 64 749 l 1
 64 623 l 1
 -10 623 l 1
 -10 749 l 1xf0
137 749 m 1xe4
 211 749 l 1
 211 623 l 1
 137 623 l 1
 137 749 l 1xe4
64 0 m 1xe8
 64 547 l 1
 138 547 l 1
 138 0 l 1
 64 0 l 1xe8
EndSplineSet
EndChar

StartChar: iacute
Encoding: 296 237 231
Width: 200
GlyphClass: 2
Flags: MW
HStem: 0 21G<63 63 63 137> 527 20G<63 137 137 137>
VStem: 63 74<0 547 0 547>
AnchorPoint: "Anchor-0" 100 805 basechar 0
LayerCount: 2
Fore
SplineSet
63 0 m 1
 63 547 l 1
 137 547 l 1
 137 0 l 1
 63 0 l 1
-13 666 m 1
 180 782 l 1
 214 724 l 1
 21 610 l 1
 -13 666 l 1
EndSplineSet
EndChar

StartChar: igrave
Encoding: 297 236 232
Width: 200
GlyphClass: 2
Flags: MW
HStem: 0 21G<63 63 63 137> 527 20G<63 137 137 137>
VStem: 63 74<0 547 0 547>
AnchorPoint: "Anchor-0" 100 805 basechar 0
LayerCount: 2
Fore
SplineSet
63 0 m 1
 63 547 l 1
 137 547 l 1
 137 0 l 1
 63 0 l 1
17 776 m 1
 215 666 l 1
 182 610 l 1
 -15 718 l 1
 17 776 l 1
EndSplineSet
EndChar

StartChar: icircumflex
Encoding: 298 238 233
Width: 200
GlyphClass: 2
Flags: MW
HStem: 0 21G<63 63 63 137> 527 20G<63 137 137 137> 729 20G<68 134 134 134>
VStem: 63 74<0 547 0 547>
AnchorPoint: "Anchor-0" 100 805 basechar 0
LayerCount: 2
Fore
SplineSet
63 0 m 1
 63 547 l 1
 137 547 l 1
 137 0 l 1
 63 0 l 1
-77 623 m 1
 68 749 l 1
 134 749 l 1
 277 623 l 1
 188 623 l 1
 102 697 l 1
 14 623 l 1
 -77 623 l 1
EndSplineSet
EndChar

StartChar: ntilde
Encoding: 299 241 234
Width: 610
GlyphClass: 2
Flags: MW
HStem: 0 21G<63 63 63 137 473 473 473 547> 492 68<277 330.5> 527 20G<63 137 137 137> 633 64<348.5 362.5 348.5 368.5> 665 63<236.5 251.5>
VStem: 63 74<0 301 476 547> 473 74<0 287 0 324>
AnchorPoint: "Anchor-0" 305 805 basechar 0
LayerCount: 2
Fore
SplineSet
63 0 m 1xc6
 63 547 l 1
 137 547 l 1xa6
 137 476 l 1
 183 533 241 560 313 560 c 0
 390 560 456 530 499 475 c 0
 534 428 547 379 547 287 c 2
 547 0 l 1
 473 0 l 1
 473 287 l 2
 473 361 462 402 434 436 c 0
 404 472 357 492 304 492 c 0
 244 492 192 466 163 422 c 0
 144 392 137 360 137 301 c 2
 137 0 l 1
 63 0 l 1xc6
410 728 m 1x8e
 443 682 l 1
 427 656 385 633 352 633 c 0x96
 337 633 320 639 286 655 c 0
 271 661 257 665 246 665 c 0x8e
 227 665 219 661 193 639 c 2
 186 633 l 1x96
 153 679 l 1
 176 710 210 728 246 728 c 0x8e
 264 728 274 725 305 711 c 0
 322 704 344 697 353 697 c 0x96
 372 697 389 706 410 728 c 1x8e
EndSplineSet
EndChar

StartChar: odieresis
Encoding: 300 246 235
Width: 655
GlyphClass: 2
Flags: MW
HStem: -13 68<270 392 270 414.5> 492 68<266 388> 623 126<217 291 217 291 217 364 364 438>
VStem: 42 75<209.5 335 209.5 356> 538 75<208 335.5>
AnchorPoint: "Anchor-0" 327 805 basechar 0
LayerCount: 2
Fore
SplineSet
332 560 m 0
 493 560 613 437 613 272 c 0
 613 108 495 -13 334 -13 c 0
 167 -13 42 109 42 273 c 0
 42 439 164 560 332 560 c 0
326 492 m 0
 206 492 117 398 117 272 c 0
 117 147 208 55 332 55 c 0
 452 55 538 145 538 271 c 0
 538 400 450 492 326 492 c 0
217 749 m 1
 291 749 l 1
 291 623 l 1
 217 623 l 1
 217 749 l 1
364 749 m 1
 438 749 l 1
 438 623 l 1
 364 623 l 1
 364 749 l 1
EndSplineSet
EndChar

StartChar: oacute
Encoding: 301 243 236
Width: 655
GlyphClass: 2
Flags: MW
HStem: -13 68<270 392 270 414.5> 492 68<266 388>
VStem: 42 75<209.5 335 209.5 356> 538 75<208 335.5>
AnchorPoint: "Anchor-0" 327 805 basechar 0
LayerCount: 2
Fore
SplineSet
332 560 m 0
 493 560 613 437 613 272 c 0
 613 108 495 -13 334 -13 c 0
 167 -13 42 109 42 273 c 0
 42 439 164 560 332 560 c 0
326 492 m 0
 206 492 117 398 117 272 c 0
 117 147 208 55 332 55 c 0
 452 55 538 145 538 271 c 0
 538 400 450 492 326 492 c 0
247 666 m 1
 440 782 l 1
 474 724 l 1
 281 610 l 1
 247 666 l 1
EndSplineSet
EndChar

StartChar: ograve
Encoding: 302 242 237
Width: 655
GlyphClass: 2
Flags: MW
HStem: -13 68<270 392 270 414.5> 492 68<266 388>
VStem: 42 75<209.5 335 209.5 356> 538 75<208 335.5>
AnchorPoint: "Anchor-0" 327 805 basechar 0
LayerCount: 2
Fore
SplineSet
332 560 m 0
 493 560 613 437 613 272 c 0
 613 108 495 -13 334 -13 c 0
 167 -13 42 109 42 273 c 0
 42 439 164 560 332 560 c 0
326 492 m 0
 206 492 117 398 117 272 c 0
 117 147 208 55 332 55 c 0
 452 55 538 145 538 271 c 0
 538 400 450 492 326 492 c 0
211 776 m 1
 409 666 l 1
 376 610 l 1
 179 718 l 1
 211 776 l 1
EndSplineSet
EndChar

StartChar: ocircumflex
Encoding: 303 244 238
Width: 655
GlyphClass: 2
Flags: MW
HStem: -13 68<270 392 270 414.5> 492 68<266 388> 729 20G<295 361 361 361>
VStem: 42 75<209.5 335 209.5 356> 538 75<208 335.5>
AnchorPoint: "Anchor-0" 327 805 basechar 0
LayerCount: 2
Fore
SplineSet
332 560 m 0
 493 560 613 437 613 272 c 0
 613 108 495 -13 334 -13 c 0
 167 -13 42 109 42 273 c 0
 42 439 164 560 332 560 c 0
326 492 m 0
 206 492 117 398 117 272 c 0
 117 147 208 55 332 55 c 0
 452 55 538 145 538 271 c 0
 538 400 450 492 326 492 c 0
150 623 m 1
 295 749 l 1
 361 749 l 1
 504 623 l 1
 415 623 l 1
 329 697 l 1
 241 623 l 1
 150 623 l 1
EndSplineSet
EndChar

StartChar: otilde
Encoding: 304 245 239
Width: 655
GlyphClass: 2
Flags: MW
HStem: -13 68<270 392 270 414.5> 492 68<266 388> 633 64<384.5 398.5 384.5 404.5> 665 63<272.5 287.5>
VStem: 42 75<209.5 335 209.5 356> 538 75<208 335.5>
AnchorPoint: "Anchor-0" 327 805 basechar 0
LayerCount: 2
Fore
SplineSet
332 560 m 0xcc
 493 560 613 437 613 272 c 0
 613 108 495 -13 334 -13 c 0
 167 -13 42 109 42 273 c 0
 42 439 164 560 332 560 c 0xcc
326 492 m 0
 206 492 117 398 117 272 c 0
 117 147 208 55 332 55 c 0
 452 55 538 145 538 271 c 0
 538 400 450 492 326 492 c 0
446 728 m 1x20
 479 682 l 1
 463 656 421 633 388 633 c 0x20
 373 633 356 639 322 655 c 0
 307 661 293 665 282 665 c 0
 263 665 255 661 229 639 c 2
 222 633 l 1
 189 679 l 1
 212 710 246 728 282 728 c 0x10
 300 728 310 725 341 711 c 0
 358 704 380 697 389 697 c 0
 408 697 425 706 446 728 c 1x20
EndSplineSet
EndChar

StartChar: scaron
Encoding: 305 353 240
Width: 388
GlyphClass: 2
Flags: MW
HStem: -13 68<164 222 164 244.5> 492 68<171 217> 729 20G<17 106 106 106 280 371 371 371>
VStem: 39 75<397 435 397 450.5> 287 75<122.5 175>
AnchorPoint: "Anchor-0" 194 805 basechar 0
LayerCount: 2
Fore
SplineSet
19 161 m 1
 92 161 l 1
 96 93 133 55 195 55 c 0
 249 55 287 95 287 150 c 0
 287 200 267 220 181 255 c 0
 104 287 103 287 80 308 c 0
 53 333 39 366 39 406 c 0
 39 495 104 560 194 560 c 0
 282 560 345 500 348 412 c 1
 273 412 l 1
 269 464 241 492 193 492 c 0
 149 492 114 457 114 413 c 0
 114 381 130 358 165 340 c 0
 181 333 185 331 267 297 c 0
 331 270 362 224 362 157 c 0
 362 57 294 -13 195 -13 c 0
 89 -13 20 55 19 161 c 1
371 749 m 1
 226 623 l 1
 160 623 l 1
 17 749 l 1
 106 749 l 1
 192 675 l 1
 280 749 l 1
 371 749 l 1
EndSplineSet
EndChar

StartChar: udieresis
Encoding: 306 252 241
Width: 608
GlyphClass: 2
Flags: MW
HStem: -13 68<270.5 329 270.5 337.5> 527 20G<63 137 137 137 471 545 545 545> 623 126<194 268 194 268 194 341 341 415>
VStem: 63 74<252 547> 471 74<0 85 85 85 266 547 0 547>
AnchorPoint: "Anchor-0" 304 805 basechar 0
LayerCount: 2
Fore
SplineSet
545 547 m 1
 545 0 l 1
 471 0 l 1
 471 85 l 1
 434 17 380 -13 295 -13 c 0
 210 -13 143 19 103 79 c 0
 75 119 63 173 63 252 c 2
 63 547 l 1
 137 547 l 1
 137 252 l 2
 137 194 146 149 165 120 c 0
 191 79 241 55 300 55 c 0
 358 55 407 79 438 123 c 0
 461 157 471 199 471 266 c 2
 471 547 l 1
 545 547 l 1
194 749 m 1
 268 749 l 1
 268 623 l 1
 194 623 l 1
 194 749 l 1
341 749 m 1
 415 749 l 1
 415 623 l 1
 341 623 l 1
 341 749 l 1
EndSplineSet
EndChar

StartChar: uacute
Encoding: 307 250 242
Width: 608
GlyphClass: 2
Flags: MW
HStem: -13 68<270.5 329 270.5 337.5> 527 20G<63 137 137 137 471 545 545 545>
VStem: 63 74<252 547> 471 74<0 85 85 85 266 547 0 547>
AnchorPoint: "Anchor-0" 304 805 basechar 0
LayerCount: 2
Fore
SplineSet
545 547 m 1
 545 0 l 1
 471 0 l 1
 471 85 l 1
 434 17 380 -13 295 -13 c 0
 210 -13 143 19 103 79 c 0
 75 119 63 173 63 252 c 2
 63 547 l 1
 137 547 l 1
 137 252 l 2
 137 194 146 149 165 120 c 0
 191 79 241 55 300 55 c 0
 358 55 407 79 438 123 c 0
 461 157 471 199 471 266 c 2
 471 547 l 1
 545 547 l 1
224 666 m 1
 417 782 l 1
 451 724 l 1
 258 610 l 1
 224 666 l 1
EndSplineSet
EndChar

StartChar: ugrave
Encoding: 308 249 243
Width: 608
GlyphClass: 2
Flags: MW
HStem: -13 68<270.5 329 270.5 337.5> 527 20G<63 137 137 137 471 545 545 545>
VStem: 63 74<252 547> 471 74<0 85 85 85 266 547 0 547>
AnchorPoint: "Anchor-0" 304 805 basechar 0
LayerCount: 2
Fore
SplineSet
545 547 m 1
 545 0 l 1
 471 0 l 1
 471 85 l 1
 434 17 380 -13 295 -13 c 0
 210 -13 143 19 103 79 c 0
 75 119 63 173 63 252 c 2
 63 547 l 1
 137 547 l 1
 137 252 l 2
 137 194 146 149 165 120 c 0
 191 79 241 55 300 55 c 0
 358 55 407 79 438 123 c 0
 461 157 471 199 471 266 c 2
 471 547 l 1
 545 547 l 1
188 776 m 1
 386 666 l 1
 353 610 l 1
 156 718 l 1
 188 776 l 1
EndSplineSet
EndChar

StartChar: ucircumflex
Encoding: 309 251 244
Width: 608
GlyphClass: 2
Flags: MW
HStem: -13 68<270.5 329 270.5 337.5> 527 20G<63 137 137 137 471 545 545 545> 729 20G<272 338 338 338>
VStem: 63 74<252 547> 471 74<0 85 85 85 266 547 0 547>
AnchorPoint: "Anchor-0" 304 805 basechar 0
LayerCount: 2
Fore
SplineSet
545 547 m 1
 545 0 l 1
 471 0 l 1
 471 85 l 1
 434 17 380 -13 295 -13 c 0
 210 -13 143 19 103 79 c 0
 75 119 63 173 63 252 c 2
 63 547 l 1
 137 547 l 1
 137 252 l 2
 137 194 146 149 165 120 c 0
 191 79 241 55 300 55 c 0
 358 55 407 79 438 123 c 0
 461 157 471 199 471 266 c 2
 471 547 l 1
 545 547 l 1
127 623 m 1
 272 749 l 1
 338 749 l 1
 481 623 l 1
 392 623 l 1
 306 697 l 1
 218 623 l 1
 127 623 l 1
EndSplineSet
EndChar

StartChar: yacute
Encoding: 310 253 245
Width: 536
GlyphClass: 2
Flags: MW
HStem: -192 21G<132 132 132 211> 527 20G<9 90 90 90 448 527 527 527>
AnchorPoint: "Anchor-0" 265 805 basechar 0
LayerCount: 2
Fore
SplineSet
132 -192 m 1
 221 18 l 1
 9 547 l 1
 90 547 l 1
 263 111 l 1
 448 547 l 1
 527 547 l 1
 211 -192 l 1
 132 -192 l 1
195 666 m 1
 388 782 l 1
 422 724 l 1
 229 610 l 1
 195 666 l 1
EndSplineSet
EndChar

StartChar: zcaron
Encoding: 311 382 246
Width: 425
GlyphClass: 2
Flags: MW
HStem: 0 67<10 10 97 415> 480 67<20 312 20 396> 729 20G<35 124 124 124 298 389 389 389>
AnchorPoint: "Anchor-0" 212 805 basechar 0
LayerCount: 2
Fore
SplineSet
10 0 m 1
 10 67 l 1
 312 480 l 1
 20 480 l 1
 20 547 l 1
 396 547 l 1
 396 484 l 1
 97 67 l 1
 415 67 l 1
 415 0 l 1
 10 0 l 1
389 749 m 1
 244 623 l 1
 178 623 l 1
 35 749 l 1
 124 749 l 1
 210 675 l 1
 298 749 l 1
 389 749 l 1
EndSplineSet
EndChar

StartChar: ydieresis
Encoding: 312 255 247
Width: 536
GlyphClass: 2
Flags: MW
HStem: -192 21G<132 132 132 211> 527 20G<9 90 90 90 448 527 527 527> 623 126<155 229 155 229 155 302 302 376>
AnchorPoint: "Anchor-0" 265 805 basechar 0
LayerCount: 2
Fore
SplineSet
132 -192 m 1
 221 18 l 1
 9 547 l 1
 90 547 l 1
 263 111 l 1
 448 547 l 1
 527 547 l 1
 211 -192 l 1
 132 -192 l 1
155 749 m 1
 229 749 l 1
 229 623 l 1
 155 623 l 1
 155 749 l 1
302 749 m 1
 376 749 l 1
 376 623 l 1
 302 623 l 1
 302 749 l 1
EndSplineSet
EndChar

StartChar: AE
Encoding: 313 198 248
Width: 992
GlyphClass: 2
Flags: MW
HStem: 0 67<617 936 617 936> 250 67<319 543 319 543 272 543> 340 67<617 925 617 925> 672 67<617 936 617 617>
VStem: 543 74<67 250 250 250 317 340 407 644 644 644>
AnchorPoint: "Anchor-0" 538 805 basechar 0
LayerCount: 2
Fore
SplineSet
11 0 m 1
 522 739 l 1
 936 739 l 1
 936 672 l 1
 617 672 l 1
 617 407 l 1
 925 407 l 1
 925 340 l 1
 617 340 l 1
 617 67 l 1
 936 67 l 1
 936 0 l 1
 543 0 l 1
 543 250 l 1
 272 250 l 1
 99 0 l 1
 11 0 l 1
319 317 m 1
 543 317 l 1
 543 644 l 1
 319 317 l 1
EndSplineSet
EndChar

StartChar: OE
Encoding: 314 338 249
Width: 1194
GlyphClass: 2
Flags: MW
HStem: -13 68<347.5 512.5> 0 67<819 1138 819 1138> 340 67<819 1127 819 1127> 672 67<819 1138 819 819> 684 68<339 501.5 321 521>
VStem: 44 75<281.5 460.5 281.5 480> 745 74<67 151 151 151 592 672>
AnchorPoint: "Anchor-0" 695 805 basechar 0
LayerCount: 2
Fore
SplineSet
745 739 m 1x16
 1138 739 l 1
 1138 672 l 1
 819 672 l 1
 819 407 l 1
 1127 407 l 1
 1127 340 l 1
 819 340 l 1
 819 67 l 1
 1138 67 l 1
 1138 0 l 1
 745 0 l 1x76
 745 151 l 1
 684 44 580 -13 445 -13 c 0
 214 -13 44 150 44 371 c 0
 44 589 210 752 432 752 c 0x8e
 571 752 683 695 745 592 c 1
 745 739 l 1x16
427 684 m 0x8e
 251 684 119 550 119 371 c 0
 119 192 257 55 438 55 c 0
 616 55 746 188 746 371 c 0
 746 555 615 684 427 684 c 0x8e
EndSplineSet
EndChar

StartChar: Oslash
Encoding: 315 216 250
Width: 868
GlyphClass: 2
Flags: MW
HStem: -13 68<406.5 523.5 406.5 545.5> 684 68<342.5 460.5>
VStem: 44 75<321 455.5 321 477> 749 75<281 415>
AnchorPoint: "Anchor-0" 434 805 basechar 0
LayerCount: 2
Fore
SplineSet
83 -42 m 1
 176 82 l 1
 91 153 44 255 44 370 c 0
 44 584 214 752 431 752 c 0
 507 752 586 731 636 696 c 1
 730 821 l 1
 784 779 l 1
 692 656 l 1
 780 582 824 487 824 372 c 0
 824 157 653 -13 438 -13 c 0
 365 -13 293 6 233 42 c 1
 139 -83 l 1
 83 -42 l 1
219 138 m 1
 595 641 l 1
 549 669 491 684 430 684 c 0
 255 684 119 545 119 366 c 0
 119 276 152 201 219 138 c 1
650 600 m 1
 274 97 l 1
 331 67 377 55 436 55 c 0
 611 55 749 193 749 369 c 0
 749 461 718 534 650 600 c 1
EndSplineSet
EndChar

StartChar: Ccedilla
Encoding: 316 199 251
Width: 813
GlyphClass: 2
Flags: MW
HStem: -240 47<411.5 437 411.5 451> -99 38<433 435.5> 684 68<341.5 461.5>
VStem: 44 75<303 459 283 477.5> 468 48<-161 -133>
AnchorPoint: "Anchor-0" 427 805 basechar 0
LayerCount: 2
Fore
SplineSet
429 -13 m 1
 405 -68 l 1
 419 -63 427 -61 439 -61 c 0
 485 -61 516 -95 516 -145 c 0
 516 -201 478 -240 424 -240 c 0
 377 -240 345 -214 331 -166 c 1
 378 -159 l 1
 386 -183 400 -193 423 -193 c 0
 451 -193 468 -175 468 -147 c 0
 468 -119 449 -99 422 -99 c 0
 404 -99 393 -105 378 -121 c 1
 348 -103 l 1
 390 -12 l 1
 304 1 258 18 203 57 c 0
 99 131 44 239 44 367 c 0
 44 588 207 752 427 752 c 0
 580 752 710 674 767 547 c 1
 684 547 l 1
 655 593 634 615 599 637 c 0
 550 668 493 684 430 684 c 0
 253 684 119 548 119 370 c 0
 119 196 259 55 431 55 c 0
 500 55 567 78 618 119 c 0
 641 138 659 156 688 194 c 1
 770 194 l 1
 699 58 583 -13 429 -13 c 1
EndSplineSet
EndChar

StartChar: Eth
Encoding: 317 208 252
Width: 790
GlyphClass: 2
Flags: MW
HStem: 0 67<196 299 299 321> 347 67<26 122 26 122 196 401> 672 67<196 296 296 299 196 196>
VStem: 122 74<67 347 67 347 67 347 414 672> 671 75<323 426.5>
AnchorPoint: "Anchor-0" 330 805 basechar 0
LayerCount: 2
Fore
SplineSet
122 347 m 1
 26 347 l 1
 26 414 l 1
 122 414 l 1
 122 739 l 1
 296 739 l 2
 434 739 514 722 586 676 c 0
 691 610 746 503 746 367 c 0
 746 226 684 115 568 51 c 0
 504 16 428 0 321 0 c 2
 122 0 l 1
 122 347 l 1
196 347 m 1
 196 67 l 1
 299 67 l 2
 434 67 511 87 571 138 c 0
 635 193 671 276 671 370 c 0
 671 483 619 578 530 628 c 0
 476 659 407 672 299 672 c 2
 196 672 l 1
 196 414 l 1
 401 414 l 1
 401 347 l 1
 196 347 l 1
EndSplineSet
EndChar

StartChar: Lslash
Encoding: 318 321 253
Width: 517
GlyphClass: 2
Flags: MW
HStem: 0 67<196 502 196 502> 719 20G<122 196 196 196>
VStem: 122 74<67 303 303 303 436 739>
AnchorPoint: "Anchor-0" 159 805 basechar 0
LayerCount: 2
Fore
SplineSet
122 0 m 1
 122 303 l 1
 26 224 l 1
 26 307 l 1
 122 387 l 1
 122 739 l 1
 196 739 l 1
 196 436 l 1
 356 569 l 1
 356 485 l 1
 196 353 l 1
 196 67 l 1
 502 67 l 1
 502 0 l 1
 122 0 l 1
EndSplineSet
EndChar

StartChar: Thorn
Encoding: 319 222 254
Width: 592
GlyphClass: 2
Flags: MW
HStem: 0 21G<76 76 76 150> 166 67<150 287 287 292 150 287> 539 67<150 255 150 150> 719 20G<76 143 143 143>
VStem: 76 67<606 739 606 739 606 739> 76 74<0 166 233 539> 490 75<354 419>
AnchorPoint: "Anchor-0" 296 805 basechar 0
LayerCount: 2
Fore
SplineSet
76 0 m 1xf6
 76 739 l 1
 143 739 l 1
 143 606 l 1xfa
 280 606 l 2
 375 606 431 595 477 567 c 0
 533 534 565 467 565 382 c 0
 565 308 539 247 491 212 c 0
 446 179 392 166 292 166 c 2
 150 166 l 1
 150 0 l 1
 76 0 l 1xf6
150 233 m 1xf6
 287 233 l 2
 355 233 398 240 429 258 c 0
 468 279 490 325 490 383 c 0
 490 455 460 506 407 523 c 0
 374 534 328 539 255 539 c 2
 150 539 l 1
 150 233 l 1xf6
EndSplineSet
EndChar

StartChar: ae
Encoding: 320 230 255
Width: 1157
GlyphClass: 2
Flags: MW
HStem: -13 68<272.5 376.5 795.5 881> 247 67<626 1046 626 1118 623 1046> 492 68<286.5 378 286.5 394.5 789.5 885.5> 527 20G<548 619 619 619>
VStem: 42 76<212.5 308.5> 548 71<0 92 0 92 452 547>
AnchorPoint: "Anchor-0" 582 623 basechar 0
LayerCount: 2
Fore
SplineSet
1118 247 m 1xec
 623 247 l 1
 633 137 726 55 839 55 c 0
 923 55 997 103 1028 178 c 1
 1105 178 l 1
 1067 64 960 -13 839 -13 c 0
 752 -13 679 22 619 92 c 1
 619 0 l 1
 548 0 l 1
 548 92 l 1
 486 18 422 -13 331 -13 c 0
 167 -13 42 110 42 272 c 0
 42 345 70 419 119 472 c 0
 172 530 243 560 330 560 c 0xec
 426 560 494 526 548 452 c 1
 548 547 l 1
 619 547 l 1xdc
 619 452 l 1
 678 526 745 560 834 560 c 0
 937 560 1027 509 1079 423 c 0
 1108 375 1118 327 1118 247 c 1xec
626 314 m 1
 1046 314 l 1
 1026 422 943 492 836 492 c 0
 727 492 642 419 626 314 c 1
331 492 m 0
 210 492 118 397 118 274 c 0
 118 151 212 55 333 55 c 0
 456 55 550 151 550 277 c 0
 550 402 458 492 331 492 c 0
EndSplineSet
EndChar

StartChar: oe
Encoding: 321 339 256
Width: 1137
GlyphClass: 2
Flags: MW
HStem: -13 68<270.5 384 790.5 861.5> 248 67<608 1027 608 1096 608 1027> 492 68<264.5 378 244.5 384.5 764 869.5>
VStem: 42 75<211.5 335.5 211.5 355>
AnchorPoint: "Anchor-0" 571 623 basechar 0
LayerCount: 2
Fore
SplineSet
1096 248 m 1
 608 248 l 1
 611 199 625 167 657 130 c 0
 701 80 757 55 824 55 c 0
 910 55 972 96 1012 179 c 1
 1086 179 l 1
 1072 129 1043 85 998 47 c 0
 951 7 895 -13 828 -13 c 0
 713 -13 617 43 571 138 c 1
 511 33 437 -13 331 -13 c 0
 167 -13 42 112 42 274 c 0
 42 436 165 560 324 560 c 0
 432 560 511 513 571 414 c 1
 628 512 708 560 816 560 c 0
 976 560 1098 442 1098 286 c 0
 1098 278 1097 265 1096 248 c 1
608 315 m 1
 1027 315 l 1
 1009 421 924 492 815 492 c 0
 713 492 635 425 608 315 c 1
323 492 m 0
 206 492 117 398 117 273 c 0
 117 150 210 55 331 55 c 0
 448 55 536 150 536 275 c 0
 536 400 446 492 323 492 c 0
EndSplineSet
EndChar

StartChar: oslash
Encoding: 322 248 257
Width: 653
GlyphClass: 2
Flags: MW
HStem: -13 68<303.5 386 303.5 411> 492 68<269 348>
VStem: 42 75<238.5 330 238.5 352> 536 75<213.5 309.5>
AnchorPoint: "Anchor-0" 327 623 basechar 0
LayerCount: 2
Fore
SplineSet
73 1 m 1
 124 68 l 1
 64 138 42 193 42 272 c 0
 42 432 168 560 328 560 c 0
 382 560 429 547 474 519 c 1
 531 594 l 1
 584 552 l 1
 528 478 l 1
 584 426 611 363 611 281 c 0
 611 110 493 -13 329 -13 c 0
 273 -13 234 -2 178 28 c 1
 126 -39 l 1
 73 1 l 1
166 121 m 1
 434 468 l 1
 402 484 367 492 329 492 c 0
 209 492 117 394 117 266 c 0
 117 211 131 171 166 121 c 1
487 426 m 1
 218 79 l 1
 258 61 284 55 323 55 c 0
 449 55 536 147 536 280 c 0
 536 339 521 383 487 426 c 1
EndSplineSet
EndChar

StartChar: germandbls
Encoding: 323 223 258
Width: 554
GlyphClass: 2
Flags: MW
HStem: -13 68<279 354.5 279 378> 343 65<264 287 224 325.5> 684 68<240.5 303>
VStem: 59 74<0 109 203 481> 399 75<508 587> 449 75<157 243>
AnchorPoint: "Anchor-0" 263 805 basechar 0
LayerCount: 2
Fore
SplineSet
59 0 m 1xf4
 59 481 l 2
 59 566 69 620 95 664 c 0
 126 718 190 752 263 752 c 0
 384 752 474 663 474 544 c 0xf8
 474 472 448 424 389 389 c 1
 477 361 524 294 524 199 c 0
 524 77 437 -13 319 -13 c 0
 233 -13 170 28 133 109 c 1
 133 0 l 1
 59 0 l 1xf4
133 203 m 1
 184 203 l 1
 186 116 241 55 317 55 c 0
 392 55 449 117 449 197 c 0xf4
 449 289 382 343 269 343 c 0
 259 343 255 343 224 341 c 1
 224 408 l 1
 237 408 l 2
 337 408 399 462 399 548 c 0
 399 626 342 684 264 684 c 0
 217 684 175 660 156 621 c 0
 139 587 133 552 133 481 c 2
 133 203 l 1
EndSplineSet
EndChar

StartChar: dotlessi
Encoding: 324 305 259
Width: 200
GlyphClass: 2
Flags: MW
HStem: 0 21G<63 63 63 137> 527 20G<63 137 137 137>
VStem: 63 74<0 547 0 547>
AnchorPoint: "Anchor-0" 100 623 basechar 0
LayerCount: 2
Fore
SplineSet
63 0 m 1
 63 547 l 1
 137 547 l 1
 137 0 l 1
 63 0 l 1
EndSplineSet
EndChar

StartChar: uniFB01
Encoding: 325 64257 260
Width: 490
GlyphClass: 3
Flags: MW
HStem: 0 21G<101 101 101 175 353 427 353 353> 480 67<16 101 16 101 175 311> 613 126<240.5 353 353 427> 672 67<260 311>
VStem: 101 74<0 480 0 480 547 593> 353 74<0 547 0 547 613 739>
LayerCount: 2
Fore
SplineSet
101 0 m 1xdc
 101 480 l 1
 16 480 l 1
 16 547 l 1
 101 547 l 1
 101 677 170 739 311 739 c 1
 311 672 l 1
 209 672 175 639 175 547 c 1
 311 547 l 1
 311 480 l 1
 175 480 l 1
 175 0 l 1
 101 0 l 1xdc
353 0 m 1
 353 547 l 1
 427 547 l 1
 427 0 l 1
 353 0 l 1
353 613 m 1xec
 353 739 l 1
 427 739 l 1
 427 613 l 1
 353 613 l 1xec
EndSplineSet
Ligature2: "'liga' Standard Ligatures lookup 6 subtable" f i
EndChar

StartChar: uniFB02
Encoding: 326 64258 261
Width: 490
GlyphClass: 3
Flags: MW
HStem: 0 21G<101 101 101 175 353 427 353 353> 480 67<16 101 16 101 175 311> 672 67<260 311>
VStem: 101 74<0 480 0 480 547 593> 353 74<0 739 0 739>
LayerCount: 2
Fore
SplineSet
101 0 m 1
 101 480 l 1
 16 480 l 1
 16 547 l 1
 101 547 l 1
 101 677 170 739 311 739 c 1
 311 672 l 1
 209 672 175 639 175 547 c 1
 311 547 l 1
 311 480 l 1
 175 480 l 1
 175 0 l 1
 101 0 l 1
353 0 m 1
 353 739 l 1
 427 739 l 1
 427 0 l 1
 353 0 l 1
EndSplineSet
Ligature2: "'liga' Standard Ligatures lookup 6 subtable" f l
EndChar

StartChar: ccedilla
Encoding: 327 231 262
Width: 647
GlyphClass: 2
Flags: MW
HStem: -224 43<334 358.5 334 370> -84 33<350.5 357> 492 68<273 374.5>
VStem: 42 75<212 334.5 212 354.5> 390 43<-148.5 -120>
AnchorPoint: "Anchor-0" 335 623 basechar 0
LayerCount: 2
Fore
SplineSet
343 -13 m 1
 324 -58 l 1
 338 -52 345 -51 356 -51 c 0
 402 -51 433 -83 433 -131 c 0
 433 -186 396 -224 344 -224 c 0
 299 -224 267 -198 257 -151 c 1
 301 -146 l 1
 307 -169 323 -181 345 -181 c 0
 372 -181 390 -162 390 -135 c 0
 390 -105 371 -84 343 -84 c 0
 326 -84 315 -90 301 -108 c 1
 271 -90 l 1
 306 -11 l 1
 152 5 42 124 42 275 c 0
 42 434 171 560 335 560 c 0
 459 560 563 491 607 381 c 1
 524 381 l 1
 482 453 415 492 334 492 c 0
 212 492 117 396 117 273 c 0
 117 151 214 55 337 55 c 0
 415 55 467 85 524 161 c 1
 608 161 l 1
 554 49 463 -11 343 -13 c 1
EndSplineSet
EndChar

StartChar: lslash
Encoding: 328 322 263
Width: 300
GlyphClass: 2
Flags: MW
HStem: 0 21G<114 114 114 188> 719 20G<114 188 188 188>
VStem: 114 74<0 346 346 346 451 739>
AnchorPoint: "Anchor-0" 150 805 basechar 0
LayerCount: 2
Fore
SplineSet
114 0 m 1
 114 346 l 1
 36 293 l 1
 36 365 l 1
 114 418 l 1
 114 739 l 1
 188 739 l 1
 188 451 l 1
 270 506 l 1
 270 433 l 1
 188 379 l 1
 188 0 l 1
 114 0 l 1
EndSplineSet
EndChar

StartChar: eth
Encoding: 329 240 264
Width: 655
GlyphClass: 2
Flags: MW
HStem: -13 68<270.5 393 270.5 416.5> 492 64<266 333 238 388> 723 20G<429 429> 736 20G<266 266>
VStem: 42 75<209.5 335 209.5 354.5> 538 75<207.5 328 193 335.5>
AnchorPoint: "Anchor-0" 330 805 basechar 0
LayerCount: 2
Fore
SplineSet
213 727 m 1xec
 266 756 l 1xdc
 296 735 309 724 334 701 c 1
 429 743 l 1
 468 699 l 1
 379 660 l 1
 419 625 462 582 504 537 c 0
 582 451 613 377 613 279 c 0
 613 107 499 -13 334 -13 c 0
 166 -13 42 109 42 274 c 0
 42 435 160 556 316 556 c 0
 350 556 369 552 412 538 c 1
 351 600 349 602 317 630 c 1
 230 591 l 1
 194 637 l 1
 273 672 l 1
 257 688 256 688 238 705 c 0
 229 712 221 719 213 727 c 1xec
326 492 m 0
 206 492 117 398 117 272 c 0
 117 147 208 55 333 55 c 0
 453 55 538 144 538 271 c 0
 538 400 450 492 326 492 c 0
EndSplineSet
EndChar

StartChar: thorn
Encoding: 330 254 265
Width: 682
GlyphClass: 2
Flags: MW
HStem: -192 21G<63 137 63 63> -13 68<304.5 410.5 287.5 432> 492 68<305 409.5> 719 20G<63 137 137 137>
VStem: 63 74<-192 94 453 739> 565 75<209.5 335.5>
AnchorPoint: "Anchor-0" 369 623 basechar 0
LayerCount: 2
Fore
SplineSet
63 739 m 1
 137 739 l 1
 137 453 l 1
 183 523 258 560 352 560 c 0
 515 560 640 436 640 273 c 0
 640 112 514 -13 350 -13 c 0
 259 -13 185 24 137 94 c 1
 137 -192 l 1
 63 -192 l 1
 63 739 l 1
346 492 m 0
 226 492 132 396 132 273 c 0
 132 150 226 55 349 55 c 0
 472 55 565 148 565 271 c 0
 565 400 473 492 346 492 c 0
EndSplineSet
EndChar

StartChar: sterling
Encoding: 331 163 266
Width: 554
GlyphClass: 2
Flags: MW
HStem: 0 67<59 198 59 198 285 342 342 344> 347 67<18 93 18 144 18 93 242 242 242 457> 685 67<259 353>
VStem: 71 74<495 564 494 582> 240 74<165 212.5 165 214.5> 518 74<198 223 178.5 225.5>
LayerCount: 2
Fore
SplineSet
59 0 m 1
 59 67 l 1
 198 67 l 1
 226 98 240 136 240 183 c 0
 240 246 221 279 144 347 c 1
 18 347 l 1
 18 414 l 1
 93 414 l 1
 76 455 71 478 71 512 c 0
 71 652 169 752 306 752 c 0
 440 752 540 667 554 541 c 1
 485 541 l 1
 465 632 399 685 307 685 c 0
 211 685 145 615 145 513 c 0
 145 475 150 456 173 414 c 1
 457 414 l 1
 457 347 l 1
 242 347 l 1
 290 295 314 241 314 184 c 0
 314 146 307 116 285 67 c 1
 342 67 l 2
 404 67 446 80 473 106 c 0
 500 133 518 177 518 219 c 0
 518 232 517 244 512 268 c 1
 584 268 l 1
 590 245 592 233 592 213 c 0
 592 144 561 80 511 43 c 0
 471 14 418 0 344 0 c 2
 59 0 l 1
EndSplineSet
EndChar

StartChar: cent
Encoding: 332 162 267
Width: 554
GlyphClass: 2
Flags: MW
HStem: 62 155<259 259 259 309.5 236.5 325> 547 160<259 314.5>
VStem: 45 74<336.5 430 336.5 444.5> 259 66<62 151 62 151 614 707>
LayerCount: 2
Fore
SplineSet
259 62 m 1
 259 151 l 1
 136 161 45 259 45 382 c 0
 45 507 132 601 259 614 c 1
 259 707 l 1
 325 707 l 1
 325 614 l 1
 411 602 480 545 509 463 c 1
 426 463 l 1
 395 518 346 547 283 547 c 0
 189 547 119 477 119 383 c 0
 119 290 191 217 282 217 c 0
 337 217 377 238 422 290 c 1
 503 290 l 1
 476 217 405 162 325 151 c 1
 325 62 l 1
 259 62 l 1
EndSplineSet
EndChar

StartChar: florin
Encoding: 333 402 268
Width: 554
GlyphClass: 2
Flags: MW
HStem: -153 67<71 105> 517 67<211 311 198 322 392 492 211 380> 729 20G<535 535> 751 67<497 517>
AnchorPoint: "Anchor-0" 425 868 basechar 0
LayerCount: 2
Fore
SplineSet
392 584 m 1
 504 584 l 1
 492 517 l 1
 380 517 l 1
 300 86 l 2
 278 -31 263 -68 221 -104 c 0
 184 -136 134 -153 76 -153 c 0
 51 -153 36 -151 18 -146 c 1
 30 -82 l 1
 51 -85 64 -86 78 -86 c 0
 172 -86 204 -48 231 92 c 2
 311 517 l 1
 198 517 l 1
 211 584 l 1
 322 584 l 1
 326 607 l 2
 341 684 364 733 400 768 c 0
 432 799 477 818 517 818 c 0
 525 818 532 817 546 815 c 1
 535 749 l 1
 525 750 520 751 514 751 c 0
 454 751 415 703 396 607 c 2
 392 584 l 1
EndSplineSet
EndChar

StartChar: yen
Encoding: 334 165 269
Width: 554
GlyphClass: 2
Flags: MW
HStem: 0 21G<260 260 260 333> 237 67<50 233 50 260 50 233 359 539> 396 67<43 148 43 184 43 148 443 546> 719 20G<0 76 76 76 513 589 589 589>
VStem: 260 73<0 237 0 237>
LayerCount: 2
Fore
SplineSet
260 0 m 1
 260 237 l 1
 50 237 l 1
 50 304 l 1
 233 304 l 1
 184 396 l 1
 43 396 l 1
 43 463 l 1
 148 463 l 1
 0 739 l 1
 76 739 l 1
 297 327 l 1
 513 739 l 1
 589 739 l 1
 443 463 l 1
 546 463 l 1
 546 396 l 1
 407 396 l 1
 359 304 l 1
 539 304 l 1
 539 237 l 1
 333 237 l 1
 333 0 l 1
 260 0 l 1
EndSplineSet
EndChar

StartChar: uni00B9
Encoding: 335 185 270
Width: 332
GlyphClass: 2
Flags: MW
HStem: 684 55<98 173 98 233>
VStem: 173 60<288 684 684 684>
LayerCount: 2
Fore
SplineSet
173 288 m 1
 173 684 l 1
 98 684 l 1
 98 739 l 1
 233 739 l 1
 233 288 l 1
 173 288 l 1
EndSplineSet
EndChar

StartChar: uni00B2
Encoding: 336 178 271
Width: 332
GlyphClass: 2
Flags: MW
HStem: 288 55<101 318 101 318> 692 55<148.5 193>
VStem: 259 61<597 631>
LayerCount: 2
Fore
SplineSet
12 288 m 1
 12 339 l 1
 175 489 l 2
 217 527 217 527 229 541 c 0
 249 564 259 586 259 608 c 0
 259 654 218 692 168 692 c 0
 129 692 94 668 82 634 c 0
 77 620 76 612 76 583 c 1
 16 583 l 1
 16 595 l 2
 17 686 79 747 171 747 c 0
 254 747 320 684 320 606 c 0
 320 559 298 521 234 464 c 2
 101 343 l 1
 318 343 l 1
 318 288 l 1
 12 288 l 1
EndSplineSet
EndChar

StartChar: uni00B3
Encoding: 337 179 272
Width: 332
GlyphClass: 2
Flags: MW
HStem: 280 55<151 190 151 207.5> 692 55<147.5 184>
VStem: 229 61<612 648.5> 258 61<401 445.5>
LayerCount: 2
Fore
SplineSet
104 615 m 1xe0
 43 615 l 1
 44 695 92 747 167 747 c 0
 236 747 290 695 290 628 c 0xe0
 290 594 280 574 249 546 c 1
 296 517 319 477 319 427 c 0
 319 347 249 280 166 280 c 0
 111 280 59 309 33 355 c 0
 19 379 15 400 13 439 c 1
 74 439 l 1
 76 401 80 390 93 373 c 0
 111 349 137 335 165 335 c 0
 215 335 258 377 258 425 c 0xd0
 258 466 228 504 187 513 c 0
 175 516 161 517 128 517 c 1
 128 571 l 1
 138 570 143 570 148 570 c 0
 199 570 229 593 229 631 c 0
 229 666 202 692 166 692 c 0
 129 692 105 665 104 624 c 2
 104 615 l 1xe0
EndSplineSet
EndChar

StartChar: periodcentered
Encoding: 338 183 273
Width: 277
GlyphClass: 2
Flags: MW
HStem: 229 126<101 175 101 175>
VStem: 101 74<229 355 229 355>
LayerCount: 2
Fore
SplineSet
101 229 m 1
 101 355 l 1
 175 355 l 1
 175 229 l 1
 101 229 l 1
EndSplineSet
EndChar

StartChar: ellipsis
Encoding: 339 8230 274
Width: 1000
GlyphClass: 2
Flags: MW
HStem: 0 126<130 204 130 204 463 537 796 870>
VStem: 130 74<0 126 0 126> 463 74<0 126 0 126> 796 74<0 126 0 126>
CounterMasks: 1 70
LayerCount: 2
Fore
SplineSet
130 0 m 1
 130 126 l 1
 204 126 l 1
 204 0 l 1
 130 0 l 1
463 0 m 1
 463 126 l 1
 537 126 l 1
 537 0 l 1
 463 0 l 1
796 0 m 1
 796 126 l 1
 870 126 l 1
 870 0 l 1
 796 0 l 1
EndSplineSet
EndChar

StartChar: quoteleft
Encoding: 340 8216 275
Width: 351
GlyphClass: 2
Flags: MW
HStem: 719 20G<98 172 172 172>
LayerCount: 2
Fore
SplineSet
260 547 m 1
 186 547 l 1
 98 739 l 1
 172 739 l 1
 260 547 l 1
EndSplineSet
EndChar

StartChar: quotedblright
Encoding: 341 8221 276
Width: 484
GlyphClass: 2
Flags: MW
HStem: 719 20G<175 249 249 249 319 393 393 393>
LayerCount: 2
Fore
SplineSet
87 547 m 1
 175 739 l 1
 249 739 l 1
 161 547 l 1
 87 547 l 1
231 547 m 1
 319 739 l 1
 393 739 l 1
 305 547 l 1
 231 547 l 1
EndSplineSet
EndChar

StartChar: quotedblleft
Encoding: 342 8220 277
Width: 502
GlyphClass: 2
Flags: MW
HStem: 719 20G<96 170 170 170 244 318 318 318>
LayerCount: 2
Fore
SplineSet
406 547 m 1
 332 547 l 1
 244 739 l 1
 318 739 l 1
 406 547 l 1
258 547 m 1
 184 547 l 1
 96 739 l 1
 170 739 l 1
 258 547 l 1
EndSplineSet
EndChar

StartChar: quotedblbase
Encoding: 343 8222 278
Width: 502
GlyphClass: 2
Flags: W
LayerCount: 2
Fore
SplineSet
89 -67 m 1
 177 126 l 1
 251 126 l 1
 163 -67 l 1
 89 -67 l 1
236 -67 m 1
 324 126 l 1
 398 126 l 1
 310 -67 l 1
 236 -67 l 1
EndSplineSet
EndChar

StartChar: exclamdown
Encoding: 344 161 279
Width: 295
GlyphClass: 2
Flags: MW
HStem: -192 21G<111 111 111 185> 421 126<111 185 111 185>
VStem: 111 74<-192 352 -192 352 421 547>
LayerCount: 2
Fore
SplineSet
111 -192 m 1
 111 352 l 1
 185 352 l 1
 185 -192 l 1
 111 -192 l 1
111 421 m 1
 111 547 l 1
 185 547 l 1
 185 421 l 1
 111 421 l 1
EndSplineSet
EndChar

StartChar: questiondown
Encoding: 345 191 280
Width: 591
GlyphClass: 2
Flags: MW
HStem: -205 67<248.5 323.5 248.5 333.5> 421 126<256 330 256 330>
VStem: 66 74<-33 34.5 -33 44.5> 256 74<421 547 421 547>
LayerCount: 2
Fore
SplineSet
330 547 m 1
 330 421 l 1
 256 421 l 1
 256 547 l 1
 330 547 l 1
456 39 m 1
 526 39 l 1
 525 -27 514 -66 487 -107 c 0
 444 -170 375 -205 292 -205 c 0
 161 -205 66 -114 66 12 c 0
 66 77 90 122 156 182 c 0
 230 247 257 292 259 354 c 1
 329 354 l 1
 329 339 l 2
 329 305 317 267 296 232 c 0
 280 205 267 191 224 150 c 0
 156 86 140 59 140 10 c 0
 140 -76 204 -138 293 -138 c 0
 354 -138 408 -108 434 -57 c 0
 447 -32 453 -7 456 39 c 1
EndSplineSet
EndChar

StartChar: guillemotright
Encoding: 346 187 281
Width: 425
GlyphClass: 2
Flags: W
LayerCount: 2
Fore
SplineSet
272 99 m 1
 213 132 l 1
 307 300 l 1
 213 467 l 1
 272 499 l 1
 385 300 l 1
 272 99 l 1
99 99 m 1
 40 132 l 1
 134 300 l 1
 40 467 l 1
 99 499 l 1
 214 300 l 1
 99 99 l 1
EndSplineSet
EndChar

StartChar: guillemotleft
Encoding: 347 171 282
Width: 425
GlyphClass: 2
Flags: W
LayerCount: 2
Fore
SplineSet
153 99 m 1
 40 300 l 1
 153 499 l 1
 212 467 l 1
 118 300 l 1
 212 132 l 1
 153 99 l 1
326 99 m 1
 211 300 l 1
 326 499 l 1
 385 467 l 1
 291 300 l 1
 385 132 l 1
 326 99 l 1
EndSplineSet
EndChar

StartChar: guilsinglright
Encoding: 348 8250 283
Width: 251
GlyphClass: 2
Flags: W
LayerCount: 2
Fore
SplineSet
99 99 m 1
 40 132 l 1
 133 300 l 1
 40 467 l 1
 99 499 l 1
 211 300 l 1
 99 99 l 1
EndSplineSet
EndChar

StartChar: guilsinglleft
Encoding: 349 8249 284
Width: 251
GlyphClass: 2
Flags: W
LayerCount: 2
Fore
SplineSet
152 99 m 1
 40 300 l 1
 152 499 l 1
 211 467 l 1
 118 300 l 1
 211 132 l 1
 152 99 l 1
EndSplineSet
EndChar

StartChar: endash
Encoding: 350 8211 285
Width: 500
GlyphClass: 2
Flags: MW
HStem: 233 63<0 500 0 500>
LayerCount: 2
Fore
SplineSet
0 296 m 1
 500 296 l 1
 500 233 l 1
 0 233 l 1
 0 296 l 1
EndSplineSet
EndChar

StartChar: emdash
Encoding: 351 8212 286
Width: 1000
GlyphClass: 2
Flags: MW
HStem: 233 63<0 1000 0 1000>
LayerCount: 2
Fore
SplineSet
0 296 m 1
 1000 296 l 1
 1000 233 l 1
 0 233 l 1
 0 296 l 1
EndSplineSet
EndChar

StartChar: dagger
Encoding: 352 8224 287
Width: 553
GlyphClass: 2
Flags: MW
HStem: 470 66<59 237 59 237 311 494> 719 20G<237 311 311 311>
VStem: 237 74<-133 470 -133 470 536 739>
LayerCount: 2
Fore
SplineSet
311 739 m 1
 311 536 l 1
 494 536 l 1
 494 470 l 1
 311 470 l 1
 311 -133 l 1
 237 -133 l 1
 237 470 l 1
 59 470 l 1
 59 536 l 1
 237 536 l 1
 237 739 l 1
 311 739 l 1
EndSplineSet
EndChar

StartChar: daggerdbl
Encoding: 353 8225 288
Width: 553
GlyphClass: 2
Flags: MW
HStem: 331 70<59 238 59 238 312 494> 493 70<59 238 59 238 312 494> 719 20G<238 312 312 312>
VStem: 238 74<-133 331 -133 331 401 493 563 739>
LayerCount: 2
Fore
SplineSet
312 739 m 1
 312 563 l 1
 494 563 l 1
 494 493 l 1
 312 493 l 1
 312 401 l 1
 494 401 l 1
 494 331 l 1
 312 331 l 1
 312 -133 l 1
 238 -133 l 1
 238 331 l 1
 59 331 l 1
 59 401 l 1
 238 401 l 1
 238 493 l 1
 59 493 l 1
 59 563 l 1
 238 563 l 1
 238 739 l 1
 312 739 l 1
EndSplineSet
EndChar

StartChar: degree
Encoding: 354 176 289
Width: 400
GlyphClass: 2
Flags: MW
HStem: 380 57<174 226 174 242> 629 57<174 226>
VStem: 50 56<506.5 559 506.5 576.5> 293 57<506 560>
LayerCount: 2
Fore
SplineSet
204 686 m 0
 286 686 350 619 350 533 c 0
 350 447 284 380 200 380 c 0
 116 380 50 448 50 534 c 0
 50 619 117 686 204 686 c 0
200 629 m 0
 148 629 106 585 106 533 c 0
 106 480 148 437 200 437 c 0
 252 437 293 479 293 533 c 0
 293 587 252 629 200 629 c 0
EndSplineSet
EndChar

StartChar: minus
Encoding: 355 8722 290
Width: 606
GlyphClass: 2
Flags: MW
HStem: 267 74<51 555 51 555>
LayerCount: 2
Fore
SplineSet
555 341 m 1
 555 267 l 1
 51 267 l 1
 51 341 l 1
 555 341 l 1
EndSplineSet
EndChar

StartChar: multiply
Encoding: 356 215 291
Width: 606
GlyphClass: 2
Flags: MW
HStem: 531 20G<103 103 503 503>
LayerCount: 2
Fore
SplineSet
355 299 m 1
 555 99 l 1
 503 48 l 1
 303 248 l 1
 103 48 l 1
 51 99 l 1
 251 299 l 1
 51 500 l 1
 103 551 l 1
 303 351 l 1
 503 551 l 1
 555 500 l 1
 355 299 l 1
EndSplineSet
EndChar

StartChar: divide
Encoding: 357 247 292
Width: 606
GlyphClass: 2
Flags: MW
HStem: 112 87<259 346 259 346> 267 74<51 555 51 555> 409 87<259 346 259 346>
VStem: 259 87<112 199 409 496>
CounterMasks: 1 e0
LayerCount: 2
Fore
SplineSet
346 409 m 1
 259 409 l 1
 259 496 l 1
 346 496 l 1
 346 409 l 1
346 112 m 1
 259 112 l 1
 259 199 l 1
 346 199 l 1
 346 112 l 1
555 341 m 1
 555 267 l 1
 51 267 l 1
 51 341 l 1
 555 341 l 1
EndSplineSet
EndChar

StartChar: trademark
Encoding: 358 8482 293
Width: 1000
GlyphClass: 2
Flags: MW
HStem: 681 58<63 205 63 413 269 413 269 269>
VStem: 205 64<340 681 340 681> 461 64<340 685 340 739 340 739> 874 64<340 684 684 684>
LayerCount: 2
Fore
SplineSet
938 739 m 1
 938 340 l 1
 874 340 l 1
 874 684 l 1
 718 340 l 1
 676 340 l 1
 525 685 l 1
 525 340 l 1
 461 340 l 1
 461 739 l 1
 570 739 l 1
 697 455 l 1
 832 739 l 1
 938 739 l 1
413 739 m 1
 413 681 l 1
 269 681 l 1
 269 340 l 1
 205 340 l 1
 205 681 l 1
 63 681 l 1
 63 739 l 1
 413 739 l 1
EndSplineSet
EndChar

StartChar: paragraph
Encoding: 359 182 294
Width: 564
GlyphClass: 2
Flags: MW
HStem: 672 67<302 416 302 302>
VStem: 227 75<-133 355 355 355> 416 75<-133 672 672 672>
LayerCount: 2
Fore
SplineSet
227 -133 m 1
 227 355 l 1
 109 367 37 441 37 549 c 0
 37 616 68 675 123 708 c 0
 157 730 198 739 260 739 c 2
 491 739 l 1
 491 -133 l 1
 416 -133 l 1
 416 672 l 1
 302 672 l 1
 302 -133 l 1
 227 -133 l 1
EndSplineSet
EndChar

StartChar: currency
Encoding: 360 164 295
Width: 554
GlyphClass: 2
Flags: MW
HStem: 50 72<247.5 304.5> 483 70<248 305 248 328.5> 528 20G<84 84> 529 20G<469 469>
VStem: 26 71<273.5 332.5> 457 71<270 329.5 270 355.5>
LayerCount: 2
Fore
SplineSet
29 494 m 1x9c
 84 548 l 1xac
 127 506 l 1
 180 540 220 553 276 553 c 0xcc
 334 553 382 538 426 507 c 1
 469 549 l 1
 523 494 l 1
 482 452 l 1
 514 404 528 359 528 300 c 0
 528 240 513 191 481 153 c 1
 523 111 l 1
 469 58 l 1
 428 100 l 1
 370 62 333 50 276 50 c 0
 219 50 180 63 126 100 c 1
 84 58 l 1
 31 112 l 1
 72 153 l 1
 40 198 26 244 26 303 c 0
 26 362 40 406 73 452 c 1
 29 494 l 1x9c
275 483 m 0xcc
 174 483 97 405 97 302 c 0
 97 199 175 122 279 122 c 0
 380 122 457 200 457 302 c 0
 457 409 382 483 275 483 c 0xcc
EndSplineSet
EndChar

StartChar: quotesinglbase
Encoding: 361 8218 296
Width: 354
GlyphClass: 2
Flags: W
LayerCount: 2
Fore
SplineSet
89 -67 m 1
 177 126 l 1
 251 126 l 1
 163 -67 l 1
 89 -67 l 1
EndSplineSet
EndChar

StartChar: quoteright
Encoding: 362 8217 297
Width: 351
GlyphClass: 2
Flags: MW
HStem: 719 20G<179 253 253 253>
LayerCount: 2
Fore
SplineSet
91 547 m 1
 179 739 l 1
 253 739 l 1
 165 547 l 1
 91 547 l 1
EndSplineSet
EndChar

StartChar: ordfeminine
Encoding: 363 170 298
Width: 369
GlyphClass: 2
Flags: MW
HStem: 319 51<31 339 31 339> 441 49<157.5 203.5> 696 49<157 203.5 141 210>
VStem: 31 53<566.5 620.5 566.5 635.5> 285 48<448 493 493 493 694 739 448 739>
LayerCount: 2
Fore
SplineSet
333 739 m 1
 333 448 l 1
 285 448 l 1
 285 493 l 1
 255 456 225 441 182 441 c 0
 100 441 31 511 31 594 c 0
 31 677 99 745 183 745 c 0
 224 745 266 724 285 694 c 1
 285 739 l 1
 333 739 l 1
183 696 m 0
 131 696 84 647 84 594 c 0
 84 539 131 490 184 490 c 0
 236 490 282 538 282 592 c 0
 282 649 237 696 183 696 c 0
31 370 m 1
 339 370 l 1
 339 319 l 1
 31 319 l 1
 31 370 l 1
EndSplineSet
EndChar

StartChar: ordmasculine
Encoding: 364 186 299
Width: 369
GlyphClass: 2
Flags: MW
HStem: 319 51<32 337 32 337> 442 49<157 212.5 157 226> 696 49<156 211.5>
VStem: 32 53<565 622 565 635> 284 53<564.5 622>
LayerCount: 2
Fore
SplineSet
186 745 m 0
 268 745 337 675 337 594 c 0
 337 511 268 442 184 442 c 0
 101 442 32 510 32 593 c 0
 32 677 101 745 186 745 c 0
183 696 m 0
 129 696 85 650 85 594 c 0
 85 536 129 491 185 491 c 0
 240 491 284 536 284 593 c 0
 284 651 240 696 183 696 c 0
32 370 m 1
 337 370 l 1
 337 319 l 1
 32 319 l 1
 32 370 l 1
EndSplineSet
EndChar

StartChar: plusminus
Encoding: 365 177 300
Width: 606
GlyphClass: 2
Flags: MW
HStem: 0 74<51 555 51 555> 295 74<51 265 51 265 342 555>
VStem: 265 77<124 295 124 295 369 585>
LayerCount: 2
Fore
SplineSet
265 369 m 1
 265 585 l 1
 342 585 l 1
 342 369 l 1
 555 369 l 1
 555 295 l 1
 342 295 l 1
 342 124 l 1
 265 124 l 1
 265 295 l 1
 51 295 l 1
 51 369 l 1
 265 369 l 1
555 74 m 1
 555 0 l 1
 51 0 l 1
 51 74 l 1
 555 74 l 1
EndSplineSet
EndChar

StartChar: onehalf
Encoding: 366 189 301
Width: 831
GlyphClass: 2
Flags: MW
HStem: 0 55<595 812 595 812> 404 55<642.5 687> 684 55<96 171 96 231>
VStem: 171 60<288 684 684 684> 753 61<309 343>
LayerCount: 2
Fore
SplineSet
206 0 m 1
 547 739 l 1
 602 739 l 1
 260 0 l 1
 206 0 l 1
171 288 m 1
 171 684 l 1
 96 684 l 1
 96 739 l 1
 231 739 l 1
 231 288 l 1
 171 288 l 1
506 0 m 1
 506 51 l 1
 669 201 l 2
 711 239 711 239 723 253 c 0
 743 276 753 298 753 320 c 0
 753 366 712 404 662 404 c 0
 623 404 588 380 576 346 c 0
 571 332 570 324 570 295 c 1
 510 295 l 1
 510 307 l 2
 511 398 573 459 665 459 c 0
 748 459 814 396 814 318 c 0
 814 271 792 233 728 176 c 2
 595 55 l 1
 812 55 l 1
 812 0 l 1
 506 0 l 1
EndSplineSet
EndChar

StartChar: onequarter
Encoding: 367 188 302
Width: 831
GlyphClass: 2
Flags: MW
HStem: 0 21G<211 211 211 265 701 701 701 761> 79 55<545 701 545 701 761 803> 684 55<101 176 101 236>
VStem: 176 60<288 684 684 684> 701 60<0 79 0 79 134 359 359 359>
LayerCount: 2
Fore
SplineSet
701 0 m 1
 701 79 l 1
 470 79 l 1
 470 129 l 1
 696 451 l 1
 761 451 l 1
 761 134 l 1
 803 134 l 1
 803 79 l 1
 761 79 l 1
 761 0 l 1
 701 0 l 1
701 134 m 1
 701 359 l 1
 545 134 l 1
 701 134 l 1
211 0 m 1
 552 739 l 1
 607 739 l 1
 265 0 l 1
 211 0 l 1
176 288 m 1
 176 684 l 1
 101 684 l 1
 101 739 l 1
 236 739 l 1
 236 288 l 1
 176 288 l 1
EndSplineSet
EndChar

StartChar: threequarters
Encoding: 368 190 303
Width: 831
GlyphClass: 2
Flags: MW
HStem: 0 21G<239 239 239 293 701 701 701 761> 79 55<545 701 545 701 761 803> 280 55<151 190 151 207.5> 692 55<147.5 184>
VStem: 229 61<612 648.5> 258 61<401 445.5> 701 60<0 79 0 79 134 359 359 359>
LayerCount: 2
Fore
SplineSet
701 0 m 1xf2
 701 79 l 1
 470 79 l 1
 470 129 l 1
 696 451 l 1
 761 451 l 1
 761 134 l 1
 803 134 l 1
 803 79 l 1
 761 79 l 1
 761 0 l 1
 701 0 l 1xf2
701 134 m 1
 701 359 l 1
 545 134 l 1
 701 134 l 1
239 0 m 1
 580 739 l 1
 635 739 l 1
 293 0 l 1
 239 0 l 1
104 615 m 1
 43 615 l 1
 44 695 92 747 167 747 c 0
 236 747 290 695 290 628 c 0xfa
 290 594 280 574 249 546 c 1
 296 517 319 477 319 427 c 0
 319 347 249 280 166 280 c 0
 111 280 59 309 33 355 c 0
 19 379 14 400 13 439 c 1
 74 439 l 1
 76 401 80 390 93 373 c 0
 111 349 137 335 165 335 c 0
 215 335 258 377 258 425 c 0xf6
 258 466 228 504 187 513 c 0
 175 516 161 517 128 517 c 1
 128 571 l 1
 138 570 143 570 148 570 c 0
 199 570 229 593 229 631 c 0xfa
 229 666 202 692 166 692 c 0
 129 692 105 665 104 624 c 2
 104 615 l 1
EndSplineSet
EndChar

StartChar: fraction
Encoding: 369 8260 304
Width: 166
GlyphClass: 2
Flags: MW
HStem: 0 21G<-115 -115 -115 -61> 719 20G<227 281 281 281>
LayerCount: 2
Fore
SplineSet
-115 0 m 1
 227 739 l 1
 281 739 l 1
 -61 0 l 1
 -115 0 l 1
EndSplineSet
EndChar

StartChar: perthousand
Encoding: 370 8240 305
Width: 1174
GlyphClass: 2
Flags: MW
HStem: -13 66<546.5 606 546.5 624.5 945.5 1005> 272 66<545.5 605.5 944.5 1004.5> 397 66<158 217.5 158 236.5> 683 66<157 217> 719 20G<514 588 588 588>
VStem: 13 66<542.5 603 542.5 622> 296 68<542 603.5> 401 67<132.5 192.5 132.5 211.5> 684 68<132 193> 800 67<132.5 192.5 132.5 211.5> 1083 68<132 193>
LayerCount: 2
Fore
SplineSet
514 739 m 1xefe0
 588 739 l 1
 254 0 l 1
 182 0 l 1
 514 739 l 1xefe0
579 338 m 0
 673 338 752 258 752 163 c 0
 752 66 673 -13 576 -13 c 0
 480 -13 401 66 401 162 c 0
 401 261 479 338 579 338 c 0
575 272 m 0
 516 272 468 222 468 163 c 0
 468 102 517 53 576 53 c 0
 636 53 684 102 684 162 c 0
 684 224 636 272 575 272 c 0
978 338 m 0
 1072 338 1151 258 1151 163 c 0
 1151 66 1072 -13 975 -13 c 0
 879 -13 800 66 800 162 c 0
 800 261 878 338 978 338 c 0
974 272 m 0
 915 272 867 222 867 163 c 0
 867 102 916 53 975 53 c 0
 1035 53 1083 102 1083 162 c 0
 1083 224 1035 272 974 272 c 0
191 749 m 0xf7e0
 285 749 364 669 364 573 c 0
 364 476 285 397 188 397 c 0
 92 397 13 476 13 573 c 0
 13 671 91 749 191 749 c 0xf7e0
186 683 m 0
 128 683 79 633 79 573 c 0
 79 512 128 463 188 463 c 0
 247 463 296 512 296 572 c 0
 296 635 248 683 186 683 c 0
EndSplineSet
EndChar

StartChar: dieresis
Encoding: 371 168 306
Width: 369
GlyphClass: 2
Flags: MW
HStem: 623 126<74 148 74 148 74 221 221 295>
VStem: 74 74<623 749 623 749> 221 74<623 749 623 749>
LayerCount: 2
Fore
SplineSet
74 749 m 1
 148 749 l 1
 148 623 l 1
 74 623 l 1
 74 749 l 1
221 749 m 1
 295 749 l 1
 295 623 l 1
 221 623 l 1
 221 749 l 1
EndSplineSet
EndChar

StartChar: dotaccent
Encoding: 372 729 307
Width: 222
GlyphClass: 2
Flags: MW
HStem: 623 126<74 148 74 148>
VStem: 74 74<623 749 623 749>
LayerCount: 2
Fore
SplineSet
74 749 m 1
 148 749 l 1
 148 623 l 1
 74 623 l 1
 74 749 l 1
EndSplineSet
EndChar

StartChar: ring
Encoding: 373 730 308
Width: 332
GlyphClass: 2
Flags: MW
HStem: 610 41<152 180 152 191.5> 753 41<151.5 179.5>
VStem: 74 41<687 715.5 687 727> 217 41<687.5 715.5>
LayerCount: 2
Fore
SplineSet
167 794 m 0
 217 794 258 752 258 702 c 0
 258 651 217 610 166 610 c 0
 115 610 74 651 74 701 c 0
 74 753 115 794 167 794 c 0
165 753 m 0
 138 753 115 730 115 701 c 0
 115 673 138 651 166 651 c 0
 194 651 217 674 217 701 c 0
 217 730 194 753 165 753 c 0
EndSplineSet
EndChar

StartChar: acute
Encoding: 374 180 309
Width: 375
GlyphClass: 2
Flags: W
LayerCount: 2
Fore
SplineSet
74 666 m 1
 267 782 l 1
 301 724 l 1
 108 610 l 1
 74 666 l 1
EndSplineSet
EndChar

StartChar: circumflex
Encoding: 375 710 310
Width: 502
GlyphClass: 2
Flags: MW
HStem: 729 20G<219 285 285 285>
LayerCount: 2
Fore
SplineSet
74 623 m 1
 219 749 l 1
 285 749 l 1
 428 623 l 1
 339 623 l 1
 253 697 l 1
 165 623 l 1
 74 623 l 1
EndSplineSet
EndChar

StartChar: caron
Encoding: 376 711 311
Width: 502
GlyphClass: 2
Flags: MW
HStem: 729 20G<74 163 163 163 337 428 428 428>
LayerCount: 2
Fore
SplineSet
428 749 m 1
 283 623 l 1
 217 623 l 1
 74 749 l 1
 163 749 l 1
 249 675 l 1
 337 749 l 1
 428 749 l 1
EndSplineSet
EndChar

StartChar: breve
Encoding: 377 728 312
Width: 453
GlyphClass: 2
Flags: MW
HStem: 623 58<215 237 215 246.5> 723 20G<74 138 138 138 314 378 378 378>
LayerCount: 2
Fore
SplineSet
74 743 m 1
 138 743 l 1
 142 718 149 707 164 697 c 0
 181 687 204 681 226 681 c 0
 248 681 271 687 288 697 c 0
 303 707 310 718 314 743 c 1
 378 743 l 1
 369 693 356 670 327 650 c 0
 301 632 267 623 226 623 c 0
 137 623 89 660 74 743 c 1
EndSplineSet
Substitution2: "'locl' Localized Forms in Cyrillic lookup 3 subtable" breve.cyrlc
EndChar

StartChar: tilde
Encoding: 378 732 313
Width: 439
GlyphClass: 2
Flags: MW
HStem: 633 64<270.5 284.5 270.5 290.5> 665 63<158.5 173.5>
LayerCount: 2
Fore
SplineSet
332 728 m 1x80
 365 682 l 1
 349 656 307 633 274 633 c 0x80
 259 633 242 639 208 655 c 0
 193 661 179 665 168 665 c 0
 149 665 141 661 115 639 c 2
 108 633 l 1
 75 679 l 1
 98 710 132 728 168 728 c 0x40
 186 728 196 725 227 711 c 0
 244 704 266 697 275 697 c 0
 294 697 311 706 332 728 c 1x80
EndSplineSet
EndChar

StartChar: hungarumlaut
Encoding: 379 733 314
Width: 552
GlyphClass: 2
Flags: W
LayerCount: 2
Fore
SplineSet
74 657 m 1
 245 780 l 1
 283 731 l 1
 109 610 l 1
 74 657 l 1
270 657 m 1
 441 780 l 1
 479 731 l 1
 305 610 l 1
 270 657 l 1
EndSplineSet
EndChar

StartChar: cedilla
Encoding: 380 184 315
Width: 324
GlyphClass: 2
Flags: MW
HStem: -213 43<151.5 176 151.5 188> -72 33<168.5 174.5>
VStem: 207 43<-137.5 -108.5>
LayerCount: 2
Fore
SplineSet
124 0 m 1
 160 0 l 1
 141 -47 l 1
 156 -41 163 -39 174 -39 c 0
 219 -39 250 -72 250 -119 c 0
 250 -174 214 -213 162 -213 c 0
 116 -213 85 -187 74 -140 c 1
 118 -135 l 1
 124 -157 140 -170 163 -170 c 0
 189 -170 207 -151 207 -124 c 0
 207 -93 188 -72 161 -72 c 0
 143 -72 132 -79 118 -96 c 1
 89 -79 l 1
 124 0 l 1
EndSplineSet
EndChar

StartChar: ogonek
Encoding: 381 731 316
Width: 302
GlyphClass: 2
Flags: MW
HStem: -191 45<166 186>
VStem: 74 50<-112 -84 -112 -81>
LayerCount: 2
Fore
SplineSet
146 0 m 1
 197 0 l 1
 153 -31 124 -70 124 -98 c 0
 124 -126 149 -146 183 -146 c 0
 199 -146 213 -143 228 -136 c 1
 228 -182 l 1
 208 -188 194 -191 178 -191 c 0
 117 -191 74 -153 74 -101 c 0
 74 -61 96 -30 146 0 c 1
EndSplineSet
EndChar

StartChar: macron
Encoding: 382 175 317
Width: 485
GlyphClass: 2
Flags: MW
HStem: 643 64<74 411 74 411>
LayerCount: 2
Fore
SplineSet
74 707 m 1
 411 707 l 1
 411 643 l 1
 74 643 l 1
 74 707 l 1
EndSplineSet
EndChar

StartChar: copyright
Encoding: 383 169 318
Width: 747
GlyphClass: 2
Flags: MW
HStem: -13 52<283 463 283 478.5> 148 56<340 406 340 423> 538 56<340 408> 700 52<281 461.5>
VStem: -9 56<278 459.5 278 476> 163 61<326.5 418 326.5 434> 699 56<278 461.5>
LayerCount: 2
Fore
SplineSet
501 261 m 1
 576 261 l 1
 536 190 464 148 382 148 c 0
 262 148 163 249 163 372 c 0
 163 496 261 594 383 594 c 0
 467 594 537 552 579 477 c 1
 505 477 l 1
 471 518 432 538 384 538 c 0
 296 538 224 464 224 372 c 0
 224 281 297 204 383 204 c 0
 429 204 469 223 501 261 c 1
378 752 m 0
 584 752 755 579 755 369 c 0
 755 158 584 -13 373 -13 c 0
 162 -13 -9 158 -9 369 c 0
 -9 583 161 752 378 752 c 0
369 700 m 0
 193 700 47 550 47 369 c 0
 47 187 193 39 373 39 c 0
 553 39 699 187 699 369 c 0
 699 554 554 700 369 700 c 0
EndSplineSet
EndChar

StartChar: registered
Encoding: 384 174 319
Width: 747
GlyphClass: 2
Flags: MW
HStem: -13 52<283 463 283 478.5> 527 58<309 376 309 309> 700 52<281 461.5>
VStem: -9 56<278 459.5 278 476> 248 61<157 359 365 527> 471 63<421 468 410 472> 699 56<278 461.5>
LayerCount: 2
Fore
SplineSet
530 157 m 1
 454 157 l 1
 309 359 l 1
 309 157 l 1
 248 157 l 1
 248 585 l 1
 380 585 l 2
 433 585 469 574 495 549 c 0
 519 525 534 488 534 448 c 0
 534 372 492 328 409 317 c 1
 530 157 l 1
309 365 m 1
 353 365 l 2
 430 365 471 394 471 448 c 0
 471 496 434 527 376 527 c 2
 309 527 l 1
 309 365 l 1
378 752 m 0
 584 752 755 579 755 369 c 0
 755 158 584 -13 373 -13 c 0
 162 -13 -9 158 -9 369 c 0
 -9 583 161 752 378 752 c 0
369 700 m 0
 193 700 47 550 47 369 c 0
 47 187 193 39 373 39 c 0
 553 39 699 187 699 369 c 0
 699 554 554 700 369 700 c 0
EndSplineSet
EndChar

StartChar: bullet
Encoding: 385 8226 320
Width: 606
GlyphClass: 2
Flags: W
LayerCount: 2
Fore
SplineSet
306 488 m 0
 406 488 488 405 488 303 c 0
 488 201 406 118 303 118 c 0
 201 118 118 201 118 303 c 0
 118 407 200 488 306 488 c 0
EndSplineSet
EndChar

StartChar: logicalnot
Encoding: 386 172 321
Width: 606
GlyphClass: 2
Flags: MW
HStem: 363 73<51 483 51 555>
VStem: 483 72<148 363 363 363>
LayerCount: 2
Fore
SplineSet
51 436 m 1
 555 436 l 1
 555 148 l 1
 483 148 l 1
 483 363 l 1
 51 363 l 1
 51 436 l 1
EndSplineSet
EndChar

StartChar: brokenbar
Encoding: 387 166 322
Width: 672
GlyphClass: 2
Flags: MW
HStem: 0 21G<304 368 304 304> 719 20G<304 368 368 368>
VStem: 304 64<0 295 0 295 444 739>
LayerCount: 2
Fore
SplineSet
368 739 m 1
 368 444 l 1
 304 444 l 1
 304 739 l 1
 368 739 l 1
368 295 m 1
 368 0 l 1
 304 0 l 1
 304 295 l 1
 368 295 l 1
EndSplineSet
EndChar

StartChar: mu
Encoding: 388 181 323
Width: 608
GlyphClass: 2
Flags: MW
HStem: -192 21G<63 137 63 63> -13 67<285.5 333.5 285.5 345.5> 527 20G<63 137 137 137 471 545 545 545>
VStem: 63 74<-192 85 219.5 266 266 547> 471 74<0 85 85 85 266 547 0 547>
LayerCount: 2
Fore
SplineSet
545 547 m 1
 545 0 l 1
 471 0 l 1
 471 85 l 1
 437 18 384 -13 307 -13 c 0
 235 -13 175 22 137 85 c 1
 137 -192 l 1
 63 -192 l 1
 63 547 l 1
 137 547 l 1
 137 266 l 2
 137 173 148 140 190 101 c 0
 222 71 265 54 306 54 c 0
 361 54 411 80 440 123 c 0
 462 157 471 199 471 266 c 2
 471 547 l 1
 545 547 l 1
EndSplineSet
EndChar

StartChar: uni20BD
Encoding: 389 8381 324
Width: 554
GlyphClass: 2
Flags: MW
HStem: 0 21G<104 178 104 104> 170 67<37 104 37 104 178 377> 299 67<37 104 37 104 178 281 281 289> 672 67<178 255 178 178>
VStem: 104 74<0 170 0 170 237 299 366 672> 448 75<487 552>
LayerCount: 2
Fore
SplineSet
178 366 m 1
 281 366 l 2
 336 366 372 373 398 391 c 0
 430 412 448 458 448 516 c 0
 448 588 423 639 380 656 c 0
 353 667 314 672 255 672 c 2
 178 672 l 1
 178 366 l 1
104 237 m 1
 104 299 l 1
 37 299 l 1
 37 366 l 1
 104 366 l 1
 104 739 l 1
 279 739 l 2
 360 739 400 728 437 700 c 0
 484 667 523 600 523 515 c 0
 523 441 501 380 460 345 c 0
 422 312 375 299 289 299 c 2
 178 299 l 1
 178 237 l 1
 377 237 l 1
 377 170 l 1
 178 170 l 1
 178 0 l 1
 104 0 l 1
 104 170 l 1
 37 170 l 1
 37 237 l 1
 104 237 l 1
EndSplineSet
EndChar

StartChar: Euro
Encoding: 390 8364 325
Width: 870
GlyphClass: 2
Flags: MW
HStem: -13 68<478.5 593.5> 263 67<76 161 76 172 46 161 252 252 252 669> 397 67<76 160 46 170 76 235 247 728> 551 21G<796 796> 684 68<473 576.5>
VStem: 159 75<363 372> 170 77<464 464>
LayerCount: 2
Fore
SplineSet
783 67 m 1xfc
 719 14 640 -13 547 -13 c 0
 363 -13 217 100 172 263 c 1
 46 263 l 1
 76 330 l 1
 161 330 l 1
 159 342 159 354 159 367 c 0xfc
 159 377 159 387 160 397 c 1
 46 397 l 1
 76 464 l 1
 170 464 l 1
 210 634 355 752 542 752 c 0
 659 752 762 706 830 628 c 1
 796 551 l 1
 768 594 748 616 714 637 c 0
 665 668 608 684 545 684 c 0
 401 684 285 594 247 464 c 1xfa
 758 464 l 1
 728 397 l 1
 235 397 l 1
 234 388 234 379 234 370 c 0
 234 356 235 343 236 330 c 1
 699 330 l 1
 669 263 l 1
 252 263 l 1
 296 142 411 55 546 55 c 0
 647 55 729 105 783 169 c 1
 783 67 l 1xfc
EndSplineSet
EndChar

StartChar: uni2010
Encoding: 405 8208 340
Width: 332
GlyphClass: 2
Flags: MW
HStem: 233 63<31 302 31 302>
LayerCount: 2
Fore
SplineSet
31 296 m 1
 302 296 l 1
 302 233 l 1
 31 233 l 1
 31 296 l 1
EndSplineSet
EndChar

StartChar: uni2011
Encoding: 406 8209 341
Width: 332
GlyphClass: 2
Flags: MW
HStem: 233 63<31 302 31 302>
LayerCount: 2
Fore
SplineSet
31 296 m 1
 302 296 l 1
 302 233 l 1
 31 233 l 1
 31 296 l 1
EndSplineSet
EndChar

StartChar: figuredash
Encoding: 407 8210 342
Width: 554
GlyphClass: 2
Flags: MW
HStem: 233 63<31 524 31 524>
LayerCount: 2
Fore
SplineSet
31 296 m 1
 524 296 l 1
 524 233 l 1
 31 233 l 1
 31 296 l 1
EndSplineSet
EndChar

StartChar: uni2015
Encoding: 408 8213 343
Width: 1000
GlyphClass: 2
Flags: MW
HStem: 233 63<0 1000 0 1000>
LayerCount: 2
Fore
SplineSet
0 296 m 1
 1000 296 l 1
 1000 233 l 1
 0 233 l 1
 0 296 l 1
EndSplineSet
EndChar

StartChar: zero.fitted
Encoding: 409 57344 344
Width: 555
GlyphClass: 2
Flags: MW
HStem: -13 67<249.5 315.5 249.5 326.5> 685 67<244.5 306.5>
VStem: 30 73<269 281 281 462> 452 73<281 462 462 479>
AnchorPoint: "Anchor-0" 277 805 basechar 0
LayerCount: 2
Fore
SplineSet
30 269 m 2
 30 479 l 2
 30 569 47 627 87 674 c 0
 130 725 197 752 277 752 c 0
 368 752 442 715 486 648 c 0
 515 604 525 560 525 479 c 2
 525 269 l 2
 525 183 509 117 477 74 c 0
 435 16 370 -13 283 -13 c 0
 181 -13 105 27 63 103 c 0
 41 144 30 198 30 269 c 2
452 281 m 2
 452 462 l 2
 452 546 442 588 415 623 c 0
 384 663 335 685 278 685 c 0
 211 685 155 654 127 603 c 0
 111 573 103 529 103 462 c 2
 103 281 l 2
 103 202 114 154 138 120 c 0
 170 77 219 54 280 54 c 0
 351 54 405 84 430 138 c 0
 444 168 452 219 452 281 c 2
EndSplineSet
Substitution2: "'tnum' Tabular Numbers lookup 8 subtable" zero
EndChar

StartChar: one.fitted
Encoding: 410 57345 345
Width: 334
GlyphClass: 2
Flags: MW
HStem: 0 21G<157 157 157 230> 672 67<31 157 31 230>
VStem: 157 73<0 672 672 672>
AnchorPoint: "Anchor-0" 153 805 basechar 0
LayerCount: 2
Fore
SplineSet
157 0 m 1
 157 672 l 1
 31 672 l 1
 31 739 l 1
 230 739 l 1
 230 0 l 1
 157 0 l 1
EndSplineSet
Substitution2: "'tnum' Tabular Numbers lookup 8 subtable" one
EndChar

StartChar: two.fitted
Encoding: 411 57346 346
Width: 541
GlyphClass: 2
Flags: MW
HStem: 0 67<34 34 134 503> 685 67<240.5 319.5>
VStem: 433 74<509 576>
AnchorPoint: "Anchor-0" 278 805 basechar 0
LayerCount: 2
Fore
SplineSet
34 0 m 1
 34 67 l 1
 293 317 l 2
 359 380 359 380 381 407 c 0
 417 449 433 487 433 531 c 0
 433 621 366 685 273 685 c 0
 208 685 155 652 130 598 c 0
 118 572 113 544 113 500 c 1
 40 500 l 1
 40 552 43 573 56 608 c 0
 90 698 171 752 274 752 c 0
 409 752 507 658 507 527 c 0
 507 448 475 393 371 294 c 2
 134 67 l 1
 503 67 l 1
 503 0 l 1
 34 0 l 1
EndSplineSet
Substitution2: "'tnum' Tabular Numbers lookup 8 subtable" two
EndChar

StartChar: three.fitted
Encoding: 412 57347 347
Width: 535
GlyphClass: 2
Flags: MW
HStem: -13 67<242 314.5 242 336.5> 685 67<232 301>
VStem: 380 74<534.5 603> 429 74<173 259>
AnchorPoint: "Anchor-0" 276 805 basechar 0
LayerCount: 2
Fore
SplineSet
154 555 m 1xe0
 81 555 l 1
 85 676 157 752 268 752 c 0
 378 752 454 675 454 565 c 0xe0
 454 504 430 459 378 423 c 1
 461 381 503 313 503 224 c 0
 503 91 401 -13 272 -13 c 0
 180 -13 101 33 61 108 c 0
 42 144 34 180 32 231 c 1
 105 231 l 1
 109 177 117 150 137 122 c 0
 167 79 215 54 269 54 c 0
 360 54 429 126 429 220 c 0xd0
 429 298 378 364 304 382 c 0
 284 386 267 387 218 388 c 1
 218 454 l 1
 247 452 248 452 254 452 c 0
 331 452 380 497 380 569 c 0
 380 637 334 685 268 685 c 0
 196 685 155 638 154 555 c 1xe0
EndSplineSet
Substitution2: "'tnum' Tabular Numbers lookup 8 subtable" three
EndChar

StartChar: four.fitted
Encoding: 413 57348 348
Width: 571
GlyphClass: 2
Flags: MW
HStem: 0 21G<402 402 402 475> 135 67<113 402 28 28 475 543> 719 20G<388 475 475 475>
VStem: 402 73<0 135 0 135 202 637 637 637>
AnchorPoint: "Anchor-0" 293 805 basechar 0
LayerCount: 2
Fore
SplineSet
402 0 m 1
 402 135 l 1
 28 135 l 1
 28 202 l 1
 388 739 l 1
 475 739 l 1
 475 202 l 1
 543 202 l 1
 543 135 l 1
 475 135 l 1
 475 0 l 1
 402 0 l 1
402 202 m 1
 402 637 l 1
 113 202 l 1
 402 202 l 1
EndSplineSet
Substitution2: "'tnum' Tabular Numbers lookup 8 subtable" four
EndChar

StartChar: five.fitted
Encoding: 414 57349 349
Width: 554
GlyphClass: 2
Flags: MW
HStem: -13 67<230.5 327 230 349.5> 436 67<261 327.5> 672 67<192 466 192 192>
VStem: 454 74<192 300>
AnchorPoint: "Anchor-0" 277 805 basechar 0
LayerCount: 2
Fore
SplineSet
67 375 m 1
 133 739 l 1
 466 739 l 1
 466 672 l 1
 192 672 l 1
 156 468 l 1
 201 493 239 503 283 503 c 0
 421 503 528 391 528 246 c 0
 528 100 419 -13 280 -13 c 0
 181 -13 94 43 51 134 c 0
 38 163 33 183 26 232 c 1
 98 232 l 1
 111 126 183 54 277 54 c 0
 377 54 454 138 454 246 c 0
 454 354 378 436 277 436 c 0
 219 436 169 409 124 353 c 1
 67 375 l 1
EndSplineSet
Substitution2: "'tnum' Tabular Numbers lookup 8 subtable" five
EndChar

StartChar: six.fitted
Encoding: 415 57350 350
Width: 556
GlyphClass: 2
Flags: MW
HStem: -13 67<228.5 331.5 228.5 353> 436 67<278.5 330> 719 20G<297 382 382 382>
VStem: 26 74<191 281> 456 74<189.5 301.5>
AnchorPoint: "Anchor-0" 278 805 basechar 0
LayerCount: 2
Fore
SplineSet
297 739 m 1
 382 739 l 1
 208 482 l 1
 241 498 263 503 294 503 c 0
 426 503 530 391 530 249 c 0
 530 97 425 -13 281 -13 c 0
 135 -13 26 97 26 244 c 0
 26 318 43 361 114 467 c 2
 297 739 l 1
277 436 m 0
 177 436 100 354 100 246 c 0
 100 136 177 54 280 54 c 0
 383 54 456 134 456 245 c 0
 456 358 383 436 277 436 c 0
EndSplineSet
Substitution2: "'tnum' Tabular Numbers lookup 8 subtable" six
EndChar

StartChar: seven.fitted
Encoding: 416 57351 351
Width: 459
GlyphClass: 2
Flags: MW
HStem: 0 21G<64 64 64 142> 672 67<18 368 18 444 18 444>
AnchorPoint: "Anchor-0" 231 805 basechar 0
LayerCount: 2
Fore
SplineSet
64 0 m 1
 368 672 l 1
 18 672 l 1
 18 739 l 1
 444 739 l 1
 444 672 l 1
 142 0 l 1
 64 0 l 1
EndSplineSet
Substitution2: "'tnum' Tabular Numbers lookup 8 subtable" seven
EndChar

StartChar: eight.fitted
Encoding: 417 57352 352
Width: 534
GlyphClass: 2
Flags: MW
HStem: -13 67<221.5 315.5 221.5 337.5> 375 69<234.5 304 234.5 313.5> 685 67<230 302>
VStem: 32 74<167 259.5> 71 74<540.5 600.5 531 615.5> 389 74<530.5 601> 428 74<168.5 263>
AnchorPoint: "Anchor-0" 267 805 basechar 0
LayerCount: 2
Fore
SplineSet
157 413 m 1xf2
 131 428 120 437 107 452 c 0
 84 481 71 520 71 561 c 0
 71 670 156 752 268 752 c 0
 382 752 463 673 463 561 c 0xec
 463 488 435 441 375 413 c 1
 457 377 502 309 502 218 c 0
 502 83 405 -13 270 -13 c 0
 134 -13 32 85 32 215 c 0
 32 304 76 374 157 413 c 1xf2
265 375 m 0xf2
 172 375 106 308 106 213 c 0
 106 121 174 54 269 54 c 0
 362 54 428 121 428 216 c 0
 428 310 362 375 265 375 c 0xf2
265 685 m 0xec
 195 685 145 635 145 566 c 0
 145 496 199 444 270 444 c 0
 338 444 389 496 389 565 c 0
 389 637 339 685 265 685 c 0xec
EndSplineSet
Substitution2: "'tnum' Tabular Numbers lookup 8 subtable" eight
EndChar

StartChar: nine.fitted
Encoding: 418 57353 353
Width: 556
GlyphClass: 2
Flags: MW
HStem: 0 21G<174 259 174 174> 236 67<225.5 277.5> 685 67<223 326>
VStem: 26 74<437.5 548.5 437.5 566> 456 74<458 548.5>
AnchorPoint: "Anchor-0" 278 805 basechar 0
LayerCount: 2
Fore
SplineSet
259 0 m 1
 174 0 l 1
 348 257 l 1
 315 241 293 236 262 236 c 0
 130 236 26 348 26 490 c 0
 26 642 131 752 275 752 c 0
 421 752 530 642 530 495 c 0
 530 421 513 378 442 272 c 2
 259 0 l 1
273 685 m 0
 173 685 100 604 100 493 c 0
 100 382 174 303 277 303 c 0
 379 303 456 384 456 493 c 0
 456 604 379 685 273 685 c 0
EndSplineSet
Substitution2: "'tnum' Tabular Numbers lookup 8 subtable" nine
EndChar

StartChar: uni0400
Encoding: 419 1024 354
Width: 536
GlyphClass: 2
Flags: MW
HStem: 0 67<150 480 150 480> 340 67<150 469 150 469> 672 67<150 480 150 150>
VStem: 76 74<67 340 407 672>
AnchorPoint: "Anchor-0" 278 987 basechar 0
LayerCount: 2
Fore
SplineSet
76 0 m 1
 76 739 l 1
 480 739 l 1
 480 672 l 1
 150 672 l 1
 150 407 l 1
 469 407 l 1
 469 340 l 1
 150 340 l 1
 150 67 l 1
 480 67 l 1
 480 0 l 1
 76 0 l 1
162 958 m 1
 360 848 l 1
 327 792 l 1
 130 900 l 1
 162 958 l 1
EndSplineSet
EndChar

StartChar: uni0450
Encoding: 420 1104 355
Width: 650
GlyphClass: 2
Flags: MW
HStem: -13 68<272.5 370.5 272.5 390.5> 249 67<118 537 118 611 116 537> 492 68<273 378>
AnchorPoint: "Anchor-0" 329 805 basechar 0
LayerCount: 2
Fore
SplineSet
611 249 m 1
 116 249 l 1
 122 141 216 55 329 55 c 0
 412 55 489 105 520 180 c 1
 597 180 l 1
 557 65 450 -13 331 -13 c 0
 169 -13 42 114 42 276 c 0
 42 435 167 560 325 560 c 0
 433 560 530 503 578 411 c 0
 602 365 611 322 611 249 c 1
118 316 m 1
 537 316 l 1
 512 425 431 492 325 492 c 0
 221 492 138 421 118 316 c 1
214 776 m 1
 412 666 l 1
 379 610 l 1
 182 718 l 1
 214 776 l 1
EndSplineSet
EndChar

StartChar: uni040D
Encoding: 421 1037 356
Width: 740
GlyphClass: 2
Flags: MW
HStem: 0 21G<76 150 76 76 590 664 590 590> 719 20G<76 150 150 150 590 664 664 664>
VStem: 76 74<110 739> 590 74<0 629 629 629 0 739>
AnchorPoint: "Anchor-0" 370 987 basechar 0
LayerCount: 2
Fore
SplineSet
247 958 m 1
 445 848 l 1
 412 792 l 1
 215 900 l 1
 247 958 l 1
590 739 m 1
 664 739 l 1
 664 0 l 1
 590 0 l 1
 590 629 l 1
 150 0 l 1
 76 0 l 1
 76 739 l 1
 150 739 l 1
 150 110 l 1
 590 739 l 1
EndSplineSet
EndChar

StartChar: uni045D
Encoding: 422 1117 357
Width: 607
GlyphClass: 2
Flags: MW
HStem: 0 21G<63 137 63 63 470 544 470 470> 527 20G<63 137 137 137 470 544 544 544>
VStem: 63 74<105 547> 470 74<0 442 442 442 0 547>
AnchorPoint: "Anchor-0" 304 805 basechar 0
LayerCount: 2
Fore
SplineSet
181 776 m 1
 379 666 l 1
 346 610 l 1
 149 718 l 1
 181 776 l 1
470 547 m 1
 544 547 l 1
 544 0 l 1
 470 0 l 1
 470 442 l 1
 137 0 l 1
 63 0 l 1
 63 547 l 1
 137 547 l 1
 137 105 l 1
 470 547 l 1
EndSplineSet
Substitution2: "'locl' Localized Forms in Cyrillic lookup 1 subtable" uni045D.loclBGR
Substitution2: "'locl' Localized Forms in Cyrillic lookup 0 subtable" uni045D.loclBGR
EndChar

StartChar: afii10050
Encoding: 423 1168 358
Width: 444
GlyphClass: 2
Flags: MW
HStem: 0 21G<76 150 76 76> 672 67<150 370 76 437 150 150>
VStem: 76 74<0 672 0 739 0 739> 386 51<849 849>
AnchorPoint: "Anchor-0" 256 890 basechar 0
LayerCount: 2
Fore
SplineSet
437 672 m 1
 150 672 l 1
 150 0 l 1
 76 0 l 1
 76 739 l 1
 370 739 l 1
 386 849 l 1
 437 849 l 1
 437 672 l 1
EndSplineSet
EndChar

StartChar: afii10098
Encoding: 424 1169 359
Width: 355
GlyphClass: 2
Flags: MW
HStem: 0 21G<63 137 63 63> 480 67<137 278 63 343 137 137>
VStem: 63 74<0 480 0 547 0 547> 294 49<480 642>
AnchorPoint: "Anchor-0" 203 685 basechar 0
LayerCount: 2
Fore
SplineSet
343 642 m 1
 343 480 l 1
 137 480 l 1
 137 0 l 1
 63 0 l 1
 63 547 l 1
 278 547 l 1
 294 642 l 1
 343 642 l 1
EndSplineSet
EndChar

StartChar: breve.cyrlc
Encoding: 425 57472 360
Width: 453
GlyphClass: 2
Flags: MW
HStem: 616 46<201.5 250.5 201.5 266> 726 20G<74 148 148 148 304 378 378 378>
VStem: 74 74<717 746> 304 74<717 746>
LayerCount: 2
Fore
SplineSet
74 746 m 1
 148 746 l 1
 148 688 177 662 226 662 c 0
 275 662 304 688 304 746 c 1
 378 746 l 1
 363 656 306 616 226 616 c 0
 146 616 89 656 74 746 c 1
EndSplineSet
EndChar

StartChar: afii10146
Encoding: 426 1122 361
Width: 691
GlyphClass: 2
Flags: MW
HStem: 0 67<261 363 363 388> 358 67<261 400 261 394> 559 67<12 187 12 187 261 466> 719 20G<187 261 261 261>
VStem: 187 74<67 358 67 425 425 559 626 739> 591 75<181 243>
AnchorPoint: "Anchor-0" 224 805 basechar 0
LayerCount: 2
Fore
SplineSet
261 358 m 1
 261 67 l 1
 363 67 l 2
 434 67 478 72 510 82 c 0
 562 98 591 147 591 215 c 0
 591 271 570 314 532 334 c 0
 502 351 460 358 394 358 c 2
 261 358 l 1
187 739 m 1
 261 739 l 1
 261 626 l 1
 466 626 l 1
 466 559 l 1
 261 559 l 1
 261 425 l 1
 400 425 l 2
 497 425 550 412 594 381 c 0
 641 347 666 288 666 216 c 0
 666 134 635 70 580 38 c 0
 535 11 481 0 388 0 c 2
 187 0 l 1
 187 559 l 1
 12 559 l 1
 12 626 l 1
 187 626 l 1
 187 739 l 1
EndSplineSet
EndChar

StartChar: afii10194
Encoding: 427 1123 362
Width: 593
GlyphClass: 2
Flags: MW
HStem: 0 67<221 363 363 382> 261 67<221 382 221 363> 480 67<12 147 12 147 221 376> 719 20G<147 221 221 221>
VStem: 147 74<67 261 328 480 547 739> 495 75<132.5 195.5>
AnchorPoint: "Anchor-0" 184 805 basechar 0
LayerCount: 2
Fore
SplineSet
382 328 m 2
 497 328 570 258 570 164 c 0
 570 70 497 0 382 0 c 2
 147 0 l 1
 147 480 l 1
 12 480 l 1
 12 547 l 1
 147 547 l 1
 147 739 l 1
 221 739 l 1
 221 547 l 1
 376 547 l 1
 376 480 l 1
 221 480 l 1
 221 328 l 1
 382 328 l 2
221 261 m 1
 221 67 l 1
 363 67 l 2
 453 67 495 101 495 164 c 0
 495 227 453 261 363 261 c 2
 221 261 l 1
EndSplineSet
EndChar

StartChar: breve.cyruc
Encoding: 428 57473 363
Width: 482
GlyphClass: 2
Flags: MW
HStem: 796 46<212 270 212 285>
VStem: 74 75<899.5 931> 333 75<899.5 931>
LayerCount: 2
Fore
SplineSet
74 931 m 1
 149 931 l 1
 149 868 183 842 241 842 c 0
 299 842 333 868 333 931 c 1
 408 931 l 1
 392 836 329 796 241 796 c 0
 153 796 90 836 74 931 c 1
EndSplineSet
EndChar

StartChar: uni0308
Encoding: 429 776 364
Width: 0
GlyphClass: 4
Flags: MW
HStem: 623 126<-438 -364 -438 -364 -438 -291 -291 -217>
VStem: -438 74<623 749 623 749> -291 74<623 749 623 749>
AnchorPoint: "Anchor-1" -328 805 basemark 0
AnchorPoint: "Anchor-1" -328 623 mark 0
AnchorPoint: "Anchor-0" -328 623 mark 0
LayerCount: 2
Fore
SplineSet
-438 749 m 1
 -364 749 l 1
 -364 623 l 1
 -438 623 l 1
 -438 749 l 1
-291 749 m 1
 -217 749 l 1
 -217 623 l 1
 -291 623 l 1
 -291 749 l 1
EndSplineSet
EndChar

StartChar: acutecomb
Encoding: 430 769 365
Width: 0
GlyphClass: 4
Flags: W
AnchorPoint: "Anchor-1" -328 805 basemark 0
AnchorPoint: "Anchor-1" -328 623 mark 0
AnchorPoint: "Anchor-0" -328 623 mark 0
LayerCount: 2
Fore
SplineSet
-408 666 m 1
 -215 782 l 1
 -181 724 l 1
 -374 610 l 1
 -408 666 l 1
EndSplineSet
EndChar

StartChar: gravecomb
Encoding: 431 768 366
Width: 0
GlyphClass: 4
Flags: W
AnchorPoint: "Anchor-1" -328 805 basemark 0
AnchorPoint: "Anchor-1" -328 623 mark 0
AnchorPoint: "Anchor-0" -328 623 mark 0
LayerCount: 2
Fore
SplineSet
-444 776 m 1
 -246 666 l 1
 -279 610 l 1
 -476 718 l 1
 -444 776 l 1
EndSplineSet
EndChar

StartChar: uni0302
Encoding: 432 770 367
Width: 0
GlyphClass: 4
Flags: MW
HStem: 729 20G<-360 -294 -294 -294>
AnchorPoint: "Anchor-1" -328 805 basemark 0
AnchorPoint: "Anchor-1" -328 623 mark 0
AnchorPoint: "Anchor-0" -328 623 mark 0
LayerCount: 2
Fore
SplineSet
-505 623 m 1
 -360 749 l 1
 -294 749 l 1
 -151 623 l 1
 -240 623 l 1
 -326 697 l 1
 -414 623 l 1
 -505 623 l 1
EndSplineSet
EndChar

StartChar: uni030C
Encoding: 433 780 368
Width: 0
GlyphClass: 4
Flags: MW
HStem: 729 20G<-505 -416 -416 -416 -242 -151 -151 -151>
AnchorPoint: "Anchor-1" -328 805 basemark 0
AnchorPoint: "Anchor-1" -328 623 mark 0
AnchorPoint: "Anchor-0" -328 623 mark 0
LayerCount: 2
Fore
SplineSet
-151 749 m 1
 -296 623 l 1
 -362 623 l 1
 -505 749 l 1
 -416 749 l 1
 -330 675 l 1
 -242 749 l 1
 -151 749 l 1
EndSplineSet
EndChar

StartChar: uni030A
Encoding: 434 778 369
Width: 0
GlyphClass: 4
Flags: MW
HStem: 610 41<-341 -313 -341 -301.5> 753 41<-341.5 -313.5>
VStem: -419 41<687 715.5 687 727> -276 41<687.5 715.5>
AnchorPoint: "Anchor-1" -327 820 basemark 0
AnchorPoint: "Anchor-1" -327 623 mark 0
AnchorPoint: "Anchor-0" -327 623 mark 0
LayerCount: 2
Fore
SplineSet
-326 794 m 0
 -276 794 -235 752 -235 702 c 0
 -235 651 -276 610 -327 610 c 0
 -378 610 -419 651 -419 701 c 0
 -419 753 -378 794 -326 794 c 0
-328 753 m 0
 -355 753 -378 730 -378 701 c 0
 -378 673 -355 651 -327 651 c 0
 -299 651 -276 674 -276 701 c 0
 -276 730 -299 753 -328 753 c 0
EndSplineSet
EndChar

StartChar: tildecomb
Encoding: 435 771 370
Width: 0
GlyphClass: 4
Flags: MW
HStem: 633 64<-270.5 -256.5 -270.5 -250.5> 665 63<-382.5 -367.5>
AnchorPoint: "Anchor-1" -330 805 basemark 0
AnchorPoint: "Anchor-1" -330 623 mark 0
AnchorPoint: "Anchor-0" -330 623 mark 0
LayerCount: 2
Fore
SplineSet
-209 728 m 1x80
 -176 682 l 1
 -192 656 -234 633 -267 633 c 0x80
 -282 633 -299 639 -333 655 c 0
 -348 661 -362 665 -373 665 c 0
 -392 665 -400 661 -426 639 c 2
 -433 633 l 1
 -466 679 l 1
 -443 710 -409 728 -373 728 c 0x40
 -355 728 -345 725 -314 711 c 0
 -297 704 -275 697 -266 697 c 0
 -247 697 -230 706 -209 728 c 1x80
EndSplineSet
EndChar

StartChar: uni0304
Encoding: 436 772 371
Width: 0
GlyphClass: 4
Flags: MW
HStem: 643 64<-496 -159 -496 -159>
AnchorPoint: "Anchor-1" -327 805 basemark 0
AnchorPoint: "Anchor-1" -327 623 mark 0
AnchorPoint: "Anchor-0" -327 623 mark 0
LayerCount: 2
Fore
SplineSet
-496 707 m 1
 -159 707 l 1
 -159 643 l 1
 -496 643 l 1
 -496 707 l 1
EndSplineSet
EndChar

